<svg width='200' height='200' fill="#000000" xmlns="http://www.w3.org/2000/svg" xmlns:xlink="http://www.w3.org/1999/xlink" version="1.1" x="0px" y="0px" viewBox="0 0 100 100" enable-background="new 0 0 100 100" xml:space="preserve"><g><g><path d="M43.82,42.337L27.305,13.728C33.979,9.866,41.731,7.652,50,7.652c8.267,0,16.017,2.214,22.695,6.076L56.18,42.337    c-1.821-1.055-3.926-1.666-6.18-1.666S45.641,41.282,43.82,42.337z M62.367,53.038c0,4.575-2.494,8.562-6.188,10.698l16.516,28.61    C86.258,84.5,95.383,69.835,95.383,53.038H62.367z M37.633,53.038H4.617c0,16.797,9.125,31.462,22.688,39.309l16.515-28.61    C40.126,61.6,37.633,57.613,37.633,53.038z M50,45.677c-4.064,0-7.36,3.296-7.36,7.361c0,4.064,3.295,7.356,7.36,7.356    s7.357-3.292,7.357-7.356C57.357,48.973,54.064,45.677,50,45.677z"/></g></g></svg>