<svg width='200' height='200' fill="#000000" xmlns="http://www.w3.org/2000/svg" xmlns:xlink="http://www.w3.org/1999/xlink" version="1.1" x="0px" y="0px" viewBox="0 0 100 100" enable-background="new 0 0 100 100" xml:space="preserve"><path d="M50,0C22.386,0,0,22.386,0,50c0,27.615,22.386,50,50,50s50-22.385,50-50C100,22.386,77.614,0,50,0z M50.038,77.443  c-15.165,0-27.459-12.293-27.459-27.459c0-15.165,12.294-27.459,27.459-27.459c12.856,0,23.646,8.837,26.634,20.768H64.527  c-2.536-5.469-8.075-9.273-14.489-9.273c-8.803,0-15.965,7.162-15.965,15.965s7.162,15.965,15.965,15.965  c6.437,0,11.991-3.83,14.516-9.33h12.132C73.717,68.578,62.915,77.443,50.038,77.443z"/></svg>