<?xml version="1.0" encoding="UTF-8" standalone="no"?>
<!-- Created with Inkscape (http://www.inkscape.org/) -->

<svg
   xmlns:dc="http://purl.org/dc/elements/1.1/"
   xmlns:cc="http://creativecommons.org/ns#"
   xmlns:rdf="http://www.w3.org/1999/02/22-rdf-syntax-ns#"
   xmlns:svg="http://www.w3.org/2000/svg"
   xmlns="http://www.w3.org/2000/svg"
   xmlns:sodipodi="http://sodipodi.sourceforge.net/DTD/sodipodi-0.dtd"
   xmlns:inkscape="http://www.inkscape.org/namespaces/inkscape"
   width="195mm"
   height="195mm"
   viewBox="0 0 690.94484 690.94472"
   id="svg2"
   version="1.1"
   inkscape:version="0.91 r13725"
   sodipodi:docname="adept.svg">
  <defs
     id="defs4" />
  <sodipodi:namedview
     id="base"
     pagecolor="#ffffff"
     bordercolor="#666666"
     borderopacity="1.0"
     inkscape:pageopacity="0.0"
     inkscape:pageshadow="2"
     inkscape:zoom="0.98994949"
     inkscape:cx="-129.55511"
     inkscape:cy="304.64766"
     inkscape:document-units="px"
     inkscape:current-layer="layer1"
     showgrid="true"
     showguides="false"
     inkscape:window-width="1920"
     inkscape:window-height="1017"
     inkscape:window-x="-8"
     inkscape:window-y="-8"
     inkscape:window-maximized="1">
    <inkscape:grid
       type="xygrid"
       id="grid4169" />
  </sodipodi:namedview>
  <metadata
     id="metadata7">
    <rdf:RDF>
      <cc:Work
         rdf:about="">
        <dc:format>image/svg+xml</dc:format>
        <dc:type
           rdf:resource="http://purl.org/dc/dcmitype/StillImage" />
        <dc:title />
      </cc:Work>
    </rdf:RDF>
  </metadata>
  <g
     inkscape:label="Layer 1"
     inkscape:groupmode="layer"
     id="layer1"
     transform="translate(0,-361.41754)">
    <path
       style="fill:#021626;fill-rule:evenodd;stroke:#000000;stroke-width:0;stroke-linecap:butt;stroke-linejoin:miter;stroke-opacity:0;stroke-miterlimit:4;stroke-dasharray:none;fill-opacity:1"
       d="m 39.395949,402.83428 610.604051,0 0,309.52809 C 569.99993,922.3623 350,1012.3624 350,1012.3624 c 0,0 -220.00002,-90.0001 -310,-300.0207 z"
       id="path4236"
       inkscape:connector-curvature="0"
       sodipodi:nodetypes="cccccc"
       inkscape:export-xdpi="240"
       inkscape:export-ydpi="240" />
    <path
       style="fill:none;fill-opacity:1;fill-rule:evenodd;stroke:#6467b9;stroke-width:28.85372353;stroke-linecap:butt;stroke-linejoin:miter;stroke-miterlimit:4;stroke-dasharray:none;stroke-opacity:1"
       d="m 53.533569,416.85029 581.751921,0 0,294.60255 c -76.21992,199.87368 -285.82446,285.53401 -285.82446,285.53401 0,0 -209.60463,-85.66033 -295.351953,-285.55369 z"
       id="path4236-2"
       inkscape:connector-curvature="0"
       sodipodi:nodetypes="cccccc" />
    <g
       id="g4149"
       transform="matrix(0.89366306,0,0,0.89366306,36.63725,64.570287)">
      <circle
         r="110"
         cy="676.80396"
         cx="342.22336"
         id="path8598"
         style="opacity:1;fill:#eeeeee;fill-opacity:0;fill-rule:nonzero;stroke:#eeeeee;stroke-width:14.99999809;stroke-linecap:butt;stroke-linejoin:miter;stroke-miterlimit:4;stroke-dasharray:none;stroke-opacity:1" />
      <path
         inkscape:connector-curvature="0"
         id="path7780"
         d="m 247.65309,464.60007 a 37.880722,37.375645 13.476203 0 0 -45.54781,27.51815 37.880722,37.375645 13.476203 0 0 28.12794,45.17375 37.880722,37.375645 13.476203 0 0 26.11151,-3.0758 l -2.13789,1.31133 29.17217,47.56295 6.821,-4.18381 -29.13842,-47.50265 a 37.880722,37.375645 13.476203 0 0 14.71942,-21.63015 37.880722,37.375645 13.476203 0 0 -28.12792,-45.17377 z"
         style="opacity:1;fill:#eeeeee;fill-opacity:1;fill-rule:nonzero;stroke:#eeeeee;stroke-width:0.99999988;stroke-linecap:butt;stroke-linejoin:miter;stroke-miterlimit:4;stroke-dasharray:none;stroke-opacity:1" />
      <path
         inkscape:connector-curvature="0"
         id="path7780-3"
         d="m 438.42435,885.65258 a 37.880717,37.375641 13.476203 0 0 45.5478,-27.51815 37.880717,37.375641 13.476203 0 0 -28.12793,-45.17374 37.880717,37.375641 13.476203 0 0 -26.11151,3.07579 l 2.13789,-1.31133 -29.17217,-47.56294 -6.821,4.1838 29.13842,47.50265 a 37.880717,37.375641 13.476203 0 0 -14.71942,21.63016 37.880717,37.375641 13.476203 0 0 28.12792,45.17376 z"
         style="opacity:1;fill:#eeeeee;fill-opacity:1;fill-rule:nonzero;stroke:#eeeeee;stroke-width:0.99999988;stroke-linecap:butt;stroke-linejoin:miter;stroke-miterlimit:4;stroke-dasharray:none;stroke-opacity:1" />
      <path
         inkscape:connector-curvature="0"
         id="path7780-3-1"
         d="m 319.66607,900.67116 a 34.285249,33.828112 44.883422 0 0 48.16365,0.22575 34.285249,33.828112 44.883422 0 0 -0.42172,-48.16232 34.285249,33.828112 44.883422 0 0 -21.62124,-9.93964 l 2.26997,-0.005 -0.10151,-50.50043 -7.24235,0.0147 0.10385,50.43795 a 34.285249,33.828112 44.883422 0 0 -21.57236,9.76629 34.285249,33.828112 44.883422 0 0 0.42171,48.16232 z"
         style="opacity:1;fill:#eeeeee;fill-opacity:1;fill-rule:nonzero;stroke:#eeeeee;stroke-width:0.90508449;stroke-linecap:butt;stroke-linejoin:miter;stroke-miterlimit:4;stroke-dasharray:none;stroke-opacity:1" />
      <path
         inkscape:connector-curvature="0"
         id="path7780-3-1-1"
         d="m 318.61468,456.26871 a 33.828108,34.285245 45.116578 0 1 48.16364,-0.22575 33.828108,34.285245 45.116578 0 1 -0.42172,48.16233 33.828108,34.285245 45.116578 0 1 -21.62124,9.93963 l 2.26997,0.005 -0.10151,50.50042 -7.24235,-0.0147 0.10385,-50.43794 a 33.828108,34.285245 45.116578 0 1 -21.57235,-9.76628 33.828108,34.285245 45.116578 0 1 0.42171,-48.16233 z"
         style="opacity:1;fill:#eeeeee;fill-opacity:1;fill-rule:nonzero;stroke:#eeeeee;stroke-width:0.90508449;stroke-linecap:butt;stroke-linejoin:miter;stroke-miterlimit:4;stroke-dasharray:none;stroke-opacity:1" />
      <path
         inkscape:connector-curvature="0"
         id="path7780-3-1-1-4"
         d="m 133.77006,583.57619 a 34.285241,33.828104 74.632524 0 1 23.53213,-42.02411 34.285241,33.828104 74.632524 0 1 41.70396,24.09492 34.285241,33.828104 74.632524 0 1 -2.00239,23.71211 l 1.12269,-1.9729 43.8964,24.96816 -3.58087,6.29519 -43.84086,-24.93941 a 34.285241,33.828104 74.632524 0 1 -19.12675,13.96114 34.285241,33.828104 74.632524 0 1 -41.704,-24.0949 z"
         style="opacity:1;fill:#eeeeee;fill-opacity:1;fill-rule:nonzero;stroke:#eeeeee;stroke-width:0.90508449;stroke-linecap:butt;stroke-linejoin:miter;stroke-miterlimit:4;stroke-dasharray:none;stroke-opacity:1" />
      <path
         inkscape:connector-curvature="0"
         id="path7780-3-1-1-4-3"
         d="m 553.21233,762.85204 a 34.285237,33.8281 74.632524 0 1 -23.53213,42.02411 34.285237,33.8281 74.632524 0 1 -41.70395,-24.09492 34.285237,33.8281 74.632524 0 1 2.00239,-23.71211 l -1.12269,1.9729 -43.8964,-24.96816 3.58087,-6.29518 43.84086,24.9394 a 34.285237,33.8281 74.632524 0 1 19.12674,-13.96114 34.285237,33.8281 74.632524 0 1 41.704,24.0949 z"
         style="opacity:1;fill:#eeeeee;fill-opacity:1;fill-rule:nonzero;stroke:#eeeeee;stroke-width:0.90508449;stroke-linecap:butt;stroke-linejoin:miter;stroke-miterlimit:4;stroke-dasharray:none;stroke-opacity:1" />
      <path
         inkscape:connector-curvature="0"
         id="path7780-3-1-1-4-3-8"
         d="m 548.026,653.77841 a 29.634161,29.239039 45.454107 0 1 -0.0501,41.63027 29.634161,29.239039 45.454107 0 1 -41.62581,-0.60975 29.634161,29.239039 45.454107 0 1 -8.481,-18.73842 l -0.0159,1.96197 -43.64834,-0.34486 0.0496,-6.2597 43.59431,0.34658 a 29.634161,29.239039 45.454107 0 1 8.5511,-18.59582 29.634161,29.239039 45.454107 0 1 41.62583,0.60971 z"
         style="opacity:1;fill:#eeeeee;fill-opacity:1;fill-rule:nonzero;stroke:#eeeeee;stroke-width:0.78230238;stroke-linecap:butt;stroke-linejoin:miter;stroke-miterlimit:4;stroke-dasharray:none;stroke-opacity:1" />
      <path
         inkscape:connector-curvature="0"
         id="path7780-3-1-1-4-3-8-6"
         d="m 143.44171,654.19288 a 29.239036,29.634157 44.545893 0 0 0.0501,41.63027 29.239036,29.634157 44.545893 0 0 41.62581,-0.60975 29.239036,29.634157 44.545893 0 0 8.481,-18.73842 l 0.0159,1.96197 43.64833,-0.34486 -0.0496,-6.2597 -43.5943,0.34658 a 29.239036,29.634157 44.545893 0 0 -8.5511,-18.59582 29.239036,29.634157 44.545893 0 0 -41.62583,0.60971 z"
         style="opacity:1;fill:#eeeeee;fill-opacity:1;fill-rule:nonzero;stroke:#eeeeee;stroke-width:0.78230238;stroke-linecap:butt;stroke-linejoin:miter;stroke-miterlimit:4;stroke-dasharray:none;stroke-opacity:1" />
      <path
         inkscape:connector-curvature="0"
         id="path7780-3-1-1-4-3-8-6-7"
         d="m 473.05401,515.96001 a 29.634153,29.239033 79.35685 0 0 -34.20873,-23.72435 29.634153,29.239033 79.35685 0 0 -23.26232,34.52454 29.634153,29.239033 79.35685 0 0 10.54344,17.66045 l -1.61992,-1.10698 -24.6344,36.03389 5.16777,3.53276 24.60214,-35.99052 a 29.634153,29.239033 79.35685 0 0 20.14948,3.59503 29.634153,29.239033 79.35685 0 0 23.26238,-34.52455 z"
         style="opacity:1;fill:#eeeeee;fill-opacity:1;fill-rule:nonzero;stroke:#eeeeee;stroke-width:0.78230238;stroke-linecap:butt;stroke-linejoin:miter;stroke-miterlimit:4;stroke-dasharray:none;stroke-opacity:1" />
      <path
         inkscape:connector-curvature="0"
         id="path7780-3-1-1-4-3-8-6-7-6"
         d="m 220.36487,831.84096 a 29.634149,29.23903 79.35685 0 0 34.20872,23.72436 29.634149,29.23903 79.35685 0 0 23.26232,-34.52454 29.634149,29.23903 79.35685 0 0 -10.54345,-17.66044 l 1.61993,1.10698 24.6344,-36.0339 -5.16777,-3.53276 -24.60215,35.99053 a 29.634149,29.23903 79.35685 0 0 -20.14946,-3.59503 29.634149,29.23903 79.35685 0 0 -23.26238,34.52453 z"
         style="opacity:1;fill:#eeeeee;fill-opacity:1;fill-rule:nonzero;stroke:#eeeeee;stroke-width:0.78230238;stroke-linecap:butt;stroke-linejoin:miter;stroke-miterlimit:4;stroke-dasharray:none;stroke-opacity:1" />
      <path
         inkscape:transform-center-y="-21.809858"
         inkscape:transform-center-x="-36.009056"
         sodipodi:nodetypes="ccccccccccc"
         inkscape:connector-curvature="0"
         id="path7780-3-1-1-4-3-8-6-7-6-4-1"
         d="m 516.55436,597.64466 c 3.32597,-10.85626 -2.6611,-22.31729 -13.37257,-25.59907 -10.71158,-3.28138 -22.09109,2.85922 -25.41698,13.71551 -1.432,4.70439 -1.15278,9.75932 0.78698,14.24776 l -0.63856,-1.20211 -36.32385,17.35176 2.03664,3.8357 36.29006,-17.3355 c 2.57355,4.17863 6.55737,7.26793 11.22111,8.70155 10.71157,3.2814 22.09108,-2.8592 25.41698,-13.71547 z"
         style="opacity:1;fill:#eeeeee;fill-opacity:1;fill-rule:nonzero;stroke:#eeeeee;stroke-width:0.54273063;stroke-linecap:butt;stroke-linejoin:miter;stroke-miterlimit:4;stroke-dasharray:none;stroke-opacity:1" />
      <path
         inkscape:transform-center-y="21.809854"
         inkscape:transform-center-x="36.009052"
         sodipodi:nodetypes="ccccccccccc"
         inkscape:connector-curvature="0"
         id="path7780-3-1-1-4-3-8-6-7-6-4-1-4"
         d="m 167.1975,754.10804 c -3.32597,10.85626 2.6611,22.31729 13.37257,25.59907 10.71158,3.28139 22.09109,-2.85922 25.41698,-13.71551 1.432,-4.70439 1.15278,-9.75932 -0.78698,-14.24776 l 0.63856,1.20211 36.32385,-17.35175 -2.03664,-3.8357 -36.29006,17.33549 c -2.57355,-4.17863 -6.55737,-7.26793 -11.22111,-8.70155 -10.71157,-3.28139 -22.09108,2.8592 -25.41698,13.71547 z"
         style="opacity:1;fill:#eeeeee;fill-opacity:1;fill-rule:nonzero;stroke:#eeeeee;stroke-width:0.54273063;stroke-linecap:butt;stroke-linejoin:miter;stroke-miterlimit:4;stroke-dasharray:none;stroke-opacity:1" />
    </g>
  </g>
</svg>
