<?xml version="1.0" encoding="UTF-8" standalone="no"?>
<!-- Created with Inkscape (http://www.inkscape.org/) -->

<svg
   xmlns:dc="http://purl.org/dc/elements/1.1/"
   xmlns:cc="http://creativecommons.org/ns#"
   xmlns:rdf="http://www.w3.org/1999/02/22-rdf-syntax-ns#"
   xmlns:svg="http://www.w3.org/2000/svg"
   xmlns="http://www.w3.org/2000/svg"
   xmlns:sodipodi="http://sodipodi.sourceforge.net/DTD/sodipodi-0.dtd"
   xmlns:inkscape="http://www.inkscape.org/namespaces/inkscape"
   width="195mm"
   height="195mm"
   viewBox="0 0 690.94484 690.94472"
   id="svg2"
   version="1.1"
   inkscape:version="0.91 r13725"
   sodipodi:docname="infiltrator.svg"
   inkscape:export-filename="G:\Pictures\Projects\ME Logo\infiltrator.png"
   inkscape:export-xdpi="240"
   inkscape:export-ydpi="240">
  <defs
     id="defs4" />
  <sodipodi:namedview
     id="base"
     pagecolor="#ffffff"
     bordercolor="#666666"
     borderopacity="1.0"
     inkscape:pageopacity="0.0"
     inkscape:pageshadow="2"
     inkscape:zoom="0.98994949"
     inkscape:cx="139.76275"
     inkscape:cy="349.1639"
     inkscape:document-units="px"
     inkscape:current-layer="layer1"
     showgrid="false"
     showguides="false"
     inkscape:window-width="1920"
     inkscape:window-height="1017"
     inkscape:window-x="-8"
     inkscape:window-y="-8"
     inkscape:window-maximized="1">
    <inkscape:grid
       type="xygrid"
       id="grid4169" />
  </sodipodi:namedview>
  <metadata
     id="metadata7">
    <rdf:RDF>
      <cc:Work
         rdf:about="">
        <dc:format>image/svg+xml</dc:format>
        <dc:type
           rdf:resource="http://purl.org/dc/dcmitype/StillImage" />
        <dc:title />
      </cc:Work>
    </rdf:RDF>
  </metadata>
  <g
     inkscape:label="Layer 1"
     inkscape:groupmode="layer"
     id="layer1"
     transform="translate(0,-361.41754)">
    <path
       style="fill:#021626;fill-rule:evenodd;stroke:#000000;stroke-width:0;stroke-linecap:butt;stroke-linejoin:miter;stroke-opacity:0;stroke-miterlimit:4;stroke-dasharray:none;fill-opacity:1"
       d="m 39.395949,402.83428 610.604051,0 0,309.52809 C 569.99993,922.3623 350,1012.3624 350,1012.3624 c 0,0 -220.00002,-90.0001 -310,-300.0207 z"
       id="path4236"
       inkscape:connector-curvature="0"
       sodipodi:nodetypes="cccccc" />
    <path
       style="fill:none;fill-opacity:1;fill-rule:evenodd;stroke:#d98300;stroke-width:28.85372353;stroke-linecap:butt;stroke-linejoin:miter;stroke-miterlimit:4;stroke-dasharray:none;stroke-opacity:1"
       d="m 334.48731,989.68119 c 0,0 -194.63091,-78.35467 -280.378233,-278.24803 l -0.575508,-294.58287 276.481281,0.50507"
       id="path4255"
       inkscape:connector-curvature="0"
       sodipodi:nodetypes="cccc" />
    <path
       style="fill:none;fill-opacity:1;fill-rule:evenodd;stroke:#d42620;stroke-width:28.85399628;stroke-linecap:butt;stroke-linejoin:miter;stroke-miterlimit:4;stroke-dasharray:none;stroke-opacity:1"
       d="m 360.57197,417.10283 274.71352,-0.25254 0,294.60255 C 559.06557,911.32652 364.37347,989.68119 364.37347,989.68119"
       id="path4236-2"
       inkscape:connector-curvature="0"
       sodipodi:nodetypes="cccc" />
    <path
       inkscape:connector-curvature="0"
       id="path5358-3-1"
       style="fill:none;fill-rule:evenodd;stroke:#eeeeee;stroke-width:14.99999809;stroke-linecap:butt;stroke-linejoin:miter;stroke-miterlimit:4;stroke-dasharray:none;stroke-opacity:1"
       d="m 513.10218,673.67172 -41.61674,0 m -252.14896,0 -39.09136,0 m 165.71424,136.68513 0,30 m 0,-332.14279 0,29.99999 m 169.99998,135.45767 c 0,93.8884 -76.11158,169.99998 -169.99998,169.99998 -93.8884,0 -169.99998,-76.11158 -169.99998,-169.99998 0,-93.8884 76.11158,-169.99998 169.99998,-169.99998 93.8884,0 169.99998,76.11158 169.99998,169.99998 z"
       sodipodi:nodetypes="ccccccccsssss" />
    <path
       style="color:#000000;font-style:normal;font-variant:normal;font-weight:normal;font-stretch:normal;font-size:medium;line-height:normal;font-family:sans-serif;text-indent:0;text-align:start;text-decoration:none;text-decoration-line:none;text-decoration-style:solid;text-decoration-color:#000000;letter-spacing:normal;word-spacing:normal;text-transform:none;direction:ltr;block-progression:tb;writing-mode:lr-tb;baseline-shift:baseline;text-anchor:start;white-space:normal;clip-rule:nonzero;display:inline;overflow:visible;visibility:visible;opacity:1;isolation:auto;mix-blend-mode:normal;color-interpolation:sRGB;color-interpolation-filters:linearRGB;solid-color:#000000;solid-opacity:1;fill:#eeeeee;fill-opacity:1;fill-rule:nonzero;stroke:none;stroke-width:8.33983707;stroke-linecap:butt;stroke-linejoin:miter;stroke-miterlimit:4;stroke-dasharray:none;stroke-dashoffset:0;stroke-opacity:1;color-rendering:auto;image-rendering:auto;shape-rendering:auto;text-rendering:auto;enable-background:accumulate"
       d="m 474.6086,599.39529 -128.64764,-74.27405 -128.65349,74.27405 0,148.55396 6.25294,3.60657 122.40055,70.6675 128.64764,-74.27407 z m -25.00004,14.43208 0,119.68395 -79.53301,45.38273 -0.27158,-44.88324 51.06667,-25.67949 -0.22382,-76.29028 -50.2238,-23.79029 0.98095,74.56226 -25.18095,19.83883 -25.44417,-19.78567 -0.44417,-75.14281 -49.45976,24.71437 -0.34811,74.07157 49.25812,27.64065 -0.0397,44.28677 -77.43767,-44.92533 0,-119.68395 103.65345,-59.84196 z"
       id="path6005"
       inkscape:connector-curvature="0"
       sodipodi:nodetypes="ccccccccccccccccccccccccccc" />
  </g>
</svg>
