<?xml version="1.0" encoding="UTF-8" standalone="no"?>
<!-- Created with Inkscape (http://www.inkscape.org/) -->

<svg
   xmlns:dc="http://purl.org/dc/elements/1.1/"
   xmlns:cc="http://creativecommons.org/ns#"
   xmlns:rdf="http://www.w3.org/1999/02/22-rdf-syntax-ns#"
   xmlns:svg="http://www.w3.org/2000/svg"
   xmlns="http://www.w3.org/2000/svg"
   xmlns:sodipodi="http://sodipodi.sourceforge.net/DTD/sodipodi-0.dtd"
   xmlns:inkscape="http://www.inkscape.org/namespaces/inkscape"
   width="195mm"
   height="195mm"
   viewBox="0 0 690.94484 690.94472"
   id="svg2"
   version="1.1"
   inkscape:version="0.91 r13725"
   sodipodi:docname="sentinel.svg"
   inkscape:export-filename="G:\Pictures\Projects\ME Logo\sentinel.png"
   inkscape:export-xdpi="240"
   inkscape:export-ydpi="240">
  <defs
     id="defs4" />
  <sodipodi:namedview
     id="base"
     pagecolor="#ffffff"
     bordercolor="#666666"
     borderopacity="1.0"
     inkscape:pageopacity="0.0"
     inkscape:pageshadow="2"
     inkscape:zoom="1.4"
     inkscape:cx="253.73378"
     inkscape:cy="403.31831"
     inkscape:document-units="px"
     inkscape:current-layer="layer1"
     showgrid="false"
     showguides="false"
     inkscape:window-width="1920"
     inkscape:window-height="1017"
     inkscape:window-x="-8"
     inkscape:window-y="-8"
     inkscape:window-maximized="1">
    <inkscape:grid
       type="xygrid"
       id="grid4169" />
  </sodipodi:namedview>
  <metadata
     id="metadata7">
    <rdf:RDF>
      <cc:Work
         rdf:about="">
        <dc:format>image/svg+xml</dc:format>
        <dc:type
           rdf:resource="http://purl.org/dc/dcmitype/StillImage" />
        <dc:title />
      </cc:Work>
    </rdf:RDF>
  </metadata>
  <g
     inkscape:label="Layer 1"
     inkscape:groupmode="layer"
     id="layer1"
     transform="translate(0,-361.41754)">
    <path
       style="fill:#021626;fill-rule:evenodd;stroke:#000000;stroke-width:0;stroke-linecap:butt;stroke-linejoin:miter;stroke-opacity:0;stroke-miterlimit:4;stroke-dasharray:none;fill-opacity:1"
       d="m 39.395949,402.83428 610.604051,0 0,309.52809 C 569.99993,922.3623 350,1012.3624 350,1012.3624 c 0,0 -220.00002,-90.0001 -310,-300.0207 z"
       id="path4236"
       inkscape:connector-curvature="0"
       sodipodi:nodetypes="cccccc" />
    <path
       style="fill:none;fill-opacity:1;fill-rule:evenodd;stroke:#d98300;stroke-width:28.85399656;stroke-linecap:butt;stroke-linejoin:miter;stroke-miterlimit:4;stroke-dasharray:none;stroke-opacity:1"
       d="m 334.48731,989.68119 c 0,0 -194.63091,-78.35467 -280.378233,-278.24803 l -0.575508,-294.58287 276.481281,0.50507"
       id="path4255"
       inkscape:connector-curvature="0"
       sodipodi:nodetypes="cccc" />
    <path
       style="fill:none;fill-opacity:1;fill-rule:evenodd;stroke:#6467b9;stroke-width:28.85399628;stroke-linecap:butt;stroke-linejoin:miter;stroke-miterlimit:4;stroke-dasharray:none;stroke-opacity:1"
       d="m 360.57197,417.10283 274.71352,-0.25254 0,294.60255 C 559.06557,911.32652 364.37347,989.68119 364.37347,989.68119"
       id="path4236-2"
       inkscape:connector-curvature="0"
       sodipodi:nodetypes="cccc" />
    <g
       id="g4150"
       transform="matrix(0.90179062,0,0,0.90179062,32.857779,64.32695)">
      <path
         sodipodi:nodetypes="ccccccccccccccccccccccccccc"
         inkscape:connector-curvature="0"
         id="path6005"
         d="m 457.68005,608.98237 -113.13825,-65.31979 -113.1434,65.31979 0,130.64472 5.49911,3.17177 107.64429,62.14803 113.13825,-65.3198 z m -21.98611,12.69218 0,105.2552 -69.94473,39.91153 -0.23885,-39.47225 44.91023,-22.58364 -0.19683,-67.09295 -44.16897,-20.9222 0.86268,65.57325 -22.14521,17.44711 -22.37669,-17.40037 -0.39063,-66.08379 -43.49703,21.73488 -0.30615,65.14171 43.31972,24.30836 -0.035,38.94769 -68.10202,-39.50927 0,-105.25519 91.15729,-52.62758 z"
         style="color:#000000;font-style:normal;font-variant:normal;font-weight:normal;font-stretch:normal;font-size:medium;line-height:normal;font-family:sans-serif;text-indent:0;text-align:start;text-decoration:none;text-decoration-line:none;text-decoration-style:solid;text-decoration-color:#000000;letter-spacing:normal;word-spacing:normal;text-transform:none;direction:ltr;block-progression:tb;writing-mode:lr-tb;baseline-shift:baseline;text-anchor:start;white-space:normal;clip-rule:nonzero;display:inline;overflow:visible;visibility:visible;opacity:1;isolation:auto;mix-blend-mode:normal;color-interpolation:sRGB;color-interpolation-filters:linearRGB;solid-color:#000000;solid-opacity:1;fill:#eeeeee;fill-opacity:1;fill-rule:nonzero;stroke:none;stroke-width:8.33983707;stroke-linecap:butt;stroke-linejoin:miter;stroke-miterlimit:4;stroke-dasharray:none;stroke-dashoffset:0;stroke-opacity:1;color-rendering:auto;image-rendering:auto;shape-rendering:auto;text-rendering:auto;enable-background:accumulate" />
      <path
         inkscape:connector-curvature="0"
         id="path7780"
         d="m 248.73882,464.40213 a 37.880727,37.375649 13.476203 0 0 -45.54781,27.51815 37.880727,37.375649 13.476203 0 0 28.12794,45.17376 37.880727,37.375649 13.476203 0 0 26.11151,-3.0758 l -2.13789,1.31133 29.17218,47.56296 6.821,-4.18381 -29.13842,-47.50266 a 37.880727,37.375649 13.476203 0 0 14.71942,-21.63016 37.880727,37.375649 13.476203 0 0 -28.12793,-45.17377 z"
         style="opacity:1;fill:#eeeeee;fill-opacity:1;fill-rule:nonzero;stroke:#eeeeee;stroke-width:0.99999988;stroke-linecap:butt;stroke-linejoin:miter;stroke-miterlimit:4;stroke-dasharray:none;stroke-opacity:1" />
      <path
         inkscape:connector-curvature="0"
         id="path7780-3"
         d="m 439.51011,885.45469 a 37.880722,37.375645 13.476203 0 0 45.5478,-27.51815 37.880722,37.375645 13.476203 0 0 -28.12793,-45.17375 37.880722,37.375645 13.476203 0 0 -26.11151,3.0758 l 2.13789,-1.31133 -29.17218,-47.56295 -6.821,4.1838 29.13842,47.50266 a 37.880722,37.375645 13.476203 0 0 -14.71942,21.63016 37.880722,37.375645 13.476203 0 0 28.12793,45.17376 z"
         style="opacity:1;fill:#eeeeee;fill-opacity:1;fill-rule:nonzero;stroke:#eeeeee;stroke-width:0.99999988;stroke-linecap:butt;stroke-linejoin:miter;stroke-miterlimit:4;stroke-dasharray:none;stroke-opacity:1" />
      <path
         inkscape:connector-curvature="0"
         id="path7780-3-1"
         d="m 320.75181,900.47328 a 34.285253,33.828116 44.883422 0 0 48.16366,0.22575 34.285253,33.828116 44.883422 0 0 -0.42172,-48.16233 34.285253,33.828116 44.883422 0 0 -21.62124,-9.93964 l 2.26997,-0.005 -0.10151,-50.50044 -7.24236,0.0147 0.10385,50.43796 a 34.285253,33.828116 44.883422 0 0 -21.57236,9.76629 34.285253,33.828116 44.883422 0 0 0.42171,48.16233 z"
         style="opacity:1;fill:#eeeeee;fill-opacity:1;fill-rule:nonzero;stroke:#eeeeee;stroke-width:0.90508449;stroke-linecap:butt;stroke-linejoin:miter;stroke-miterlimit:4;stroke-dasharray:none;stroke-opacity:1" />
      <path
         inkscape:connector-curvature="0"
         id="path7780-3-1-1"
         d="m 319.70042,456.07077 a 33.828112,34.285249 45.116578 0 1 48.16365,-0.22575 33.828112,34.285249 45.116578 0 1 -0.42172,48.16233 33.828112,34.285249 45.116578 0 1 -21.62124,9.93964 l 2.26997,0.005 -0.10151,50.50043 -7.24236,-0.0147 0.10385,-50.43795 a 33.828112,34.285249 45.116578 0 1 -21.57235,-9.76629 33.828112,34.285249 45.116578 0 1 0.42171,-48.16233 z"
         style="opacity:1;fill:#eeeeee;fill-opacity:1;fill-rule:nonzero;stroke:#eeeeee;stroke-width:0.90508449;stroke-linecap:butt;stroke-linejoin:miter;stroke-miterlimit:4;stroke-dasharray:none;stroke-opacity:1" />
      <path
         inkscape:connector-curvature="0"
         id="path7780-3-1-1-4"
         d="m 134.85578,583.37827 a 34.285245,33.828108 74.632524 0 1 23.53213,-42.02412 34.285245,33.828108 74.632524 0 1 41.70397,24.09493 34.285245,33.828108 74.632524 0 1 -2.00239,23.71211 l 1.12269,-1.9729 43.8964,24.96816 -3.58087,6.29519 -43.84086,-24.93941 a 34.285245,33.828108 74.632524 0 1 -19.12676,13.96114 34.285245,33.828108 74.632524 0 1 -41.704,-24.0949 z"
         style="opacity:1;fill:#eeeeee;fill-opacity:1;fill-rule:nonzero;stroke:#eeeeee;stroke-width:0.90508449;stroke-linecap:butt;stroke-linejoin:miter;stroke-miterlimit:4;stroke-dasharray:none;stroke-opacity:1" />
      <path
         inkscape:connector-curvature="0"
         id="path7780-3-1-1-4-3"
         d="m 554.2981,762.65414 a 34.285241,33.828104 74.632524 0 1 -23.53213,42.02411 34.285241,33.828104 74.632524 0 1 -41.70396,-24.09492 34.285241,33.828104 74.632524 0 1 2.00239,-23.71211 l -1.12269,1.9729 -43.8964,-24.96816 3.58087,-6.29519 43.84086,24.93941 a 34.285241,33.828104 74.632524 0 1 19.12675,-13.96114 34.285241,33.828104 74.632524 0 1 41.704,24.0949 z"
         style="opacity:1;fill:#eeeeee;fill-opacity:1;fill-rule:nonzero;stroke:#eeeeee;stroke-width:0.90508449;stroke-linecap:butt;stroke-linejoin:miter;stroke-miterlimit:4;stroke-dasharray:none;stroke-opacity:1" />
      <path
         inkscape:connector-curvature="0"
         id="path7780-3-1-1-4-3-8"
         d="m 549.11177,653.5805 a 29.634165,29.239042 45.454107 0 1 -0.0501,41.63027 29.634165,29.239042 45.454107 0 1 -41.62582,-0.60975 29.634165,29.239042 45.454107 0 1 -8.481,-18.73842 l -0.0159,1.96197 -43.64834,-0.34486 0.0496,-6.2597 43.59431,0.34658 a 29.634165,29.239042 45.454107 0 1 8.5511,-18.59582 29.634165,29.239042 45.454107 0 1 41.62584,0.60971 z"
         style="opacity:1;fill:#eeeeee;fill-opacity:1;fill-rule:nonzero;stroke:#eeeeee;stroke-width:0.78230238;stroke-linecap:butt;stroke-linejoin:miter;stroke-miterlimit:4;stroke-dasharray:none;stroke-opacity:1" />
      <path
         inkscape:connector-curvature="0"
         id="path7780-3-1-1-4-3-8-6"
         d="m 144.52743,653.99497 a 29.239039,29.634161 44.545893 0 0 0.0501,41.63027 29.239039,29.634161 44.545893 0 0 41.62582,-0.60975 29.239039,29.634161 44.545893 0 0 8.481,-18.73842 l 0.0159,1.96197 43.64833,-0.34486 -0.0496,-6.2597 -43.5943,0.34658 a 29.239039,29.634161 44.545893 0 0 -8.5511,-18.59582 29.239039,29.634161 44.545893 0 0 -41.62584,0.60971 z"
         style="opacity:1;fill:#eeeeee;fill-opacity:1;fill-rule:nonzero;stroke:#eeeeee;stroke-width:0.78230238;stroke-linecap:butt;stroke-linejoin:miter;stroke-miterlimit:4;stroke-dasharray:none;stroke-opacity:1" />
      <path
         inkscape:connector-curvature="0"
         id="path7780-3-1-1-4-3-8-6-7"
         d="m 474.13977,515.76208 a 29.634157,29.239036 79.35685 0 0 -34.20873,-23.72436 29.634157,29.239036 79.35685 0 0 -23.26233,34.52455 29.634157,29.239036 79.35685 0 0 10.54345,17.66045 l -1.61993,-1.10698 -24.6344,36.0339 5.16777,3.53276 24.60215,-35.99053 a 29.634157,29.239036 79.35685 0 0 20.14948,3.59503 29.634157,29.239036 79.35685 0 0 23.26238,-34.52455 z"
         style="opacity:1;fill:#eeeeee;fill-opacity:1;fill-rule:nonzero;stroke:#eeeeee;stroke-width:0.78230238;stroke-linecap:butt;stroke-linejoin:miter;stroke-miterlimit:4;stroke-dasharray:none;stroke-opacity:1" />
      <path
         inkscape:connector-curvature="0"
         id="path7780-3-1-1-4-3-8-6-7-6"
         d="m 221.4506,831.64307 a 29.634153,29.239033 79.35685 0 0 34.20872,23.72436 29.634153,29.239033 79.35685 0 0 23.26233,-34.52454 29.634153,29.239033 79.35685 0 0 -10.54345,-17.66045 l 1.61993,1.10698 24.6344,-36.0339 -5.16777,-3.53276 -24.60215,35.99053 a 29.634153,29.239033 79.35685 0 0 -20.14947,-3.59503 29.634153,29.239033 79.35685 0 0 -23.26238,34.52454 z"
         style="opacity:1;fill:#eeeeee;fill-opacity:1;fill-rule:nonzero;stroke:#eeeeee;stroke-width:0.78230238;stroke-linecap:butt;stroke-linejoin:miter;stroke-miterlimit:4;stroke-dasharray:none;stroke-opacity:1" />
      <path
         inkscape:transform-center-y="-21.809858"
         inkscape:transform-center-x="-36.009056"
         sodipodi:nodetypes="ccccccccccc"
         inkscape:connector-curvature="0"
         id="path7780-3-1-1-4-3-8-6-7-6-4-1"
         d="m 529.0687,590.30388 c 3.32597,-10.85626 -2.6611,-22.31729 -13.37257,-25.59907 -10.71159,-3.28139 -22.0911,2.85922 -25.41699,13.71551 -1.432,4.70439 -1.15278,9.75932 0.78698,14.24776 l -0.63856,-1.20211 -36.32385,17.35176 2.03664,3.8357 36.29006,-17.3355 c 2.57355,4.17863 6.55737,7.26793 11.22111,8.70155 10.71158,3.2814 22.09109,-2.8592 25.41699,-13.71547 z"
         style="opacity:1;fill:#eeeeee;fill-opacity:1;fill-rule:nonzero;stroke:#eeeeee;stroke-width:0.54273063;stroke-linecap:butt;stroke-linejoin:miter;stroke-miterlimit:4;stroke-dasharray:none;stroke-opacity:1" />
      <path
         inkscape:transform-center-y="21.809854"
         inkscape:transform-center-x="36.009052"
         sodipodi:nodetypes="ccccccccccc"
         inkscape:connector-curvature="0"
         id="path7780-3-1-1-4-3-8-6-7-6-4-1-4"
         d="m 160.42608,757.48157 c -3.32597,10.85626 2.6611,22.31729 13.37257,25.59907 10.71159,3.28139 22.0911,-2.85922 25.41699,-13.71551 1.432,-4.70439 1.15278,-9.75932 -0.78698,-14.24776 l 0.63856,1.20211 36.32385,-17.35175 -2.03664,-3.8357 -36.29006,17.33549 c -2.57355,-4.17863 -6.55737,-7.26793 -11.22111,-8.70155 -10.71158,-3.28139 -22.09109,2.8592 -25.41699,13.71547 z"
         style="opacity:1;fill:#eeeeee;fill-opacity:1;fill-rule:nonzero;stroke:#eeeeee;stroke-width:0.54273063;stroke-linecap:butt;stroke-linejoin:miter;stroke-miterlimit:4;stroke-dasharray:none;stroke-opacity:1" />
    </g>
  </g>
</svg>
