<?xml version="1.0" encoding="utf-8"?>
<!-- Generator: Adobe Illustrator 23.0.3, SVG Export Plug-In . SVG Version: 6.00 Build 0)  -->
<svg version="1.1" xmlns="http://www.w3.org/2000/svg" xmlns:xlink="http://www.w3.org/1999/xlink" x="0px" y="0px"
	 viewBox="0 0 552.8 552.8" style="enable-background:new 0 0 552.8 552.8;" xml:space="preserve">
<style type="text/css">
	
		.st0{fill-rule:evenodd;clip-rule:evenodd;fill:#081826;stroke:#081826;stroke-width:10;stroke-linecap:round;stroke-linejoin:round;}
	.st1{fill:none;stroke:#6668AF;stroke-width:15;stroke-linecap:round;stroke-linejoin:round;}
	.st2{fill:none;stroke:#FFFFFF;stroke-width:15;stroke-miterlimit:10;}
	.st3{fill:none;}
	.st4{opacity:0.15;fill:url(#SVGID_1_);}
	.st5{opacity:0.5;fill:url(#SVGID_2_);}
	.st6{fill:url(#SVGID_3_);}
	.st7{opacity:3.000000e-02;fill:none;stroke:#FFFFFF;stroke-width:2;stroke-miterlimit:10;}
	.st8{fill:none;stroke:#5A4A86;stroke-width:10;stroke-miterlimit:10;}
</style>
<g id="bg" inkscape:version="0.91 r13725" sodipodi:docname="adept.svg" xmlns:cc="http://creativecommons.org/ns#" xmlns:dc="http://purl.org/dc/elements/1.1/" xmlns:inkscape="http://www.inkscape.org/namespaces/inkscape" xmlns:rdf="http://www.w3.org/1999/02/22-rdf-syntax-ns#" xmlns:sodipodi="http://sodipodi.sourceforge.net/DTD/sodipodi-0.dtd" xmlns:svg="http://www.w3.org/2000/svg">
	
		<sodipodi:namedview  bordercolor="#666666" borderopacity="1.0" id="base" inkscape:current-layer="layer1" inkscape:cx="-129.55511" inkscape:cy="304.64766" inkscape:document-units="px" inkscape:pageopacity="0.0" inkscape:pageshadow="2" inkscape:window-height="1017" inkscape:window-maximized="1" inkscape:window-width="1920" inkscape:window-x="-8" inkscape:window-y="-8" inkscape:zoom="0.98994949" pagecolor="#ffffff" showgrid="true" showguides="false">
		<inkscape:grid  id="grid4169" type="xygrid"></inkscape:grid>
	</sodipodi:namedview>
	
		<path id="path4236" inkscape:connector-curvature="0" inkscape:export-xdpi="240" inkscape:export-ydpi="240" sodipodi:nodetypes="cccccc" class="st0" d="
		M28.4,44.2h488.5v247.6c-64,168-240,240-240,240s-176-72-248-240L28.4,44.2z"/>
	<path id="path4236-2" inkscape:connector-curvature="0" sodipodi:nodetypes="cccccc" class="st1" d="M44.9,60.8h455.7v230.7
		c-59.7,156.5-223.9,223.6-223.9,223.6S112.5,448.1,45.3,291.5L44.9,60.8z"/>
</g>
<g id="Layer_3">
	
		<ellipse transform="matrix(0.5255 -0.8508 0.8508 0.5255 -94.3646 356.7829)" class="st2" cx="272.7" cy="263" rx="95.2" ry="158.5"/>
	
		<ellipse transform="matrix(1.647217e-03 -1 1 1.647217e-03 9.2483 535.2515)" class="st2" cx="272.7" cy="263" rx="158.5" ry="95.2"/>
	
		<ellipse transform="matrix(0.8913 -0.4533 0.4533 0.8913 -89.5936 152.1967)" class="st2" cx="272.7" cy="263" rx="158.5" ry="95.2"/>
	<g>
		<line class="st3" x1="273.9" y1="261.9" x2="310.6" y2="258.4"/>
		<circle class="st3" cx="273.9" cy="261.9" r="30.7"/>
		<circle class="st3" cx="273.9" cy="261.9" r="36.9"/>
		<polyline class="st3" points="273.9,261.9 422.5,301.2 273.9,261.9 125.4,222.6 273.9,261.9 234.6,410.5 273.9,261.9 313.2,113.4 
			273.9,261.9 340.8,275.9 273.9,261.9 207.1,248 273.9,261.9 260,328.8 273.9,261.9 287.9,195.1 273.9,261.9 325,252 273.9,261.9 
			222.9,271.9 273.9,261.9 283.9,313 273.9,261.9 264,210.9 273.9,261.9 306,302.2 273.9,261.9 241.9,221.7 273.9,261.9 233.7,294 
			273.9,261.9 314.2,229.9 273.9,261.9 406,294.8 273.9,261.9 141.9,229.1 273.9,261.9 241.1,394 273.9,261.9 306.8,129.9 
			273.9,261.9 444.6,319.2 273.9,261.9 103.3,204.7 273.9,261.9 216.7,432.6 273.9,261.9 331.2,91.3 273.9,261.9 313.2,290 
			273.9,261.9 234.7,233.9 273.9,261.9 245.9,301.2 273.9,261.9 302,222.7 273.9,261.9 361.7,320.5 273.9,261.9 186.2,203.3 
			273.9,261.9 215.3,349.7 273.9,261.9 332.5,174.2 273.9,261.9 342.5,310.1 273.9,261.9 205.4,213.8 273.9,261.9 225.8,330.5 
			273.9,261.9 322.1,193.4 273.9,261.9 367,223.8 273.9,261.9 180.9,300.1 273.9,261.9 312.1,355 273.9,261.9 235.8,168.9 
			273.9,261.9 385.2,337.4 273.9,261.9 162.7,186.5 273.9,261.9 198.5,373.2 273.9,261.9 349.4,150.7 273.9,261.9 438.6,189.3 
			273.9,261.9 109.2,334.6 273.9,261.9 346.6,426.6 273.9,261.9 201.3,97.2 273.9,261.9 354.1,274.7 273.9,261.9 193.7,249.1 
			273.9,261.9 261.1,342.1 273.9,261.9 286.7,181.7 273.9,261.9 282.7,258.4 273.9,261.9 265.2,265.5 273.9,261.9 277.5,270.7 
			273.9,261.9 270.4,253.2 273.9,261.9 341.1,305.1 273.9,261.9 206.8,218.8 273.9,261.9 230.8,329.1 273.9,261.9 317.1,194.8 		"/>
		<radialGradient id="SVGID_1_" cx="273.9412" cy="261.9412" r="73.7504" gradientUnits="userSpaceOnUse">
			<stop  offset="0" style="stop-color:#000000"/>
			<stop  offset="0.73" style="stop-color:#93432A"/>
			<stop  offset="1" style="stop-color:#000000"/>
		</radialGradient>
		<circle class="st4" cx="273.9" cy="261.9" r="73.8"/>
		<radialGradient id="SVGID_2_" cx="273.9412" cy="261.9412" r="36.8752" gradientUnits="userSpaceOnUse">
			<stop  offset="0.15" style="stop-color:#FFFFFF"/>
			<stop  offset="0.2134" style="stop-color:#D7C0BE"/>
			<stop  offset="0.2931" style="stop-color:#B68A8A"/>
			<stop  offset="0.362" style="stop-color:#A16A6B"/>
			<stop  offset="0.4166" style="stop-color:#95585B"/>
			<stop  offset="0.45" style="stop-color:#915155"/>
			<stop  offset="0.5442" style="stop-color:#78312E"/>
			<stop  offset="0.6472" style="stop-color:#5C0E05"/>
			<stop  offset="0.7362" style="stop-color:#410000"/>
			<stop  offset="0.8068" style="stop-color:#200000"/>
			<stop  offset="0.85" style="stop-color:#000000"/>
			<stop  offset="0.856" style="stop-color:#120000"/>
			<stop  offset="0.8623" style="stop-color:#300000"/>
			<stop  offset="0.8686" style="stop-color:#470000"/>
			<stop  offset="0.875" style="stop-color:#5C0000"/>
			<stop  offset="0.8815" style="stop-color:#751400"/>
			<stop  offset="0.888" style="stop-color:#912A15"/>
			<stop  offset="0.8945" style="stop-color:#B44126"/>
			<stop  offset="0.9" style="stop-color:#D65836"/>
			<stop  offset="0.9063" style="stop-color:#BD472B"/>
			<stop  offset="0.916" style="stop-color:#9D311B"/>
			<stop  offset="0.9262" style="stop-color:#801D09"/>
			<stop  offset="0.9367" style="stop-color:#690900"/>
			<stop  offset="0.9475" style="stop-color:#530000"/>
			<stop  offset="0.9588" style="stop-color:#410000"/>
			<stop  offset="0.9707" style="stop-color:#290000"/>
			<stop  offset="0.9838" style="stop-color:#0F0000"/>
			<stop  offset="1" style="stop-color:#000000"/>
		</radialGradient>
		<circle class="st5" cx="273.9" cy="261.9" r="36.9"/>
		<radialGradient id="SVGID_3_" cx="273.9412" cy="261.9412" r="30.7293" gradientUnits="userSpaceOnUse">
			<stop  offset="0.15" style="stop-color:#FFFFFF"/>
			<stop  offset="0.2824" style="stop-color:#9C9593"/>
			<stop  offset="0.4253" style="stop-color:#5A5250"/>
			<stop  offset="0.5636" style="stop-color:#302A28"/>
			<stop  offset="0.6936" style="stop-color:#0F0704"/>
			<stop  offset="0.8134" style="stop-color:#000000"/>
			<stop  offset="0.9192" style="stop-color:#000000"/>
			<stop  offset="1" style="stop-color:#000000"/>
		</radialGradient>
		<circle class="st6" cx="273.9" cy="261.9" r="30.7"/>
		<polyline class="st7" points="273.9,261.9 422.5,301.2 273.9,261.9 125.4,222.6 273.9,261.9 234.6,410.5 273.9,261.9 313.2,113.4 
			273.9,261.9 340.8,275.9 273.9,261.9 207.1,248 273.9,261.9 260,328.8 273.9,261.9 287.9,195.1 273.9,261.9 325,252 273.9,261.9 
			222.9,271.9 273.9,261.9 283.9,313 273.9,261.9 264,210.9 273.9,261.9 306,302.2 273.9,261.9 241.9,221.7 273.9,261.9 233.7,294 
			273.9,261.9 314.2,229.9 273.9,261.9 406,294.8 273.9,261.9 141.9,229.1 273.9,261.9 241.1,394 273.9,261.9 306.8,129.9 
			273.9,261.9 444.6,319.2 273.9,261.9 103.3,204.7 273.9,261.9 216.7,432.6 273.9,261.9 331.2,91.3 273.9,261.9 313.2,290 
			273.9,261.9 234.7,233.9 273.9,261.9 245.9,301.2 273.9,261.9 302,222.7 273.9,261.9 361.7,320.5 273.9,261.9 186.2,203.3 
			273.9,261.9 215.3,349.7 273.9,261.9 332.5,174.2 273.9,261.9 342.5,310.1 273.9,261.9 205.4,213.8 273.9,261.9 225.8,330.5 
			273.9,261.9 322.1,193.4 273.9,261.9 367,223.8 273.9,261.9 180.9,300.1 273.9,261.9 312.1,355 273.9,261.9 235.8,168.9 
			273.9,261.9 385.2,337.4 273.9,261.9 162.7,186.5 273.9,261.9 198.5,373.2 273.9,261.9 349.4,150.7 273.9,261.9 438.6,189.3 
			273.9,261.9 109.2,334.6 273.9,261.9 346.6,426.6 273.9,261.9 201.3,97.2 273.9,261.9 354.1,274.7 273.9,261.9 193.7,249.1 
			273.9,261.9 261.1,342.1 273.9,261.9 286.7,181.7 273.9,261.9 282.7,258.4 273.9,261.9 265.2,265.5 273.9,261.9 277.5,270.7 
			273.9,261.9 270.4,253.2 273.9,261.9 341.1,305.1 273.9,261.9 206.8,218.8 273.9,261.9 230.8,329.1 273.9,261.9 317.1,194.8 		"/>
	</g>
</g>
<g id="Layer_2">
	
		<ellipse transform="matrix(0.5255 -0.8508 0.8508 0.5255 -94.3646 356.7829)" class="st8" cx="272.7" cy="263" rx="95.2" ry="158.5"/>
	
		<ellipse transform="matrix(1.647217e-03 -1 1 1.647217e-03 9.2483 535.2515)" class="st8" cx="272.7" cy="263" rx="158.5" ry="95.2"/>
	
		<ellipse transform="matrix(0.8913 -0.4533 0.4533 0.8913 -89.5936 152.1967)" class="st8" cx="272.7" cy="263" rx="158.5" ry="95.2"/>
</g>
</svg>
