<?xml version="1.0" encoding="UTF-8" standalone="no"?>
<!-- Generator: Adobe Illustrator 23.0.3, SVG Export Plug-In . SVG Version: 6.00 Build 0)  -->

<svg
   xmlns:dc="http://purl.org/dc/elements/1.1/"
   xmlns:cc="http://creativecommons.org/ns#"
   xmlns:rdf="http://www.w3.org/1999/02/22-rdf-syntax-ns#"
   xmlns:svg="http://www.w3.org/2000/svg"
   xmlns="http://www.w3.org/2000/svg"
   xmlns:sodipodi="http://sodipodi.sourceforge.net/DTD/sodipodi-0.dtd"
   xmlns:inkscape="http://www.inkscape.org/namespaces/inkscape"
   version="1.1"
   x="0px"
   y="0px"
   viewBox="0 0 552.8 552.8"
   style="enable-background:new 0 0 552.8 552.8;"
   xml:space="preserve"
   id="svg4136"
   inkscape:version="0.91 r13725"
   sodipodi:docname="experiment.svg"
   inkscape:export-filename="E:\Sites\mass-effect\masseffect-5e\assets\images\classes\experiment.png"
   inkscape:export-xdpi="120.53"
   inkscape:export-ydpi="120.53"><metadata
     id="metadata4188"><rdf:RDF><cc:Work
         rdf:about=""><dc:format>image/svg+xml</dc:format><dc:type
           rdf:resource="http://purl.org/dc/dcmitype/StillImage" /><dc:title /></cc:Work></rdf:RDF></metadata><defs
     id="defs4186" /><sodipodi:namedview
     pagecolor="#ffffff"
     bordercolor="#666666"
     borderopacity="1"
     objecttolerance="10"
     gridtolerance="10"
     guidetolerance="10"
     inkscape:pageopacity="0"
     inkscape:pageshadow="2"
     inkscape:window-width="2560"
     inkscape:window-height="1377"
     id="namedview4184"
     showgrid="false"
     inkscape:zoom="1.5451972"
     inkscape:cx="-19.212749"
     inkscape:cy="168.14514"
     inkscape:window-x="-8"
     inkscape:window-y="-8"
     inkscape:window-maximized="1"
     inkscape:current-layer="bg" /><style
     type="text/css"
     id="style4138">
	
		.st0{fill-rule:evenodd;clip-rule:evenodd;fill:#081826;stroke:#081826;stroke-width:10;stroke-linecap:round;stroke-linejoin:round;}
	.st1{fill:none;stroke:#C5791E;stroke-width:15;stroke-linecap:round;stroke-linejoin:round;}
	.st2{fill:#FFFFFF;}
	.st3{fill:#081826;}
</style><g
     id="bg"
     inkscape:version="0.91 r13725"
     sodipodi:docname="adept.svg"><sodipodi:namedview
       bordercolor="#666666"
       borderopacity="1.0"
       id="base"
       inkscape:current-layer="layer1"
       inkscape:cx="-129.55511"
       inkscape:cy="304.64766"
       inkscape:document-units="px"
       inkscape:pageopacity="0.0"
       inkscape:pageshadow="2"
       inkscape:window-height="1017"
       inkscape:window-maximized="1"
       inkscape:window-width="1920"
       inkscape:window-x="-8"
       inkscape:window-y="-8"
       inkscape:zoom="0.98994949"
       pagecolor="#ffffff"
       showgrid="true"
       showguides="false"><inkscape:grid
         id="grid4169"
         type="xygrid" /></sodipodi:namedview><path
       id="path4236"
       inkscape:connector-curvature="0"
       inkscape:export-xdpi="240"
       inkscape:export-ydpi="240"
       sodipodi:nodetypes="cccccc"
       class="st0"
       d="   M28.4,44.2h488.5v247.6c-64,168-240,240-240,240s-176-72-248-240L28.4,44.2z" /><path
       id="path4236-2"
       inkscape:connector-curvature="0"
       sodipodi:nodetypes="cccccc"
       class="st1"
       d="M44.8,60.8h455.7v230.7   c-59.7,156.5-223.9,223.6-223.9,223.6S112.5,448.1,45.3,291.5L44.8,60.8z"
       style="stroke:#5b7e9d;stroke-opacity:1;fill:#000000;fill-opacity:0" /><path
       style="fill:#ffffff;fill-opacity:1"
       d="m 254.05337,433.73914 c -0.10447,-0.29756 -1.5741,-5.78335 -3.73799,-13.95307 -1.59472,-6.02083 -1.95299,-7.22767 -2.14597,-7.22867 -0.10187,0 -1.45178,2.19024 -2.9998,4.86842 -3.49156,6.04063 -3.20119,5.60696 -3.47937,5.1967 -0.21105,-0.31124 -3.97645,-6.81942 -9.59001,-16.57547 -1.41334,-2.4563 -2.6526,-4.49111 -2.75391,-4.52181 -0.10132,-0.0307 -1.16294,1.65991 -2.35915,3.7569 -1.19621,2.09699 -2.22715,3.8095 -2.29098,3.80562 -0.0638,-0.004 -1.58881,-2.5706 -3.38887,-5.70382 -1.80006,-3.1332 -4.6965,-8.162 -6.43655,-11.17509 l -3.16374,-5.47834 -4.26862,-1.4301 c -2.34773,-0.78655 -5.53873,-1.75859 -7.09113,-2.16011 -4.61036,-1.19246 -14.05156,-5.16136 -19.99746,-8.40656 -10.8374,-5.91492 -17.01844,-12.21162 -20.14731,-20.52425 -0.65144,-1.73072 -1.72936,-5.75394 -2.16002,-8.06205 -0.62323,-3.34022 -2.48377,-17.03376 -2.62361,-19.30968 -0.4139,-6.73732 1.32725,-15.69428 4.45074,-22.89588 0.96164,-2.21716 3.10518,-6.10796 3.79707,-6.89218 l 0.47524,-0.53864 3.21878,6.16306 c 1.77034,3.38969 4.41913,8.42134 5.8862,11.18142 l 2.66742,5.01833 0.15594,-0.87275 c 0.26069,-1.45878 0.19339,-6.32825 -0.14323,-10.36395 -0.3949,-4.73467 -1.05375,-8.82998 -3.28198,-20.40063 -1.53899,-7.99155 -2.36706,-14.30429 -2.74719,-20.94302 -0.37733,-6.59002 0.11398,-15.34579 1.34695,-24.00382 1.10488,-7.75882 3.61001,-16.91932 6.51676,-23.82986 l 1.10808,-2.63436 0,-19.55072 0,-19.55072 1.09094,0 1.09094,0 0.0153,14.78228 c 0.008,8.13024 0.087,14.96458 0.17466,15.1874 0.10028,0.25494 0.50465,-1.44375 1.09075,-4.58196 0.94026,-5.03456 2.3832,-12.61338 3.9563,-20.77976 0.47114,-2.44578 0.88687,-4.47714 0.92388,-4.51416 0.037,-0.037 0.75238,-0.21248 1.58969,-0.38996 1.94651,-0.41256 3.21482,-0.98649 4.86576,-2.20184 2.73797,-2.01558 5.1302,-5.75792 6.28349,-9.82965 0.66866,-2.36083 0.91824,-6.37564 0.54516,-8.76979 -0.65053,-4.17464 -2.89964,-8.91555 -5.82299,-12.27428 l -1.41461,-1.62529 14.13271,-14.1304 14.1327,-14.1304 0.82355,0.80417 0.82355,0.80417 -10.63197,10.63362 c -5.84756,5.84849 -10.5787,10.68687 -10.51361,10.75195 0.0651,0.0651 1.48449,-0.80781 3.15422,-1.93977 1.66975,-1.13196 4.55776,-3.08867 6.41782,-4.34825 3.1278,-2.11805 5.08488,-3.447 12.77721,-8.67628 1.5673,-1.06546 2.91712,-1.9372 2.99959,-1.9372 0.0825,0 0.6428,0.35408 1.24516,0.78684 0.60237,0.43275 1.80536,1.04571 2.67331,1.36212 1.4182,0.517 1.87655,0.57467 4.52365,0.56911 3.44291,-0.007 5.22924,-0.41831 8.13526,-1.87212 6.50821,-3.25591 10.69618,-9.12019 12.03831,-16.85684 0.18488,-1.06575 0.33615,-2.51398 0.33615,-3.21828 l 0,-1.28055 20.07335,0 20.07334,0 0,1.19856 0,1.19857 -15.32774,0.056 -15.32775,0.056 4.90924,0.94795 c 2.70009,0.52137 7.70751,1.4796 11.12762,2.12939 3.4201,0.6498 8.10843,1.54552 10.4185,1.99049 l 4.20013,0.80906 0,0.67661 c 0,0.9794 0.59284,2.84924 1.38105,4.35593 0.87616,1.67476 3.51914,4.30179 5.50679,5.47357 8.43905,4.97504 18.83672,3.66309 26.72779,-3.37246 l 1.21461,-1.08294 14.10129,14.10955 14.10128,14.10954 -0.77904,0.8447 -0.77904,0.84471 -10.65534,-10.65368 c -5.86044,-5.85952 -10.7078,-10.60122 -10.77193,-10.5371 -0.11881,0.11881 0.95492,1.74311 7.58661,11.47676 2.06212,3.02669 5.04821,7.40956 6.63575,9.73971 l 2.88639,4.23663 -0.6464,0.81341 c -3.24818,4.0873 -3.13679,11.44341 0.26097,17.2356 2.21531,3.77648 5.30246,6.57546 9.37275,8.4979 2.87291,1.3569 5.33521,1.95073 10.05882,2.42583 l 1.25457,0.12619 0,19.53502 0,19.53502 1.10807,2.63436 c 2.90675,6.91054 5.41186,16.07104 6.51677,23.82986 2.29358,16.10593 1.93383,27.61959 -1.40439,44.94684 -1.31142,6.80709 -2.63773,14.41781 -2.92779,16.80052 -0.62109,5.10197 -0.86139,11.90417 -0.4933,13.96406 l 0.15596,0.87275 2.66742,-5.01833 c 1.46708,-2.76008 4.11586,-7.79173 5.8862,-11.18142 l 3.21879,-6.16306 0.47524,0.53864 c 0.69189,0.78422 2.83542,4.67502 3.79706,6.89218 3.12313,7.20077 4.86389,16.15459 4.45125,22.89588 -0.19029,3.10884 -2.37023,18.27208 -3.07404,21.38248 -2.41031,10.65191 -7.02266,17.09591 -16.82539,23.50697 -6.57273,4.29862 -18.43404,9.70721 -25.02949,11.41309 -1.55237,0.40152 -4.74337,1.37356 -7.09112,2.16011 l -4.2686,1.4301 -3.16374,5.47834 c -1.74005,3.01309 -4.63651,8.04189 -6.43656,11.17509 -1.80006,3.13322 -3.32504,5.69992 -3.38886,5.70382 -0.0638,0.004 -1.09479,-1.70863 -2.29098,-3.80562 -1.19622,-2.09699 -2.25725,-3.7878 -2.35784,-3.75734 -0.10058,0.0305 -1.33891,2.06527 -2.75185,4.52181 -5.1131,8.88961 -9.37611,16.25548 -9.59338,16.57591 -0.27819,0.41026 0.0122,0.84393 -3.47936,-5.1967 -1.54803,-2.67818 -2.89794,-4.86897 -2.99982,-4.86842 -0.19534,0 -0.52701,1.1264 -2.25908,7.66505 -1.97816,7.46761 -3.51547,13.19813 -3.62609,13.51669 -0.0725,0.20865 -2.7689,-2.34199 -7.92365,-7.49528 l -7.81382,-7.81154 -3.30393,1.88857 -3.30394,1.8886 -3.30395,-1.8886 -3.30393,-1.88857 -7.81381,7.81154 c -5.16923,5.16773 -7.8514,7.70452 -7.92487,7.49528 z m 10.48176,-51.28393 c 2.53447,-0.44135 3.58523,-1.44382 5.63875,-5.3795 1.1049,-2.11761 2.27167,-3.39356 3.77637,-4.12975 3.26735,-1.59855 6.48638,-0.0663 8.67573,4.12975 2.06891,3.96518 3.0969,4.93686 5.70323,5.39072 2.4603,0.42846 3.69356,-0.14457 4.60747,-2.14081 0.65343,-1.42727 0.89276,-3.91434 0.49319,-5.12505 -0.14326,-0.43413 -0.75667,-1.5494 -1.36311,-2.47836 -0.60644,-0.92895 -2.47642,-4.09732 -4.15553,-7.04076 -1.67909,-2.94348 -3.83812,-6.72634 -4.79781,-8.4064 -3.24104,-5.67381 -4.82925,-7.75646 -6.17202,-8.09348 -1.82879,-0.45898 -3.31953,1.20406 -7.25496,8.09348 -0.95969,1.68006 -3.1187,5.46292 -4.79781,8.4064 -1.67911,2.94344 -3.5491,6.11181 -4.15554,7.04076 -1.41689,2.17045 -1.64715,2.90084 -1.52324,4.83163 0.16405,2.55635 1.34906,4.59229 2.89873,4.98029 0.71771,0.1797 0.99276,0.17075 2.42655,-0.0789 z m -32.42765,-18.83958 c 7.05827,-1.06279 12.4508,-3.04032 14.92159,-5.47194 4.14536,-4.07965 8.32387,-13.73695 10.71324,-24.76028 2.04516,-9.43525 2.35235,-12.43762 1.55156,-15.1641 -1.10664,-3.76778 -4.4821,-6.44055 -10.29327,-8.15038 -4.48166,-1.31865 -4.92237,-1.34097 -26.4453,-1.33929 -18.58947,0.002 -19.66376,0.0228 -21.32132,0.42274 -8.75189,2.11187 -13.95512,7.15809 -15.17442,14.71655 -0.33865,2.0993 -0.15747,8.46305 0.31441,11.0418 0.51324,2.80495 2.05985,9.47179 2.68228,11.56225 1.35798,4.56099 4.38923,8.51773 8.7467,11.41721 4.63513,3.08427 12.26948,5.45838 19.68607,6.12192 2.33689,0.20909 12.41154,-0.0641 14.61846,-0.39648 z m 107.02165,-0.0997 c 6.69697,-1.15792 11.94866,-3.01931 15.86604,-5.62354 2.19974,-1.46235 5.06025,-4.24445 6.29018,-6.11777 1.14093,-1.73774 2.17687,-4.06367 2.70161,-6.06579 0.63214,-2.41186 2.05645,-8.70629 2.41871,-10.68899 0.48868,-2.67467 0.679,-9.01625 0.33464,-11.1509 -1.21931,-7.55846 -6.42254,-12.60468 -15.17443,-14.71655 -1.65756,-0.39998 -2.73185,-0.42128 -21.32132,-0.42274 -21.52292,-0.002 -21.96364,0.0207 -26.4453,1.33929 -5.81117,1.70983 -9.18663,4.3826 -10.29326,8.15038 -0.56594,1.9268 -0.47749,5.18451 0.2399,8.83664 2.20193,11.20978 4.03904,17.34581 7.08772,23.67345 2.42312,5.02925 4.76888,7.87216 7.78938,9.44021 3.46638,1.79955 9.455,3.27741 15.56022,3.8399 0.54001,0.0497 3.53465,0.0609 6.65475,0.0248 4.53016,-0.0524 6.20033,-0.15686 8.29116,-0.51837 z M 284.36381,255.60544 c 10.01265,-1.5948 17.48871,-4.42676 25.09387,-9.50569 3.16809,-2.11572 5.31863,-3.8755 8.37198,-6.85077 5.17065,-5.03841 8.77048,-9.98481 11.91942,-16.37807 4.33966,-8.81076 6.30482,-17.62965 6.10177,-27.38266 -0.22111,-10.62193 -3.04129,-20.49621 -8.3794,-29.33877 -2.73482,-4.53022 -5.19819,-7.70247 -8.73961,-11.25458 -2.86699,-2.87566 -3.76359,-3.67555 -6.22171,-5.55061 -10.39522,-7.92948 -22.9751,-12.16877 -36.1102,-12.16877 -13.12659,0 -25.73441,4.24911 -36.11021,12.16994 -11.35422,8.66775 -19.42798,21.52838 -22.11912,35.23337 -0.96203,4.89926 -1.13108,6.40711 -1.22311,10.90942 -0.11538,5.64424 0.44109,10.48543 1.84333,16.03687 1.86638,7.38886 5.83137,15.46278 10.64908,21.68472 1.99113,2.5715 7.70332,8.30777 10.14903,10.19184 9.71722,7.48568 19.02135,11.10334 32.44723,12.61622 1.78157,0.20076 10.2583,-0.0829 12.32765,-0.41246 z m 87.37155,-54.84268 c -0.0246,-9.64057 -0.10765,-11.42852 -0.53251,-11.4672 -0.36826,-0.0335 -0.69945,1.33784 -2.09175,8.6615 l -1.34188,7.05849 0.76088,1.0729 c 0.41849,0.59009 1.22441,1.88328 1.79092,2.87374 0.56652,0.99047 1.1221,1.74394 1.23464,1.67439 0.12301,-0.076 0.19467,-4.01327 0.1797,-9.87382 z"
       id="path5969"
       inkscape:connector-curvature="0" /></g><g
     id="Layer_3" /></svg>