<?xml version="1.0" encoding="UTF-8" standalone="no"?>
<!-- Generator: Adobe Illustrator 23.0.3, SVG Export Plug-In . SVG Version: 6.00 Build 0)  -->

<svg
   xmlns:osb="http://www.openswatchbook.org/uri/2009/osb"
   xmlns:dc="http://purl.org/dc/elements/1.1/"
   xmlns:cc="http://creativecommons.org/ns#"
   xmlns:rdf="http://www.w3.org/1999/02/22-rdf-syntax-ns#"
   xmlns:svg="http://www.w3.org/2000/svg"
   xmlns="http://www.w3.org/2000/svg"
   xmlns:sodipodi="http://sodipodi.sourceforge.net/DTD/sodipodi-0.dtd"
   xmlns:inkscape="http://www.inkscape.org/namespaces/inkscape"
   version="1.1"
   x="0px"
   y="0px"
   viewBox="0 0 552.8 552.8"
   style="enable-background:new 0 0 552.8 552.8;"
   xml:space="preserve"
   id="svg4788"
   inkscape:version="0.91 r13725"
   sodipodi:docname="explorer.svg"
   inkscape:export-filename="E:\Sites\mass-effect\masseffect-5e\assets\images\classes\explorer.png"
   inkscape:export-xdpi="120.53"
   inkscape:export-ydpi="120.53"><metadata
     id="metadata4937"><rdf:RDF><cc:Work
         rdf:about=""><dc:format>image/svg+xml</dc:format><dc:type
           rdf:resource="http://purl.org/dc/dcmitype/StillImage" /></cc:Work></rdf:RDF></metadata><defs
     id="defs4935"><linearGradient
       id="linearGradient6908"
       osb:paint="solid"><stop
         style="stop-color:#000000;stop-opacity:1;"
         offset="0"
         id="stop6910" /></linearGradient></defs><sodipodi:namedview
     pagecolor="#ffffff"
     bordercolor="#666666"
     borderopacity="1"
     objecttolerance="10"
     gridtolerance="10"
     guidetolerance="10"
     inkscape:pageopacity="0"
     inkscape:pageshadow="2"
     inkscape:window-width="2560"
     inkscape:window-height="1377"
     id="namedview4933"
     showgrid="false"
     inkscape:zoom="1.28"
     inkscape:cx="193.55339"
     inkscape:cy="256.56721"
     inkscape:window-x="-8"
     inkscape:window-y="-8"
     inkscape:window-maximized="1"
     inkscape:current-layer="svg4788" /><style
     type="text/css"
     id="style4790">
	
		.st0{fill-rule:evenodd;clip-rule:evenodd;fill:#081826;stroke:#081826;stroke-width:10;stroke-linecap:round;stroke-linejoin:round;}
	.st1{fill:none;stroke:#C5791E;stroke-width:15;stroke-linecap:round;stroke-linejoin:round;}
	.st2{fill:none;stroke:#5A4A86;stroke-width:15;stroke-linecap:round;stroke-linejoin:round;}
	.st3{fill:#C5791E;}
	.st4{fill:#081826;}
	.st5{fill:none;}
	.st6{opacity:0.15;fill:url(#SVGID_1_);}
	.st7{opacity:0.5;fill:url(#SVGID_2_);}
	.st8{fill:url(#SVGID_3_);}
	.st9{opacity:3.000000e-02;fill:none;stroke:#FFFFFF;stroke-width:2;stroke-miterlimit:10;}
	.st10{fill:none;stroke:#FFFFFF;stroke-width:15;stroke-miterlimit:10;}
	.st11{fill:none;stroke:#5A4A86;stroke-width:10;stroke-miterlimit:10;}
</style><g
     id="bg"
     inkscape:version="0.91 r13725"
     sodipodi:docname="adept.svg"><sodipodi:namedview
       bordercolor="#666666"
       borderopacity="1.0"
       id="base"
       inkscape:current-layer="layer1"
       inkscape:cx="-129.55511"
       inkscape:cy="304.64766"
       inkscape:document-units="px"
       inkscape:pageopacity="0.0"
       inkscape:pageshadow="2"
       inkscape:window-height="1017"
       inkscape:window-maximized="1"
       inkscape:window-width="1920"
       inkscape:window-x="-8"
       inkscape:window-y="-8"
       inkscape:zoom="0.98994949"
       pagecolor="#ffffff"
       showgrid="true"
       showguides="false"><inkscape:grid
         id="grid4169"
         type="xygrid" /></sodipodi:namedview><path
       id="path4236"
       inkscape:connector-curvature="0"
       inkscape:export-xdpi="240"
       inkscape:export-ydpi="240"
       sodipodi:nodetypes="cccccc"
       class="st0"
       d="   M28.4,44.2h488.5v247.6c-64,168-240,240-240,240s-176-72-248-240L28.4,44.2z" /><path
       id="path4236-2_3_"
       inkscape:connector-curvature="0"
       sodipodi:nodetypes="ccc"
       class="st1"
       d="m 266.6,510.2 c 0,0 -154.2,-62.1 -221.3,-218.7 L 44.9,81.89375"
       style="fill:none;stroke:#c5791e;stroke-width:15;stroke-linecap:round;stroke-linejoin:round" /><path
       id="path4236-2_1_"
       inkscape:connector-curvature="0"
       sodipodi:nodetypes="ccc"
       class="st2"
       d="m 500.5,84.2375 0,207.2625 C 440.8,448 286.6,510.1 286.6,510.1"
       style="fill:none;stroke:#5a4a86;stroke-width:15;stroke-linecap:round;stroke-linejoin:round" /></g><g
     id="Layer_2"
     transform="matrix(0.86418667,0,0,0.86418667,38.400249,10.642514)"><g
       id="g4799"><circle
         id="path8598_1_"
         class="st3"
         cx="369.5"
         cy="217.10001"
         r="93.699997"
         style="fill:#c5791e" /><polyline
         class="st3"
         points="347.5,133.6 347.5,104.2 391.4,104.2 391.4,133.6   "
         id="polyline4802"
         style="fill:#c5791e" /><circle
         id="path8598_2_"
         class="st4"
         cx="369.5"
         cy="217.10001"
         r="69.400002"
         style="fill:#081826" /><polyline
         class="st3"
         points="391.4,300.6 391.4,330 347.5,330 347.5,300.6   "
         id="polyline4805"
         style="fill:#c5791e" /><polyline
         class="st3"
         points="452.9,195.1 482.4,195.1 482.4,239.1 452.9,239.1   "
         id="polyline4807"
         style="fill:#c5791e" /><polyline
         class="st3"
         points="286,239.1 256.5,239.1 256.5,195.1 286,195.1   "
         id="polyline4809"
         style="fill:#c5791e" /><polyline
         class="st3"
         points="294.9,173.6 274,152.8 305.1,121.7 326,142.5   "
         id="polyline4811"
         style="fill:#c5791e" /><polyline
         class="st3"
         points="444,260.6 464.9,281.4 433.8,312.5 412.9,291.7   "
         id="polyline4813"
         style="fill:#c5791e" /><polyline
         class="st3"
         points="412.9,142.5 433.8,121.7 464.9,152.8 444,173.6   "
         id="polyline4815"
         style="fill:#c5791e" /><polyline
         class="st3"
         points="326,291.7 305.1,312.5 274,281.4 294.9,260.6   "
         id="polyline4817"
         style="fill:#c5791e" /></g></g><g
     id="Layer_3"
     transform="matrix(0.86418667,0,0,0.86418667,38.400249,10.642514)"><g
       id="g4820"><g
         id="g4822"><line
           class="st5"
           x1="179.2"
           y1="220.10001"
           x2="205.2"
           y2="217.60001"
           id="line4824"
           style="fill:none" /><circle
           class="st5"
           cx="179.2"
           cy="220.10001"
           r="21.799999"
           id="circle4826"
           style="fill:none" /><circle
           class="st5"
           cx="179.2"
           cy="220.10001"
           r="26.1"
           id="circle4828"
           style="fill:none" /><polyline
           class="st5"
           points="179.2,220.1 284.4,247.9 179.2,220.1 74,192.2 179.2,220.1 151.4,325.3 179.2,220.1 207,114.9      179.2,220.1 226.5,230 179.2,220.1 131.9,210.2 179.2,220.1 169.3,267.4 179.2,220.1 189.1,172.8 179.2,220.1 215.3,213.1      179.2,220.1 143,227.1 179.2,220.1 186.2,256.2 179.2,220.1 172.2,183.9 179.2,220.1 201.9,248.6 179.2,220.1 156.5,191.6      179.2,220.1 150.7,242.8 179.2,220.1 207.7,197.4 179.2,220.1 272.7,243.4 179.2,220.1 85.7,196.8 179.2,220.1 155.9,313.6      179.2,220.1 202.5,126.6 179.2,220.1 300,260.6 179.2,220.1 58.4,179.5 179.2,220.1 138.6,340.9 179.2,220.1 219.7,99.3      179.2,220.1 207,240 179.2,220.1 151.4,200.2 179.2,220.1 159.3,247.9 179.2,220.1 199.1,192.3 179.2,220.1 241.3,261.6      179.2,220.1 117,178.6 179.2,220.1 137.7,282.2 179.2,220.1 220.7,157.9 179.2,220.1 227.7,254.2 179.2,220.1 130.7,186      179.2,220.1 145.1,268.6 179.2,220.1 213.3,171.6 179.2,220.1 245.1,193 179.2,220.1 113.3,247.1 179.2,220.1 206.2,286      179.2,220.1 152.1,154.2 179.2,220.1 257.9,273.5 179.2,220.1 100.4,166.6 179.2,220.1 125.7,298.8 179.2,220.1 232.6,141.3      179.2,220.1 295.8,168.7 179.2,220.1 62.6,271.5 179.2,220.1 230.6,336.7 179.2,220.1 127.8,103.4 179.2,220.1 236,229.2      179.2,220.1 122.4,211 179.2,220.1 170.1,276.9 179.2,220.1 188.3,163.3 179.2,220.1 185.4,217.6 179.2,220.1 173,222.6      179.2,220.1 181.7,226.3 179.2,220.1 176.7,213.9 179.2,220.1 226.7,250.7 179.2,220.1 131.6,189.5 179.2,220.1 148.6,267.6      179.2,220.1 209.8,172.5    "
           id="polyline4830"
           style="fill:none" /><radialGradient
           id="SVGID_1_"
           cx="179.1846"
           cy="220.0811"
           r="52.223999"
           gradientUnits="userSpaceOnUse"><stop
             offset="0"
             style="stop-color:#000000"
             id="stop4833" /><stop
             offset="0.73"
             style="stop-color:#93432A"
             id="stop4835" /><stop
             offset="1"
             style="stop-color:#000000"
             id="stop4837" /></radialGradient><circle
           class="st6"
           cx="179.2"
           cy="220.10001"
           r="52.200001"
           id="circle4839"
           style="opacity:0.15;fill:url(#SVGID_1_)" /><radialGradient
           id="SVGID_2_"
           cx="179.1846"
           cy="220.0811"
           r="26.112"
           gradientUnits="userSpaceOnUse"><stop
             offset="0.15"
             style="stop-color:#FFFFFF"
             id="stop4842" /><stop
             offset="0.2134"
             style="stop-color:#D7C0BE"
             id="stop4844" /><stop
             offset="0.2931"
             style="stop-color:#B68A8A"
             id="stop4846" /><stop
             offset="0.362"
             style="stop-color:#A16A6B"
             id="stop4848" /><stop
             offset="0.4166"
             style="stop-color:#95585B"
             id="stop4850" /><stop
             offset="0.45"
             style="stop-color:#915155"
             id="stop4852" /><stop
             offset="0.5442"
             style="stop-color:#78312E"
             id="stop4854" /><stop
             offset="0.6472"
             style="stop-color:#5C0E05"
             id="stop4856" /><stop
             offset="0.7362"
             style="stop-color:#410000"
             id="stop4858" /><stop
             offset="0.8068"
             style="stop-color:#200000"
             id="stop4860" /><stop
             offset="0.85"
             style="stop-color:#000000"
             id="stop4862" /><stop
             offset="0.856"
             style="stop-color:#120000"
             id="stop4864" /><stop
             offset="0.8623"
             style="stop-color:#300000"
             id="stop4866" /><stop
             offset="0.8686"
             style="stop-color:#470000"
             id="stop4868" /><stop
             offset="0.875"
             style="stop-color:#5C0000"
             id="stop4870" /><stop
             offset="0.8815"
             style="stop-color:#751400"
             id="stop4872" /><stop
             offset="0.888"
             style="stop-color:#912A15"
             id="stop4874" /><stop
             offset="0.8945"
             style="stop-color:#B44126"
             id="stop4876" /><stop
             offset="0.9"
             style="stop-color:#D65836"
             id="stop4878" /><stop
             offset="0.9063"
             style="stop-color:#BD472B"
             id="stop4880" /><stop
             offset="0.916"
             style="stop-color:#9D311B"
             id="stop4882" /><stop
             offset="0.9262"
             style="stop-color:#801D09"
             id="stop4884" /><stop
             offset="0.9367"
             style="stop-color:#690900"
             id="stop4886" /><stop
             offset="0.9475"
             style="stop-color:#530000"
             id="stop4888" /><stop
             offset="0.9588"
             style="stop-color:#410000"
             id="stop4890" /><stop
             offset="0.9707"
             style="stop-color:#290000"
             id="stop4892" /><stop
             offset="0.9838"
             style="stop-color:#0F0000"
             id="stop4894" /><stop
             offset="1"
             style="stop-color:#000000"
             id="stop4896" /></radialGradient><circle
           class="st7"
           cx="179.2"
           cy="220.10001"
           r="26.1"
           id="circle4898"
           style="opacity:0.5;fill:url(#SVGID_2_)" /><radialGradient
           id="SVGID_3_"
           cx="179.1846"
           cy="220.0811"
           r="21.76"
           gradientUnits="userSpaceOnUse"><stop
             offset="0.15"
             style="stop-color:#FFFFFF"
             id="stop4901" /><stop
             offset="0.2824"
             style="stop-color:#9C9593"
             id="stop4903" /><stop
             offset="0.4253"
             style="stop-color:#5A5250"
             id="stop4905" /><stop
             offset="0.5636"
             style="stop-color:#302A28"
             id="stop4907" /><stop
             offset="0.6936"
             style="stop-color:#0F0704"
             id="stop4909" /><stop
             offset="0.8134"
             style="stop-color:#000000"
             id="stop4911" /><stop
             offset="0.9192"
             style="stop-color:#000000"
             id="stop4913" /><stop
             offset="1"
             style="stop-color:#000000"
             id="stop4915" /></radialGradient><circle
           class="st8"
           cx="179.2"
           cy="220.10001"
           r="21.799999"
           id="circle4917"
           style="fill:url(#SVGID_3_)" /><polyline
           class="st9"
           points="179.2,220.1 284.4,247.9 179.2,220.1 74,192.2 179.2,220.1 151.4,325.3 179.2,220.1 207,114.9      179.2,220.1 226.5,230 179.2,220.1 131.9,210.2 179.2,220.1 169.3,267.4 179.2,220.1 189.1,172.8 179.2,220.1 215.3,213.1      179.2,220.1 143,227.1 179.2,220.1 186.2,256.2 179.2,220.1 172.2,183.9 179.2,220.1 201.9,248.6 179.2,220.1 156.5,191.6      179.2,220.1 150.7,242.8 179.2,220.1 207.7,197.4 179.2,220.1 272.7,243.4 179.2,220.1 85.7,196.8 179.2,220.1 155.9,313.6      179.2,220.1 202.5,126.6 179.2,220.1 300,260.6 179.2,220.1 58.4,179.5 179.2,220.1 138.6,340.9 179.2,220.1 219.7,99.3      179.2,220.1 207,240 179.2,220.1 151.4,200.2 179.2,220.1 159.3,247.9 179.2,220.1 199.1,192.3 179.2,220.1 241.3,261.6      179.2,220.1 117,178.6 179.2,220.1 137.7,282.2 179.2,220.1 220.7,157.9 179.2,220.1 227.7,254.2 179.2,220.1 130.7,186      179.2,220.1 145.1,268.6 179.2,220.1 213.3,171.6 179.2,220.1 245.1,193 179.2,220.1 113.3,247.1 179.2,220.1 206.2,286      179.2,220.1 152.1,154.2 179.2,220.1 257.9,273.5 179.2,220.1 100.4,166.6 179.2,220.1 125.7,298.8 179.2,220.1 232.6,141.3      179.2,220.1 295.8,168.7 179.2,220.1 62.6,271.5 179.2,220.1 230.6,336.7 179.2,220.1 127.8,103.4 179.2,220.1 236,229.2      179.2,220.1 122.4,211 179.2,220.1 170.1,276.9 179.2,220.1 188.3,163.3 179.2,220.1 185.4,217.6 179.2,220.1 173,222.6      179.2,220.1 181.7,226.3 179.2,220.1 176.7,213.9 179.2,220.1 226.7,250.7 179.2,220.1 131.6,189.5 179.2,220.1 148.6,267.6      179.2,220.1 209.8,172.5    "
           id="polyline4919" /></g><ellipse
         transform="matrix(0.5255,-0.8508,0.8508,0.5255,-103.2758,256.4694)"
         class="st10"
         cx="178.3"
         cy="220.8"
         rx="67.400002"
         ry="112.2"
         id="ellipse4921"
         style="fill:none;stroke:#ffffff;stroke-width:15;stroke-miterlimit:10" /><ellipse
         transform="matrix(0.00164722,-1,1,0.00164722,-42.8205,398.762)"
         class="st10"
         cx="178.3"
         cy="220.8"
         rx="112.2"
         ry="67.400002"
         id="ellipse4923"
         style="fill:none;stroke:#ffffff;stroke-width:15;stroke-miterlimit:10" /><ellipse
         transform="matrix(0.8913,-0.4533,0.4533,0.8913,-80.7342,104.8239)"
         class="st10"
         cx="178.3"
         cy="220.8"
         rx="112.2"
         ry="67.400002"
         id="ellipse4925"
         style="fill:none;stroke:#ffffff;stroke-width:15;stroke-miterlimit:10" /><ellipse
         transform="matrix(0.5255,-0.8508,0.8508,0.5255,-103.2758,256.4694)"
         class="st11"
         cx="178.3"
         cy="220.8"
         rx="67.400002"
         ry="112.2"
         id="ellipse4927"
         style="fill:none;stroke:#5a4a86;stroke-width:10;stroke-miterlimit:10" /><ellipse
         transform="matrix(0.00164722,-1,1,0.00164722,-42.8205,398.762)"
         class="st11"
         cx="178.3"
         cy="220.8"
         rx="112.2"
         ry="67.400002"
         id="ellipse4929"
         style="fill:none;stroke:#5a4a86;stroke-width:10;stroke-miterlimit:10" /><ellipse
         transform="matrix(0.8913,-0.4533,0.4533,0.8913,-80.7342,104.8239)"
         class="st11"
         cx="178.3"
         cy="220.8"
         rx="112.2"
         ry="67.400002"
         id="ellipse4931"
         style="fill:none;stroke:#5a4a86;stroke-width:10;stroke-miterlimit:10" /></g></g><g
     transform="matrix(0.97249743,0,0,0.97249743,-7.5807926,-11.109011)"
     id="Layer_2-7"
     style="fill:#ffffff;fill-opacity:1;stroke:none"><g
       id="g6264"
       style="fill:#ffffff;fill-opacity:1;stroke:none"><path
         inkscape:connector-curvature="0"
         class="st10"
         d="m 364.7,338 c -0.1,-3.3 -0.1,-6.6 -0.3,-9.9 -0.2,-2.3 0.3,-3.4 2.9,-3.1 11.3,1.2 22.8,1.3 34,3.9 7,1.6 13.5,4.4 19.5,8.2 2.6,1.6 6.4,1.8 5.2,6.4 -0.4,1.7 0.4,3.8 -2.4,3.9 -1.2,0 -1.7,1.3 -1.8,2.1 -1.1,5.6 -5.1,5.9 -9.7,5.7 -5.1,-0.2 -10.3,0.3 -15.4,0.2 -27.4,-0.7 -54.8,-0.7 -82.3,0.6 -4.2,0.2 -9.6,3 -12.2,0.1 -2.1,-2.4 -0.7,-7.9 -0.9,-12 -0.1,-1.1 0.7,-3.1 -1.6,-2.8 -3.2,0.3 -0.6,2.1 -0.6,3.1 0.1,3.6 0.4,7.3 0.4,10.9 0.1,4.8 -4.8,2.1 -6.5,4.4 2.6,1.6 5,-0.6 7.6,-0.7 2.8,-0.2 5.6,-0.6 8.4,-1.1 3.5,-0.6 6.1,0.4 7.5,3.8 1.9,3.6 4.1,7 6.9,10 0.1,1.5 -1,1.4 -2,1.4 -6.6,0 -13.2,0.1 -19.8,0.1 -0.5,-0.4 -0.9,-0.3 -1,0.3 0,0.1 0.4,0.3 0.7,0.5 1,6.1 1,6.1 -4.7,6.2 -2,0 -4,0.2 -5.9,0.1 -6.8,-0.4 -14.1,2.2 -20.3,-2.7 -0.2,-0.1 -0.7,0.2 -1.1,0.4 2.7,3.9 6.2,5 10.7,4.7 6.6,-0.5 13.2,-0.5 19.8,-0.4 3,0 4.7,-0.5 4.1,-4 -0.3,-1.6 -0.1,-3 2.1,-2.8 3.9,0.2 7.9,-0.7 11.8,0.3 0.3,4 -0.7,8.1 1.8,11.7 -0.1,-3.9 -0.2,-7.9 -0.2,-11.8 1,-1.6 2.7,-0.9 4,-1 16.3,-0.4 32.6,-0.8 48.8,-1.2 2.6,-0.1 5.3,-0.2 7.9,-0.3 1.7,0 3.5,0 5.2,0.1 2,0.1 2.4,1.9 3.3,3.2 2.6,3.9 5.1,7.8 7.7,11.7 0.1,1.9 -1.4,1.5 -2.4,1.5 -19.2,0.4 -38.4,0.8 -57.6,1.1 -0.9,0 -2.1,0.3 -2,-1.3 0.3,-0.3 0.5,-0.6 0.8,-0.9 0.3,-0.4 0.6,-0.7 0.9,-1.1 0.3,-0.3 0.6,-0.7 1,-1 0.7,-0.4 1.6,-1.4 1.1,-1.8 -1.2,-1 -1.4,0.6 -2,1.2 -0.3,0.3 -0.6,0.7 -0.9,1 -0.3,0.4 -0.5,0.7 -0.8,1.1 -0.2,0.3 -0.4,0.7 -0.7,1 -1.7,2.1 -3.5,3.4 -6.2,1.6 -1.3,-0.9 -2.7,-1.4 -4.4,0.2 -6.5,6.6 -14.5,9 -23.5,8.2 -3.7,-0.3 -5.8,1 -7.3,4.3 -1.2,2.7 -2.9,5.2 -4.3,7.8 -2.2,4.2 -3.5,8.3 -2.5,13.3 1.1,5.5 -0.8,6.9 -6.3,5.7 -1.3,-0.3 -2.5,-0.7 -3.8,-1.2 -11.6,-4.1 -12.8,-7 -7.6,-18.3 1.4,-3.2 3.4,-6 5.5,-8.8 4.4,-6.1 3.5,-11.6 -3.4,-14.4 -3,-1.2 -4,-2.2 -4,-5.1 0,-0.6 -0.5,-1.2 -1.3,-2.7 -0.7,9.1 -0.7,9.1 -8.7,9.2 -7.5,0.1 -14.9,0.2 -22.4,0.5 -2.3,0.1 -3.5,-0.5 -3.2,-2.9 0.5,-3.1 -1.2,-3.4 -3.8,-3.3 -6.3,0.3 -12.6,0.3 -18.9,0.4 0,0 -0.1,-0.2 -0.1,-0.2 0.1,-0.4 0.2,-0.9 0.3,-1.3 3.5,-0.6 6,-2.6 8.5,-4.9 -3.4,0.7 -6.4,2.2 -9.1,4.3 -0.5,0.4 -1.5,0.3 -1.1,1.4 l -0.2,-0.1 c -7.8,4 -16.2,2.4 -24.7,2.1 13.2,-8.8 26.4,-17.7 39.7,-26.5 2.1,-1.4 4.5,-0.4 6.8,-0.9 19.1,-0.4 38.3,-0.7 57.4,-1.1 -0.9,-2.4 -2.9,-1.6 -4.6,-1.5 -6.3,0 -12.6,0.2 -18.8,0.3 -1,0 -2.4,0.7 -3.1,-0.7 -1.1,-2 -1,-2 -3.1,-1.1 -3.2,1.4 -6.4,2.3 -10,2.2 -5.6,-0.1 -11.2,0.2 -16.8,0.3 8.3,-6 18.1,-8.8 27.4,-12.6 1.4,-0.5 2.8,-1 4.2,-1.4 2.8,-0.9 6.2,-3 8.3,-2.1 2.1,0.9 0.6,5 1,7.7 0.1,0.8 -0.5,2.1 1.2,1.8 1.6,-0.2 0.8,-1 0.8,-1.9 0,-3.1 -1.3,-6.4 0.6,-9.4 3.3,-0.8 6.6,-1.5 9.3,-3.7 -3.4,0.1 -7.4,-1.8 -9.2,2.8 -12.1,0.2 -12.2,0.2 -12.3,-11.6 0,-2.5 -1.5,-5.9 1.2,-7.2 3.2,-1.5 7.5,-1.9 10.6,-0.3 2.6,1.3 4.9,1.5 7.4,1.5 11.3,-0.1 22.5,-0.2 33.8,-0.3 0,2.4 -0.1,4.8 -0.1,7.2 -1.1,0.1 -2.3,-0.4 -3.6,1.1 1.5,-0.5 2.9,0.6 3.6,-1.2 2.7,-1.2 1.2,-3.9 2,-5.8 3.5,-0.1 7,-0.1 10.4,-0.2 3.3,-0.1 6.7,-0.7 7.6,4 0.3,1.9 2.2,1 3.4,1 7.8,0.1 15.5,0.1 23.3,0 2.7,0 4.1,0.3 4.1,3.7 0,3.4 -1.2,4.2 -4.3,4.3 -3.5,0.2 -7.2,-0.5 -10.5,1.4 -0.7,0.2 -1.5,0.7 -2.2,0.7 -5.2,-0.4 -10.4,-0.8 -15.4,1.4 5.9,0.1 11.8,0.4 17.6,-1.6 3.5,0.9 6.9,0.1 10.2,-0.5 3.4,-0.6 4.5,0.6 4.7,3.5 0.3,0.4 0.6,0.8 0.8,1.2 0.3,0.4 0.6,0.7 0.9,1.1 0.6,0.7 1.2,1.5 1.8,2.2 0.3,0.3 0.5,0.6 0.8,0.9 0.5,0.5 1,1.1 1.6,1.6 0.3,0.4 0.6,0.7 0.9,1.1 0.3,0.4 0.6,0.7 0.9,1.1 0.3,0.4 0.6,0.7 0.9,1.1 0.4,0.3 0.7,1.2 1.3,0.5 0.6,-0.7 -0.2,-0.9 -0.6,-1.2 -0.3,-0.3 -0.6,-0.7 -1,-1 -0.3,-0.4 -0.6,-0.7 -0.9,-1.1 -0.2,-0.4 -0.5,-0.7 -0.7,-1.1 -0.5,-0.5 -1.1,-1.1 -1.6,-1.6 -0.3,-0.4 -0.6,-0.7 -0.9,-1.1 -0.6,-0.7 -1.2,-1.5 -1.8,-2.2 -0.2,-0.3 -0.5,-0.7 -0.7,-1 -0.3,-0.4 -0.5,-0.6 -0.8,-0.6 z m 9.8,12.9 c 0.3,0.3 0.8,0.8 0.9,0.8 0.9,-0.6 0.2,-1 -0.2,-1.5 -0.4,-0.3 -0.7,-1.2 -1.3,-0.5 -0.6,0.7 0.2,0.9 0.6,1.2 z m -34.5,32 c 0.7,-0.7 2.4,-1.6 1.4,-2.5 -1.1,-1 -1.6,0.8 -2.1,1.6 -0.4,0.3 -1.3,0.5 -0.7,1.3 0.6,0.7 1,0 1.4,-0.4 z M 227.7,361.5 c -1.1,-0.9 -2.1,-1.6 -3.6,0 1.4,0 2.6,0 3.6,0 0.1,1.6 0.1,3.3 0.1,5 -1.2,0 -2.4,0 -4.1,0.1 1.8,1.4 3,1.1 4,-0.1 1.5,-1.7 1.6,-3.3 0,-5 z m 35.4,11.1 c 0.7,0.7 1.7,2.3 2.3,1.7 1,-1.1 0,-2.3 -1.5,-2.7 -1.3,-1.7 -3.1,-0.8 -4.6,-0.8 -9.6,0.1 -19.2,0.6 -28.7,0.4 -5.5,-0.1 -9.5,2.4 -13.6,5.5 4.2,-2.3 11,5.3 13.4,-3.8 0.1,-0.2 0.9,-0.3 1.4,-0.4 10.4,-0.2 20.9,-0.5 31.3,0.1 z m 43.8,16.5 c -1.6,0 -3.3,0.2 -4.9,0.1 -2.9,-0.1 -3.1,1.7 -3.1,3.9 0,2.9 1.8,2.6 3.7,2.3 1.9,-0.4 4,-0.4 5.8,-1.2 2.1,-0.9 5.8,-1.3 5.3,-4.2 -0.4,-2.1 -3.7,-0.6 -5.7,-0.9 -0.5,0 -0.8,0 -1.1,0 z m 71,-55.7 c -0.9,0.7 -1.4,0.8 -1.5,1.2 -0.4,0.9 0.3,1.5 0.9,2.1 3.9,4.5 7.8,8.9 11.7,13.4 0.6,0.7 1.2,1.9 2.3,0.9 1.1,-1 0,-1.8 -0.6,-2.4 -3.9,-4.5 -7.8,-8.9 -11.6,-13.4 -0.6,-0.6 -0.9,-1.2 -1.2,-1.8 z m 29.4,16.2 c -0.2,-0.2 -0.3,-0.4 -0.4,-0.5 -4.3,-5 -8.7,-10 -13,-15 -0.4,-0.5 -1.1,-0.8 -1.7,-0.2 -0.5,0.6 -0.5,1.2 0,1.7 4.2,4.9 8.5,9.7 12.7,14.6 0.4,0.5 1,1 1.7,0.5 0.4,-0.3 0.5,-0.8 0.7,-1.1 z m -22.1,-16.4 c -0.6,0.5 -1.1,1.1 -1.7,1.6 4.7,5.3 9.4,10.6 14.1,15.9 0.2,0.2 0.9,0.2 1.2,0 0.6,-0.4 0.6,-1 0.1,-1.6 -4.5,-5.3 -9.1,-10.6 -13.7,-15.9 z m -0.9,17 c -0.1,-0.2 -0.1,-0.4 -0.2,-0.5 -4.4,-5.1 -8.9,-10.2 -13.4,-15.3 -0.5,-0.6 -1.1,-0.5 -1.6,0.1 -0.5,0.7 -0.2,1.2 0.3,1.7 4.1,4.7 8.2,9.5 12.4,14.2 0.4,0.4 1.1,0.7 1.7,0.8 0.2,0.1 0.6,-0.6 0.8,-1 z m 16.5,-16.9 c -2,1.1 -1,2 -0.3,2.9 3.9,4.5 7.8,8.9 11.7,13.4 0.6,0.6 1.2,1.9 2.3,0.7 0.9,-1 -0.1,-1.8 -0.7,-2.5 -3.8,-4.4 -7.6,-8.7 -11.4,-13 -0.4,-0.6 -1.1,-1 -1.6,-1.5 z M 316.1,371 c 0.5,-0.2 1,-0.4 1.6,-0.6 -0.8,-3.6 -3.2,-6.3 -5.5,-9.1 -0.2,-0.2 -1,-0.2 -1.3,0 -0.7,0.4 -0.5,1.1 -0.1,1.7 1.8,2.6 3.5,5.3 5.3,8 z m -10.7,-11.1 c 0.6,5 3.4,7.4 5.1,10.3 0.3,0.6 1.2,0.9 1.6,0.2 0.3,-0.4 0.3,-1.4 0.1,-1.7 -1.8,-2.6 -3,-5.7 -6.8,-8.8 z m -5.7,0.3 c 1.5,4.9 3.6,7.8 6,10.5 0.2,0.2 1,0.2 1.3,-0.1 0.3,-0.2 0.4,-1 0.2,-1.3 -2,-2.8 -3.2,-6.3 -7.5,-9.1 z m 24.7,-23.1 c -3.9,0.6 -7.9,0.1 -11.4,2.4 3.9,-0.3 7.9,-0.1 11.4,-2.4 z m -24.2,-8.3 c 1,0.7 1.9,0.7 2.9,-0.1 -1,-0.6 -2,-0.5 -2.9,0.1 z m 5.9,-1.7 c -0.3,0.3 -0.6,0.5 -0.9,0.7 0.3,0.1 0.6,0.3 0.8,0.3 0.4,-0.1 0.8,-0.3 1.3,-0.4 -0.4,-0.2 -0.8,-0.4 -1.2,-0.6 z M 222,363 c -0.1,0.5 -0.2,1 -0.2,1.4 0,0.1 0,1.2 0.7,0.4 0.2,-0.3 0.2,-0.9 0.1,-1.3 0,-0.1 -0.3,-0.2 -0.6,-0.5 z"
         id="path6266"
         style="fill:#ffffff;fill-opacity:1;stroke:none;stroke-width:15;stroke-miterlimit:10" /><path
         inkscape:connector-curvature="0"
         class="st10"
         d="m 167,362.2 c 10.9,-0.2 21.9,-0.5 32.8,-0.6 1.4,0 3.5,-1.2 4.1,1.3 0.6,2.3 -0.2,3.9 -2.4,5.3 -5.5,3.4 -10.7,7.1 -16.2,10.6 -5,3.2 -10,6.4 -13.2,11.8 -0.6,1.1 -1.8,1.9 -3,2.5 -8.9,4.7 -17.8,9.5 -26.8,14 -4.6,2.3 -5.7,1.6 -6.3,-3.6 -0.7,-6.1 0.3,-12.2 -1.1,-18.3 -0.9,-3.9 -2.1,-7.6 -4.4,-11 -0.6,-1 -1.2,-2 -1.6,-3.1 -2.4,-6.5 -1.1,-8.4 5.7,-8.6 10.8,-0.2 21.5,-0.4 32.3,-0.6 0.1,0.1 0.1,0.2 0.1,0.3 z m -24.5,13.4 c 1.2,5.1 2.4,10 2.4,15.5 5.9,-3.1 11,-5.9 16.3,-8.6 2.6,-1.3 2,-3.5 1.9,-5.5 -0.2,-2.8 -2.4,-1.7 -3.8,-1.7 -5.4,0 -10.9,0.2 -16.8,0.3 z"
         id="path6268"
         style="fill:#ffffff;fill-opacity:1;stroke:none;stroke-width:15;stroke-miterlimit:10" /><path
         inkscape:connector-curvature="0"
         class="st10"
         d="m 317.4,360.7 c 1,-1.8 2.7,-0.9 4,-0.9 28.2,-0.6 56.3,-1.1 84.5,-1.7 2.3,0 4.6,-0.4 5.9,2.4 0.7,1.5 2.3,0.9 3.6,0.9 3.5,0 7,-0.1 10.4,-0.2 1.5,0 2,0.6 2,2.1 0,1.5 -1,1.4 -2,1.4 -4.4,0.1 -8.9,0.2 -13.3,1.2 7.8,-0.2 15.6,-0.1 23.4,-0.5 4.6,-0.3 5.8,1.7 5.2,5.7 -18,-0.6 -36,0.3 -53.9,0.7 -2.5,-0.3 -4.9,-0.6 -7.3,0.4 -16.8,0.3 -33.6,0.5 -50.4,0.9 -2.8,0.1 -4.8,-0.5 -6,-3 -1.6,-3.5 -3.7,-6.6 -6.1,-9.4 z"
         id="path6270"
         style="fill:#ffffff;fill-opacity:1;stroke:none;stroke-width:15;stroke-miterlimit:10" /><path
         inkscape:connector-curvature="0"
         class="st10"
         d="m 440.9,372.1 c 1.4,1.8 -0.2,3.1 -1,4.3 -5.4,8.1 -11.8,14.5 -22.7,13.6 -5.1,-0.4 -10.2,0 -15.3,0.3 -2,0.1 -3.5,-0.3 -4.4,-2.2 -2.7,-4.8 -5.4,-9.6 -8.4,-15 17.6,-0.4 34.7,-0.7 51.8,-1 z m -39.4,16.2 c 0.4,-0.3 0.8,-0.6 1.2,-1 -2.5,-4.1 -5.1,-8.3 -7.6,-12.4 -0.4,0.3 -0.8,0.5 -1.3,0.8 2.6,4.2 5.1,8.4 7.7,12.6 z M 399.8,375 c -0.4,0.3 -0.8,0.5 -1.3,0.8 2.5,4 4.9,8 7.4,12 0.4,-0.3 0.8,-0.5 1.2,-0.8 -2.3,-4.1 -4.8,-8.1 -7.3,-12 z"
         id="path6272"
         style="fill:#ffffff;fill-opacity:1;stroke:none;stroke-width:15;stroke-miterlimit:10" /></g></g><path
     id="path4236-2_1_-8"
     inkscape:connector-curvature="0"
     sodipodi:nodetypes="cc"
     class="st2"
     d="m 45.403409,60.161425 454.518751,0"
     style="fill:none;stroke:#ac2b35;stroke-width:15;stroke-linecap:round;stroke-linejoin:round;stroke-opacity:1" /></svg>