<?xml version="1.0" encoding="utf-8"?>
<!-- Generator: Adobe Illustrator 23.0.3, SVG Export Plug-In . SVG Version: 6.00 Build 0)  -->
<svg version="1.1" xmlns="http://www.w3.org/2000/svg" xmlns:xlink="http://www.w3.org/1999/xlink" x="0px" y="0px"
	 viewBox="0 0 552.8 552.8" style="enable-background:new 0 0 552.8 552.8;" xml:space="preserve">
<style type="text/css">
	
		.st0{fill-rule:evenodd;clip-rule:evenodd;fill:#081826;stroke:#081826;stroke-width:10;stroke-linecap:round;stroke-linejoin:round;}
	.st1{fill:none;stroke:#AC2B35;stroke-width:15;stroke-linecap:round;stroke-linejoin:round;}
	.st2{fill:none;stroke:#C5791E;stroke-width:15;stroke-linecap:round;stroke-linejoin:round;}
	.st3{display:none;}
	.st4{display:inline;fill:#FFFFFF;}
	.st5{display:inline;fill:#081826;}
	.st6{fill:#081826;}
	.st7{fill:#FFFFFF;}
	.st8{fill:#FFFFFF;stroke:#081826;stroke-width:2;stroke-miterlimit:10;}
</style>
<g id="bg" inkscape:version="0.91 r13725" sodipodi:docname="adept.svg" xmlns:cc="http://creativecommons.org/ns#" xmlns:dc="http://purl.org/dc/elements/1.1/" xmlns:inkscape="http://www.inkscape.org/namespaces/inkscape" xmlns:rdf="http://www.w3.org/1999/02/22-rdf-syntax-ns#" xmlns:sodipodi="http://sodipodi.sourceforge.net/DTD/sodipodi-0.dtd" xmlns:svg="http://www.w3.org/2000/svg">
	
		<sodipodi:namedview  bordercolor="#666666" borderopacity="1.0" id="base" inkscape:current-layer="layer1" inkscape:cx="-129.55511" inkscape:cy="304.64766" inkscape:document-units="px" inkscape:pageopacity="0.0" inkscape:pageshadow="2" inkscape:window-height="1017" inkscape:window-maximized="1" inkscape:window-width="1920" inkscape:window-x="-8" inkscape:window-y="-8" inkscape:zoom="0.98994949" pagecolor="#ffffff" showgrid="true" showguides="false">
		<inkscape:grid  id="grid4169" type="xygrid"></inkscape:grid>
	</sodipodi:namedview>
	
		<path id="path4236" inkscape:connector-curvature="0" inkscape:export-xdpi="240" inkscape:export-ydpi="240" sodipodi:nodetypes="cccccc" class="st0" d="
		M28.4,44.2h488.5v247.6c-64,168-240,240-240,240s-176-72-248-240L28.4,44.2z"/>
	<path id="path4236-2_3_" inkscape:connector-curvature="0" sodipodi:nodetypes="cccccc" class="st1" d="M266.6,510.2
		c0,0-154.2-62.1-221.3-218.7L44.9,60.8h217.8"/>
	<path id="path4236-2_1_" inkscape:connector-curvature="0" sodipodi:nodetypes="cccccc" class="st2" d="M282.7,60.8h217.8v230.7
		c-59.7,156.5-213.9,218.6-213.9,218.6"/>
</g>
<g id="Layer_3" class="st3">
	<circle id="path8598_1_" class="st4" cx="272.8" cy="263" r="136.3"/>
	<polyline class="st4" points="240.7,141.5 240.7,98.6 304.7,98.6 304.7,141.5 	"/>
	<polyline class="st4" points="304.7,384.5 304.7,427.4 240.7,427.4 240.7,384.5 	"/>
	<circle id="path8598_2_" class="st5" cx="272.8" cy="263" r="113.9"/>
	<polyline class="st4" points="394.1,231 437.1,231 437.1,295 394.1,295 	"/>
	<polyline class="st4" points="151.2,295 108.3,295 108.3,231 151.2,231 	"/>
	<polyline class="st4" points="164.2,199.7 133.8,169.4 179.1,124.1 209.4,154.5 	"/>
	<polyline class="st4" points="381.2,326.3 411.5,356.6 366.3,401.9 335.9,371.5 	"/>
	<polyline class="st4" points="335.9,154.5 366.3,124.1 411.5,169.4 381.2,199.7 	"/>
	<polyline class="st4" points="209.4,371.5 179.1,401.9 133.8,356.6 164.2,326.3 	"/>
</g>
<g id="Layer_2">
	<g>
		
			<rect x="252" y="168.5" transform="matrix(0.602 -0.7985 0.7985 0.602 -86.3469 318.6015)" class="st6" width="48.9" height="154.9"/>
		<polygon class="st7" points="177.9,145.3 301.6,238.6 276,272.4 152.3,179.2 179,172.7 		"/>
		<polygon class="st7" points="105.9,133.3 200.2,204.3 146.8,217.2 108.2,188.1 		"/>
		<polygon class="st7" points="215.2,184.3 121,113.3 174.3,100.4 212.9,129.5 		"/>
		<polygon class="st7" points="380.2,350.9 256.5,257.7 282,223.8 405.7,317.1 379,323.5 		"/>
		<g>
			<circle id="path8598_4_" class="st7" cx="365" cy="312.5" r="68.1"/>
			<polyline class="st7" points="307.1,336.8 285.8,339.8 281.4,308.1 302.6,305.1 			"/>
			<polyline class="st7" points="422.9,288.3 444.1,285.3 448.5,317 427.3,319.9 			"/>
			<circle id="path8598_3_" class="st6" cx="365" cy="312.5" r="56.9"/>
			<polyline class="st7" points="340.7,254.6 337.7,233.4 369.4,229 372.4,250.2 			"/>
			<polyline class="st7" points="389.2,370.4 392.2,391.7 360.6,396.1 357.6,374.9 			"/>
			<polyline class="st7" points="341.2,370.6 328.3,387.7 302.8,368.5 315.7,351.4 			"/>
			<polyline class="st7" points="388.8,254.5 401.7,237.3 427.2,256.6 414.3,273.7 			"/>
			<polyline class="st7" points="306.9,288.8 289.8,275.8 309,250.3 326.1,263.2 			"/>
			<polyline class="st7" points="423.1,336.3 440.2,349.2 420.9,374.8 403.8,361.8 			"/>
		</g>
	</g>
</g>
<g id="Layer_4">
	<g>
		<path class="st8" d="M173.9,273.5c-0.4-2-3.3-4.1-2-5.6c2-2.3,5.1-3.7,8.3-4.5c4.5-1.1,9.8-1,11.2-7c0.4-1.8,2.1-2.4,3.5-3.1
			c7.1-3.9,14.1-7.8,21.2-11.8c10-5,19.7-10.3,29.2-16.1c2.2-1.2,4.5-2.5,6.7-3.7c1.8-0.8,3.5-1.6,5.3-2.4c0.2,0.2,0.3,0.5,0.2,0.7
			c-0.1,0.4-0.3,0.8-0.4,1.1c-0.1,0.4-0.3,0.9-0.4,1.3c-0.2,0.8-0.4,1.5-0.6,2.3c-0.1,0.5-0.3,1-0.4,1.5c0,0-0.1,0.4-0.1,0.4
			c-0.9,3.3-1.7,6.5-2.7,9.8c-0.6,2-0.5,3.5,2,3.8c2,0.7,3.6,2.9,7,1.2c-2.8-1-4.8-1.7-6.8-2.5c-1.6-4.1,1.8-7.6,1.5-11.6
			c0.1-0.4,0.3-0.9,0.4-1.3c0.1-0.4,0.3-0.9,0.4-1.3c0.2-0.8,0.4-1.7,0.6-2.5c0,0,0.1-0.4,0.1-0.4c0.2-0.8,0.4-1.7,0.6-2.5
			c0.4-2.2,1.7-3.6,3.7-4.6c4.6-2.3,9.1-5,13.6-7.4c2.1-1.2,3.7-2.6,3.9-5.8c-6.3,3.4-11.9,6.8-18.6,7.8c-6.7,1-6.6,1.3-4.2,7.6
			c0.1,0.4-0.1,0.9-0.2,1.3c-1.7,0.7-3.4,1.5-5.1,2.2c-1-1.9-2-3.7-2.9-5.6c0.4-0.7,0.1-1.5-0.5-1.4c-0.7,0.1-0.6,0.9-0.3,1.5
			c-0.2,3.4-2.5,5.1-5.3,6.3c-2.6-0.6-4.2,1.4-6.1,2.4c-7.2,3.8-14.4,7.9-21.6,11.8c0.2,0.3,0.3,0.6,0.5,0.9c9.1-5,18.1-10,27.2-15
			c0.6,1.1,1.2,2.2,1.8,3.3c-9.6,5.4-19.2,10.7-28.8,16.1c-0.7-3-3.5-2.3-5.4-3.2c0-0.4,0-1.2-0.1-1.2c-0.8-0.2-1.1,0.3-1.2,1
			c-2,5.2-7.1,6.6-11.4,9c-2-3.6-4-7.3-6-10.9c-0.3,0.1-0.5,0.3-0.8,0.4c2,3.6,4,7.3,6,10.9c-0.3,0.2-0.5,0.4-0.8,0.6
			c-11.1,6.5-11.1,6.4-16.5-5.2c-0.9-1.8-0.9-2.9,1.1-3.8c8.3-3.7,15.2-10.4,25.4-10.2c3.4,0.1,8-1.5,7.9-7
			c-0.1-2.2,1.3-3.4,3.2-4.4c10-5.4,20-10.9,29.9-16.5c3.1-1.7,3.9-1.1,3,2.9c8.2-7.3,15.9-14.8,26.1-18.6c2,3.5,3.8,7.1,6,10.5
			c1.5,2.3,1.7,4.2-0.6,6c4.6-2.5,9.1-5,14.3-7.9c-4.7,0.4-7.8,5.8-11.1,3.6c-3-2-4.2-6.7-6.2-10.2c-0.5-0.8-0.9-1.7-1.3-2.6
			c11.1-6.8,11.3-6.9,17.3,4.6c1.8,3.4,3,4.6,6.5,2.1c3-2.1,6.1-4.4,10.3-3c0.9,0.3,2.4-0.8,3.5-1.4c10-5.5,19.9-11.1,30-16.4
			c3-1.6,5-3.5,5.2-6.9c0.3-4,2.5-6.4,6.1-7.9c2.1-0.9,4-2.2,6-3.2c2.7-1.4,5.5-2.8,8.2-4.1c1.6,4.2,6.7,4.9,8.5,8.8
			c-0.9,4-1.4,8-1.2,12.1c-0.1,6-1.9,10.5-8.3,12.8c-3.7,1.3-7.3,3.3-10.3,6l0,0c-4.3,1-8,3.1-11.1,6.2l0-0.1
			c-16.1,7.9-31.6,16.9-47.2,25.7c-13.7,6.4-26.6,14.5-40.1,22.2c3.9-1.6,4.9,1,6.1,3.4c0.4,0.9,0.9,1.7,1.3,2.6
			c-8.7,4.8-17.5,9.7-26.2,14.5c-4.4-6.5-4.4-6.5-11.5-2.6c-2,1.1-4,2.1-6,3.2c-0.3-0.4-0.8-1.1-0.9-1.1c-2.3,1.1-5.8,1.9-6.5,3.7
			c-1.2,3.5-4.4,3.3-6.4,5.1c-0.9-0.2-1.3-2.2-2.7-0.7l0.1,0c-0.2-1-0.6-1.6-1.4-0.4l0.1,0c0.2-1.6-0.8-1.5-1.9-1.3l0.1,0
			c-1.8-1.2-2.9,0.6-4.2,1.2c-5.9,3.1-11.8,6.4-17.7,9.6c-0.3-0.6,0.2-1.6-0.9-1.6l0,0.1c1.6,0.2,1.7-0.7,1.3-1.9l0,0.1
			c2.3-2.7,3.1-6,4.1-11C182.6,268.6,179,272.3,173.9,273.5z M226,243.8c-4.8,2.7-9.7,5.3-14.5,8c-0.9,0.5-2.5,0.9-1.8,2.4
			c0.8,1.8,2.2,0.7,3.3,0.2c9.6-5.2,19.1-10.5,28.6-15.8c1-0.5,2.3-1.2,1.5-2.6c-0.8-1.4-2-0.5-2.9,0
			C235.4,238.6,230.7,241.2,226,243.8z M263.1,223.9c4.7,0.3,12.8-4.3,13.9-7.6C272.4,218.8,268,221.2,263.1,223.9z M329.7,188.8
			c-0.2-0.4-0.4-0.7-0.5-1.1c-4.4,2.4-8.8,4.9-13.2,7.3c0.2,0.4,0.4,0.7,0.7,1.1C321.2,194.2,325.7,191.9,329.7,188.8z M303.7,202.2
			c-4.9,1.5-9.5,3.8-13.2,7.3C295.6,208.4,300,205.9,303.7,202.2z M279.4,220.6c0.2,0.4,0.5,0.8,0.7,1.2c4.6-2.1,9.1-4.5,13.3-7.3
			c-0.2-0.4-0.5-0.8-0.7-1.3C288.2,215.8,283.8,218.2,279.4,220.6z M341.6,180.7c4.4,0.4,12.3-4,14.3-7.9
			C351,175.5,346.5,177.9,341.6,180.7z M345.5,185.9c-0.2-0.3-0.4-0.7-0.6-1c-4.4,2.4-8.9,4.9-13.3,7.3c0.2,0.3,0.4,0.7,0.6,1
			C336.9,191.1,341.3,188.7,345.5,185.9z M305.9,206.1c0.2,0.3,0.4,0.6,0.5,0.9c4.4-2.4,8.9-4.9,13.3-7.3c-0.2-0.3-0.3-0.6-0.5-0.9
			C314.7,201.2,310.3,203.6,305.9,206.1z M358,177.5c0.2,0.4,0.4,0.7,0.6,1.1c4.6-1.9,8.9-4.3,13-7.2c-0.2-0.4-0.4-0.7-0.6-1.1
			C366.7,172.7,362.3,175.1,358,177.5z"/>
		<path class="st8" d="M351.1,209.4c-5.9,3.3-11.9,6.6-17.8,9.9c-0.5-0.7-0.8-1.9-2-1.3c-0.6,0.3-0.4,1.1,0,1.7
			c-8.7,15.5-23.3,24-39.3,28c-11.9,3-18.8,9.6-25.2,18.5c-5.7,7.9-12,15.2-20.4,20.5c-5.8,3.6-7.4,19.4-3,25.7
			c4.6,6.6,4.1,8.7-3.2,12c-0.1,0.1-0.3,0.2-0.4,0.2c-14.2,6.2-20.6,2.1-20.6-13.4c0-5,0-10.1,0-15.1c0-3.2-1.1-6.1-3.1-8.5
			c-2.9-3.5-5.9-3.7-9.8-1.5c-7.3,4.3-14.7,8.3-22.2,12.2c-3.6,1.9-5.4-1.3-7.5-3.4c0.5-0.8,1.5-1.5,0-2.3l0,0.1
			c0.3-0.2,0.7-0.3,1-0.5c-0.2-0.3-0.4-0.6-0.6-0.9l0,0.1c1.6,0.2,1.7-0.6,1.3-1.9l0,0.1c1.4-1.5,2.9-3.1,1.5-5.4l0,0.1
			c1.6,0.2,1.7-0.7,1.3-1.9c0,0,0,0.1,0,0.1c1-0.9,2-1.8,3-2.8c7.3-3.6,14.5-7.5,21.4-11.8c0,0-0.1,0-0.1,0
			c-0.2,1.6,0.8,1.5,1.9,1.3c0,0-0.1,0-0.1,0c0.3,0.7,0.7,0.9,1.4,0.4c0,0-0.1,0-0.1,0c0.9,1.3,2.3,1.8,3.6,2.5
			c3.7-3.9,9.1-5.1,13.3-8.3c0.9-0.4,1.8-0.8,2.6-1.2c2.7-1.4,5.2-3.6,8.1-4.2c3.9-0.8,2.7,4.9,5.9,5.7c0.8-0.2,1.6-0.3,2.3-0.7
			c20.1-11,40.1-22,60.1-33.1c0.9-0.5,2.2-0.7,2.2-3.6c-9,5-17.4,9.6-25.7,14.2c-0.4-0.7-0.8-1.4-1.3-2c-3-3.6-1.6-5.5,2.2-7.4
			c6.8-3.4,13.4-7.3,20.1-10.9c9.5-5.2,19-10.3,28.4-15.7c2.9-1.6,3.6-0.6,3.7,2c0.1,0.4,0.1,1.1,0.2,1.1c0.6,0.1,0.7-0.3,0.7-0.8
			c3.9-2.1,7.9-4.2,11.8-6.2C347.9,203.7,349.5,206.5,351.1,209.4z M247.8,279.3c2.8-1.6,5.7-3.1,7.6-5.9c1.4-2.1,2.2-4.4,0.3-6.7
			c-1.6-1.8-10.2-1.4-12.4,1c-2.3,2.5,0.4,4.6,1.4,6.8c0.4,1,2.6,1.5,0.7,2.9c-1.3,0.9-2.4,0.2-3.4-0.8c-0.7-0.9-1.4-1.8-2.3-2.5
			c-1-0.8-0.5-3.5-2.6-2.6c-1.5,0.6-2.1,2.4-2.4,4c-0.6,4.2,3.2,7.6,7.3,6.4C244,281.4,245.9,280.2,247.8,279.3z M186.7,286.2
			c0.2,0.4,0.5,0.8,0.7,1.3c4.7-1.9,9.1-4.3,13.2-7.1c-0.3-0.4-0.5-0.9-0.8-1.3C195.5,281.4,191.1,283.8,186.7,286.2z M333.3,211.1
			c-0.2,0.4-0.4,0.7-0.4,0.9c0.1,0.2,0.5,0.5,0.6,0.5c0.5-0.1,0.7-0.5,0.4-1C333.9,211.2,333.5,211.2,333.3,211.1z"/>
		<path class="st8" d="M175,295.3c-0.8,2.8-2.6,4.7-5.4,5.8c-15.2,6-25.5,17.5-33.6,31.2c-2.4,4-4.2,8.4-6.4,12.5
			c-2.3,4.1-5,8-8.9,10.8c-3.8,2.7-8,1.8-8.8-2.6c-1.9-9.9-8-17.6-12.6-26.1c-3.9-7.2-2.8-12.6,4-17.3c8.5-5.8,17.6-10.5,26.9-14.6
			c2.4-1,5-1.5,7.6-0.8c0.5,0.5,1,0.5,1.4-0.1c11.6-6.4,23.3-12.9,34.9-19.3c3.2-1.6,6.4-3.1,9.7-4.7c0.6,2.2-2.2,3.7-0.3,5.5
			c0,0,0-0.1,0-0.1c-1.6-0.2-1.7,0.7-1.3,1.9c0,0,0-0.1,0-0.1c-1.4,1.5-2.8,3.1-1.5,5.4c0,0,0-0.1,0-0.1c-1.6-0.2-1.6,0.7-1.3,1.9
			c0,0,0-0.1,0-0.1c-1.2,1.6-2.8,3.1-1.5,5.4c0,0,0-0.1,0-0.1c-1.6-0.2-1.5,0.8-1.3,1.9c0,0,0-0.1,0-0.1c-0.7,0.3-0.9,0.8-0.4,1.4
			c0,0,0-0.1,0-0.1C175.1,293.1,175.1,294.2,175,295.3z M140.6,307.2c-3.2,0.2-5.3,2.6-7.8,4c-2.5,1.5-4.6,3.5-5.9,6.2
			c-1.1,2.3,0,4.5,1.5,5.6c1.7,1.3,2.5-1.2,3.5-2.1C135.9,317,138.5,312.3,140.6,307.2c-0.4-0.1-0.7-0.3-1-0.5
			c0,0.1-0.1,0.3-0.1,0.4C139.8,307.1,140.2,307.1,140.6,307.2z M157.3,300.3c10.6-4.2,12.5-6.5,12.7-15
			C163.9,288.7,156.2,290.5,157.3,300.3z M129.8,326.5c-0.1,0-0.2-0.1-0.3-0.1c1.1,1.9,2.1,3.9,3.2,5.8c0.1,0,0.1-0.1,0.2-0.1
			C131.9,330.2,130.8,328.4,129.8,326.5z"/>
		<path class="st8" d="M394.7,146.8c5.6-2.8,10.4-7.2,16.9-8.4c1.3,2.3,2.5,4.6,3.8,6.9c0.1-0.1,0.2-0.1,0.3-0.2
			c-1.1-2.3-2.3-4.6-3.4-6.9c11.8-6.3,20.4-17,33-22.4c4.7-2,6.7-1.2,8.7,2.6c0.5,1,1.2,2,1.6,3c3,6.3,2.6,7.3-3.3,10.6
			c-4.3,2.4-8.6,4.7-12.8,7.1c-3.1,1.7-6,3.2-10,2.6c-4.7-0.8-14.4,6.8-15.9,11.5c-0.8,2.6-1.5,5.3-2.3,8c-0.2,0.8-0.6,1.6,0.1,2.2
			c0.8,0.6,1.5,0.2,2.2-0.2c9.1-5,18.5-9.6,27.2-15.3c2.7-1.8,4.9-4.8,8.1-6.6c2.4-1.4,3.6-0.9,5.1,1.2c5.4,7.4,3.6,12.5-5.3,13.4
			c-2.4,0.3-4.3,1.1-6.2,2.1c-3.6,1.9-7,4.1-10.7,5.8c-7.8,3.6-14.1,10-21.7,13.6c-13.7,6.6-27,14-40.4,21.1
			c-1.5-2.8-3.1-5.6-4.6-8.5c7.5-4.1,14.7-8.9,22.5-12.3c9.1-3.9,12.2-10.8,13.2-19.7C398.8,154.3,396.7,150.6,394.7,146.8z
			 M443.2,129.2c2.1-1.2,4.3-2.3,6.4-3.5c1.1-0.6,1.7-1.5,1.1-2.8c-0.7-1.5-2-1.5-3.3-0.8c-4.3,2.3-8.5,4.7-12.8,7
			c-1.1,0.6-1.7,1.6-1.1,2.8c0.7,1.5,2,1.4,3.3,0.8C438.9,131.6,441.1,130.4,443.2,129.2z"/>
		<path class="st8" d="M369.1,199c0.6,1.3,0,2-1.2,2.6c-4.9,2.5-9.7,5.1-14.5,7.7c-1.8-3.3-3.7-6.6-5.5-9.9c2.7-1.8,1.1-3.7,0.3-5.7
			c0,0,0,0.1,0,0.1c3.5-2.5,7.2-4.4,11.1-6.2l0,0c0.7,2.6,2.2,4,5,2.8C365.8,193.2,367.5,196.1,369.1,199z"/>
		<path class="st8" d="M380.1,157.1c2.9-5,8.7-5.7,13-8.6c2.6,2.8,4.1,6.2,5.5,9.6c-6.3,3.5-12.5,7-18.8,10.5
			C378.6,164.6,380.5,160.9,380.1,157.1z"/>
		<path class="st8" d="M269.5,246.8c-1.1-2.2-4.2-4.8-2.9-6.6c1.7-2.4,5.3-3.4,8-5c1.1-0.7,1.7,0,2.2,1c0.9,1.7,1.8,3.4,2.6,5.1
			C276.1,243.2,272.8,245,269.5,246.8z"/>
	</g>
</g>
</svg>
