<?xml version="1.0" encoding="UTF-8" standalone="no"?>
<!-- Generator: Adobe Illustrator 23.0.3, SVG Export Plug-In . SVG Version: 6.00 Build 0)  -->

<svg
   xmlns:dc="http://purl.org/dc/elements/1.1/"
   xmlns:cc="http://creativecommons.org/ns#"
   xmlns:rdf="http://www.w3.org/1999/02/22-rdf-syntax-ns#"
   xmlns:svg="http://www.w3.org/2000/svg"
   xmlns="http://www.w3.org/2000/svg"
   xmlns:sodipodi="http://sodipodi.sourceforge.net/DTD/sodipodi-0.dtd"
   xmlns:inkscape="http://www.inkscape.org/namespaces/inkscape"
   version="1.1"
   x="0px"
   y="0px"
   viewBox="0 0 552.8 552.8"
   style="enable-background:new 0 0 552.8 552.8;"
   xml:space="preserve"
   id="svg4148"
   inkscape:version="0.91 r13725"
   sodipodi:docname="new_class.svg"
   inkscape:export-filename="E:\Sites\mass-effect\masseffect-5e\assets\images\classes\new_class.png"
   inkscape:export-xdpi="120.53"
   inkscape:export-ydpi="120.53"><metadata
     id="metadata4231"><rdf:RDF><cc:Work
         rdf:about=""><dc:format>image/svg+xml</dc:format><dc:type
           rdf:resource="http://purl.org/dc/dcmitype/StillImage" /><dc:title></dc:title></cc:Work></rdf:RDF></metadata><defs
     id="defs4229" /><sodipodi:namedview
     pagecolor="#ffffff"
     bordercolor="#666666"
     borderopacity="1"
     objecttolerance="10"
     gridtolerance="10"
     guidetolerance="10"
     inkscape:pageopacity="0"
     inkscape:pageshadow="2"
     inkscape:window-width="2560"
     inkscape:window-height="1377"
     id="namedview4227"
     showgrid="false"
     inkscape:zoom="1.7076701"
     inkscape:cx="328.88245"
     inkscape:cy="252.39955"
     inkscape:window-x="-8"
     inkscape:window-y="-8"
     inkscape:window-maximized="1"
     inkscape:current-layer="svg4148" /><style
     type="text/css"
     id="style4150">
	
		.st0{fill-rule:evenodd;clip-rule:evenodd;fill:#081826;stroke:#081826;stroke-width:10;stroke-linecap:round;stroke-linejoin:round;}
	.st1{fill:none;stroke:#AC2B35;stroke-width:15;stroke-linecap:round;stroke-linejoin:round;}
	.st2{fill:none;stroke:#C5791E;stroke-width:15;stroke-linecap:round;stroke-linejoin:round;}
	.st3{display:none;}
	.st4{display:inline;fill:#FFFFFF;}
	.st5{display:inline;fill:#081826;}
	.st6{fill:#081826;}
	.st7{fill:#FFFFFF;}
	.st8{fill:#FFFFFF;stroke:#081826;stroke-width:2;stroke-miterlimit:10;}
</style><g
     id="bg"
     inkscape:version="0.91 r13725"
     sodipodi:docname="adept.svg"><sodipodi:namedview
       bordercolor="#666666"
       borderopacity="1.0"
       id="base"
       inkscape:current-layer="layer1"
       inkscape:cx="-129.55511"
       inkscape:cy="304.64766"
       inkscape:document-units="px"
       inkscape:pageopacity="0.0"
       inkscape:pageshadow="2"
       inkscape:window-height="1017"
       inkscape:window-maximized="1"
       inkscape:window-width="1920"
       inkscape:window-x="-8"
       inkscape:window-y="-8"
       inkscape:zoom="0.98994949"
       pagecolor="#ffffff"
       showgrid="true"
       showguides="false"><inkscape:grid
         id="grid4169"
         type="xygrid" /></sodipodi:namedview><path
       id="path4236"
       inkscape:connector-curvature="0"
       inkscape:export-xdpi="240"
       inkscape:export-ydpi="240"
       sodipodi:nodetypes="cccccc"
       class="st0"
       d="   M28.4,44.2h488.5v247.6c-64,168-240,240-240,240s-176-72-248-240L28.4,44.2z" /><path
       id="path4236-2_3_"
       inkscape:connector-curvature="0"
       sodipodi:nodetypes="cccccc"
       class="st1"
       d="M266.6,510.2   c0,0-154.2-62.1-221.3-218.7L44.9,60.8h217.8"
       style="stroke:#22b14c;stroke-opacity:1" /><path
       id="path4236-2_1_"
       inkscape:connector-curvature="0"
       sodipodi:nodetypes="cccccc"
       class="st2"
       d="M282.7,60.8h217.8v230.7   c-59.7,156.5-213.9,218.6-213.9,218.6" /></g><g
     id="Layer_3"
     class="st3"><circle
       id="path8598_1_"
       class="st4"
       cx="272.8"
       cy="263"
       r="136.3" /><polyline
       class="st4"
       points="240.7,141.5 240.7,98.6 304.7,98.6 304.7,141.5  "
       id="polyline4160" /><polyline
       class="st4"
       points="304.7,384.5 304.7,427.4 240.7,427.4 240.7,384.5  "
       id="polyline4162" /><circle
       id="path8598_2_"
       class="st5"
       cx="272.8"
       cy="263"
       r="113.9" /><polyline
       class="st4"
       points="394.1,231 437.1,231 437.1,295 394.1,295  "
       id="polyline4165" /><polyline
       class="st4"
       points="151.2,295 108.3,295 108.3,231 151.2,231  "
       id="polyline4167" /><polyline
       class="st4"
       points="164.2,199.7 133.8,169.4 179.1,124.1 209.4,154.5  "
       id="polyline4169" /><polyline
       class="st4"
       points="381.2,326.3 411.5,356.6 366.3,401.9 335.9,371.5  "
       id="polyline4171" /><polyline
       class="st4"
       points="335.9,154.5 366.3,124.1 411.5,169.4 381.2,199.7  "
       id="polyline4173" /><polyline
       class="st4"
       points="209.4,371.5 179.1,401.9 133.8,356.6 164.2,326.3  "
       id="polyline4175" /></g><g
     id="Layer_2"><g
       id="g4178"><rect
         x="252"
         y="168.5"
         transform="matrix(0.602 -0.7985 0.7985 0.602 -86.3469 318.6015)"
         class="st6"
         width="48.9"
         height="154.9"
         id="rect4180" /><g
         id="g4190" /></g></g><g
     id="Layer_4"><g
       id="g4211" /></g><path
     style="fill:#ffffff;fill-opacity:1"
     d="m 194.74437,423.15343 c -2.18442,-1.05712 -3.74935,-4.24215 -5.96526,-12.14084 -12.6117,-44.95458 -7.0653,-80.43846 17.14973,-109.71803 10.7216,-12.96405 30.3964,-29.6899 51.27123,-43.58652 3.48143,-2.31763 6.3168,-4.421 6.30083,-4.67416 -0.016,-0.25315 -3.38232,-2.92879 -7.48078,-5.94589 -36.4265,-26.81551 -57.50869,-54.11361 -66.5063,-86.11513 -4.22899,-15.04113 -5.27107,-23.52653 -5.33447,-43.43681 -0.0536,-16.84184 0.0667,-18.62156 1.40983,-20.84243 2.78156,-4.59949 7.39824,-5.33304 11.20192,-1.77988 l 2.47673,2.31363 -0.28563,11.30521 -0.28564,11.30524 77.87679,0 77.87679,0 -0.28473,-11.28319 -0.28473,-11.28317 2.33568,-2.33567 c 3.63468,-3.63469 8.53978,-2.87441 11.34115,1.75783 1.34307,2.22087 1.46345,4.00059 1.40983,20.84243 -0.0633,19.91028 -1.10549,28.39568 -5.33448,43.43681 -8.99759,32.00152 -30.07978,59.29962 -66.50629,86.11513 -4.09844,3.0171 -7.4648,5.68186 -7.48076,5.92169 -0.016,0.23984 3.35989,2.72859 7.50196,5.53057 10.24296,6.92907 24.33442,17.76197 33.13371,25.47177 21.81389,19.11301 33.71144,38.24852 38.8911,62.55082 1.85908,8.72258 1.86298,32.30846 0.007,43.06284 -1.42272,8.24453 -6.13975,27.04896 -7.57566,30.20043 -1.05306,2.31121 -4.24397,4.22988 -7.03464,4.22988 -2.70433,0 -6.64201,-3.93844 -6.63644,-6.63772 0.002,-1.20216 1.03625,-5.98368 2.29726,-10.62561 1.26101,-4.64191 2.29478,-8.87142 2.29725,-9.39891 0.005,-0.76084 -15.69608,-0.95909 -75.95389,-0.95909 -60.25782,0 -75.95771,0.19825 -75.95413,0.95909 0.002,0.52749 1.03625,4.757 2.29726,9.39891 2.92843,10.77984 2.92058,12.23333 -0.0812,15.03735 -2.4906,2.32658 -5.12702,2.75781 -8.09097,1.32342 z m 160.47303,-52.62844 0,-10.94812 -78.64405,-7.7e-4 -78.64405,-7.6e-4 -0.21514,10.14316 c -0.11834,5.57875 -0.0421,10.59379 0.16912,11.14457 0.3133,0.81643 14.87917,0.9653 78.85919,0.80596 l 78.47493,-0.19591 0,-10.94813 z m -2.68541,-26.78527 c 0,-1.47461 -3.64423,-10.98487 -6.06451,-15.82644 l -2.75897,-5.5191 -66.88463,-0.19602 -66.88464,-0.19601 -2.26652,4.0323 c -2.35208,4.18456 -5.78826,12.45043 -6.69977,16.11665 l -0.5246,2.10996 76.04181,0 c 41.82301,0 76.04183,-0.23461 76.04183,-0.52134 z m -21.00945,-37.2924 c 0.35296,-0.35296 -11.50951,-12.04603 -16.96987,-16.72755 -8.15193,-6.98918 -36.36215,-27.17178 -37.97932,-27.17178 -1.61717,0 -29.82739,20.1826 -37.97932,27.17178 -7.19832,6.17158 -17.29221,16.45356 -16.58287,16.89188 0.77541,0.47913 109.03036,0.31669 109.51138,-0.16433 z m -44.76785,-69.70541 c 15.34433,-11.45987 31.69703,-26.10351 29.98425,-26.85054 -0.35847,-0.15635 -18.73001,-0.11163 -40.82566,0.0993 l -40.1739,0.38363 5.64724,5.4971 c 3.10599,3.02339 7.83872,7.33561 10.51715,9.5827 7.79017,6.53557 23.42966,18.1839 24.49292,18.24237 0.53584,0.0296 5.19693,-3.1001 10.358,-6.95464 z m 46.81522,-46.22072 c 3.47731,-5.23721 9.75498,-16.81915 9.75498,-17.99738 0,-0.67632 -16.36755,-0.89602 -66.75154,-0.89602 -50.38401,0 -66.75153,0.2197 -66.75153,0.89602 0,1.17823 6.27765,12.76017 9.75497,17.99738 l 2.73843,4.12437 54.25813,0 54.25814,0 2.73842,-4.12437 z m 16.92786,-38.6503 c 1.5354,-6.86795 2.80148,-13.95325 2.80148,-15.67791 0,-1.33734 -3.09756,-1.39361 -76.7259,-1.39361 -73.62834,0 -76.7259,0.0563 -76.7259,1.39361 0,1.72466 1.26606,8.80996 2.80148,15.67791 l 1.1578,5.17899 72.76662,0 72.7666,0 1.15782,-5.17899 z"
     id="path5883"
     inkscape:connector-curvature="0" /></svg>