<?xml version="1.0" encoding="utf-8"?>
<!-- Generator: Adobe Illustrator 23.0.3, SVG Export Plug-In . SVG Version: 6.00 Build 0)  -->
<svg version="1.1" xmlns="http://www.w3.org/2000/svg" xmlns:xlink="http://www.w3.org/1999/xlink" x="0px" y="0px"
	 viewBox="0 0 552.8 552.8" style="enable-background:new 0 0 552.8 552.8;" xml:space="preserve">
<style type="text/css">
	
		.st0{fill-rule:evenodd;clip-rule:evenodd;fill:#081826;stroke:#081826;stroke-width:10;stroke-linecap:round;stroke-linejoin:round;}
	.st1{fill:none;stroke:#C5791E;stroke-width:15;stroke-linecap:round;stroke-linejoin:round;}
	.st2{fill:none;stroke:#5A4A86;stroke-width:15;stroke-linecap:round;stroke-linejoin:round;}
	.st3{fill:#C5791E;}
	.st4{fill:#081826;}
	.st5{fill:none;}
	.st6{opacity:0.15;fill:url(#SVGID_1_);}
	.st7{opacity:0.5;fill:url(#SVGID_2_);}
	.st8{fill:url(#SVGID_3_);}
	.st9{opacity:3.000000e-02;fill:none;stroke:#FFFFFF;stroke-width:2;stroke-miterlimit:10;}
	.st10{fill:none;stroke:#FFFFFF;stroke-width:15;stroke-miterlimit:10;}
	.st11{fill:none;stroke:#5A4A86;stroke-width:10;stroke-miterlimit:10;}
</style>
<g id="bg" inkscape:version="0.91 r13725" sodipodi:docname="adept.svg" xmlns:cc="http://creativecommons.org/ns#" xmlns:dc="http://purl.org/dc/elements/1.1/" xmlns:inkscape="http://www.inkscape.org/namespaces/inkscape" xmlns:rdf="http://www.w3.org/1999/02/22-rdf-syntax-ns#" xmlns:sodipodi="http://sodipodi.sourceforge.net/DTD/sodipodi-0.dtd" xmlns:svg="http://www.w3.org/2000/svg">
	
		<sodipodi:namedview  bordercolor="#666666" borderopacity="1.0" id="base" inkscape:current-layer="layer1" inkscape:cx="-129.55511" inkscape:cy="304.64766" inkscape:document-units="px" inkscape:pageopacity="0.0" inkscape:pageshadow="2" inkscape:window-height="1017" inkscape:window-maximized="1" inkscape:window-width="1920" inkscape:window-x="-8" inkscape:window-y="-8" inkscape:zoom="0.98994949" pagecolor="#ffffff" showgrid="true" showguides="false">
		<inkscape:grid  id="grid4169" type="xygrid"></inkscape:grid>
	</sodipodi:namedview>
	
		<path id="path4236" inkscape:connector-curvature="0" inkscape:export-xdpi="240" inkscape:export-ydpi="240" sodipodi:nodetypes="cccccc" class="st0" d="
		M28.4,44.2h488.5v247.6c-64,168-240,240-240,240s-176-72-248-240L28.4,44.2z"/>
	<path id="path4236-2_3_" inkscape:connector-curvature="0" sodipodi:nodetypes="cccccc" class="st1" d="M266.6,510.2
		c0,0-154.2-62.1-221.3-218.7L44.9,60.8h217.8"/>
	<path id="path4236-2_1_" inkscape:connector-curvature="0" sodipodi:nodetypes="cccccc" class="st2" d="M282.7,60.8h217.8v230.7
		c-59.7,156.5-213.9,218.6-213.9,218.6"/>
</g>
<g id="Layer_2">
	<g>
		<circle id="path8598_1_" class="st3" cx="369.5" cy="217.1" r="93.7"/>
		<polyline class="st3" points="347.5,133.6 347.5,104.2 391.4,104.2 391.4,133.6 		"/>
		<circle id="path8598_2_" class="st4" cx="369.5" cy="217.1" r="69.4"/>
		<polyline class="st3" points="391.4,300.6 391.4,330 347.5,330 347.5,300.6 		"/>
		<polyline class="st3" points="452.9,195.1 482.4,195.1 482.4,239.1 452.9,239.1 		"/>
		<polyline class="st3" points="286,239.1 256.5,239.1 256.5,195.1 286,195.1 		"/>
		<polyline class="st3" points="294.9,173.6 274,152.8 305.1,121.7 326,142.5 		"/>
		<polyline class="st3" points="444,260.6 464.9,281.4 433.8,312.5 412.9,291.7 		"/>
		<polyline class="st3" points="412.9,142.5 433.8,121.7 464.9,152.8 444,173.6 		"/>
		<polyline class="st3" points="326,291.7 305.1,312.5 274,281.4 294.9,260.6 		"/>
	</g>
</g>
<g id="Layer_3">
	<g>
		<g>
			<line class="st5" x1="179.2" y1="220.1" x2="205.2" y2="217.6"/>
			<circle class="st5" cx="179.2" cy="220.1" r="21.8"/>
			<circle class="st5" cx="179.2" cy="220.1" r="26.1"/>
			<polyline class="st5" points="179.2,220.1 284.4,247.9 179.2,220.1 74,192.2 179.2,220.1 151.4,325.3 179.2,220.1 207,114.9 
				179.2,220.1 226.5,230 179.2,220.1 131.9,210.2 179.2,220.1 169.3,267.4 179.2,220.1 189.1,172.8 179.2,220.1 215.3,213.1 
				179.2,220.1 143,227.1 179.2,220.1 186.2,256.2 179.2,220.1 172.2,183.9 179.2,220.1 201.9,248.6 179.2,220.1 156.5,191.6 
				179.2,220.1 150.7,242.8 179.2,220.1 207.7,197.4 179.2,220.1 272.7,243.4 179.2,220.1 85.7,196.8 179.2,220.1 155.9,313.6 
				179.2,220.1 202.5,126.6 179.2,220.1 300,260.6 179.2,220.1 58.4,179.5 179.2,220.1 138.6,340.9 179.2,220.1 219.7,99.3 
				179.2,220.1 207,240 179.2,220.1 151.4,200.2 179.2,220.1 159.3,247.9 179.2,220.1 199.1,192.3 179.2,220.1 241.3,261.6 
				179.2,220.1 117,178.6 179.2,220.1 137.7,282.2 179.2,220.1 220.7,157.9 179.2,220.1 227.7,254.2 179.2,220.1 130.7,186 
				179.2,220.1 145.1,268.6 179.2,220.1 213.3,171.6 179.2,220.1 245.1,193 179.2,220.1 113.3,247.1 179.2,220.1 206.2,286 
				179.2,220.1 152.1,154.2 179.2,220.1 257.9,273.5 179.2,220.1 100.4,166.6 179.2,220.1 125.7,298.8 179.2,220.1 232.6,141.3 
				179.2,220.1 295.8,168.7 179.2,220.1 62.6,271.5 179.2,220.1 230.6,336.7 179.2,220.1 127.8,103.4 179.2,220.1 236,229.2 
				179.2,220.1 122.4,211 179.2,220.1 170.1,276.9 179.2,220.1 188.3,163.3 179.2,220.1 185.4,217.6 179.2,220.1 173,222.6 
				179.2,220.1 181.7,226.3 179.2,220.1 176.7,213.9 179.2,220.1 226.7,250.7 179.2,220.1 131.6,189.5 179.2,220.1 148.6,267.6 
				179.2,220.1 209.8,172.5 			"/>
			<radialGradient id="SVGID_1_" cx="179.1846" cy="220.0811" r="52.224" gradientUnits="userSpaceOnUse">
				<stop  offset="0" style="stop-color:#000000"/>
				<stop  offset="0.73" style="stop-color:#93432A"/>
				<stop  offset="1" style="stop-color:#000000"/>
			</radialGradient>
			<circle class="st6" cx="179.2" cy="220.1" r="52.2"/>
			<radialGradient id="SVGID_2_" cx="179.1846" cy="220.0811" r="26.112" gradientUnits="userSpaceOnUse">
				<stop  offset="0.15" style="stop-color:#FFFFFF"/>
				<stop  offset="0.2134" style="stop-color:#D7C0BE"/>
				<stop  offset="0.2931" style="stop-color:#B68A8A"/>
				<stop  offset="0.362" style="stop-color:#A16A6B"/>
				<stop  offset="0.4166" style="stop-color:#95585B"/>
				<stop  offset="0.45" style="stop-color:#915155"/>
				<stop  offset="0.5442" style="stop-color:#78312E"/>
				<stop  offset="0.6472" style="stop-color:#5C0E05"/>
				<stop  offset="0.7362" style="stop-color:#410000"/>
				<stop  offset="0.8068" style="stop-color:#200000"/>
				<stop  offset="0.85" style="stop-color:#000000"/>
				<stop  offset="0.856" style="stop-color:#120000"/>
				<stop  offset="0.8623" style="stop-color:#300000"/>
				<stop  offset="0.8686" style="stop-color:#470000"/>
				<stop  offset="0.875" style="stop-color:#5C0000"/>
				<stop  offset="0.8815" style="stop-color:#751400"/>
				<stop  offset="0.888" style="stop-color:#912A15"/>
				<stop  offset="0.8945" style="stop-color:#B44126"/>
				<stop  offset="0.9" style="stop-color:#D65836"/>
				<stop  offset="0.9063" style="stop-color:#BD472B"/>
				<stop  offset="0.916" style="stop-color:#9D311B"/>
				<stop  offset="0.9262" style="stop-color:#801D09"/>
				<stop  offset="0.9367" style="stop-color:#690900"/>
				<stop  offset="0.9475" style="stop-color:#530000"/>
				<stop  offset="0.9588" style="stop-color:#410000"/>
				<stop  offset="0.9707" style="stop-color:#290000"/>
				<stop  offset="0.9838" style="stop-color:#0F0000"/>
				<stop  offset="1" style="stop-color:#000000"/>
			</radialGradient>
			<circle class="st7" cx="179.2" cy="220.1" r="26.1"/>
			<radialGradient id="SVGID_3_" cx="179.1846" cy="220.0811" r="21.76" gradientUnits="userSpaceOnUse">
				<stop  offset="0.15" style="stop-color:#FFFFFF"/>
				<stop  offset="0.2824" style="stop-color:#9C9593"/>
				<stop  offset="0.4253" style="stop-color:#5A5250"/>
				<stop  offset="0.5636" style="stop-color:#302A28"/>
				<stop  offset="0.6936" style="stop-color:#0F0704"/>
				<stop  offset="0.8134" style="stop-color:#000000"/>
				<stop  offset="0.9192" style="stop-color:#000000"/>
				<stop  offset="1" style="stop-color:#000000"/>
			</radialGradient>
			<circle class="st8" cx="179.2" cy="220.1" r="21.8"/>
			<polyline class="st9" points="179.2,220.1 284.4,247.9 179.2,220.1 74,192.2 179.2,220.1 151.4,325.3 179.2,220.1 207,114.9 
				179.2,220.1 226.5,230 179.2,220.1 131.9,210.2 179.2,220.1 169.3,267.4 179.2,220.1 189.1,172.8 179.2,220.1 215.3,213.1 
				179.2,220.1 143,227.1 179.2,220.1 186.2,256.2 179.2,220.1 172.2,183.9 179.2,220.1 201.9,248.6 179.2,220.1 156.5,191.6 
				179.2,220.1 150.7,242.8 179.2,220.1 207.7,197.4 179.2,220.1 272.7,243.4 179.2,220.1 85.7,196.8 179.2,220.1 155.9,313.6 
				179.2,220.1 202.5,126.6 179.2,220.1 300,260.6 179.2,220.1 58.4,179.5 179.2,220.1 138.6,340.9 179.2,220.1 219.7,99.3 
				179.2,220.1 207,240 179.2,220.1 151.4,200.2 179.2,220.1 159.3,247.9 179.2,220.1 199.1,192.3 179.2,220.1 241.3,261.6 
				179.2,220.1 117,178.6 179.2,220.1 137.7,282.2 179.2,220.1 220.7,157.9 179.2,220.1 227.7,254.2 179.2,220.1 130.7,186 
				179.2,220.1 145.1,268.6 179.2,220.1 213.3,171.6 179.2,220.1 245.1,193 179.2,220.1 113.3,247.1 179.2,220.1 206.2,286 
				179.2,220.1 152.1,154.2 179.2,220.1 257.9,273.5 179.2,220.1 100.4,166.6 179.2,220.1 125.7,298.8 179.2,220.1 232.6,141.3 
				179.2,220.1 295.8,168.7 179.2,220.1 62.6,271.5 179.2,220.1 230.6,336.7 179.2,220.1 127.8,103.4 179.2,220.1 236,229.2 
				179.2,220.1 122.4,211 179.2,220.1 170.1,276.9 179.2,220.1 188.3,163.3 179.2,220.1 185.4,217.6 179.2,220.1 173,222.6 
				179.2,220.1 181.7,226.3 179.2,220.1 176.7,213.9 179.2,220.1 226.7,250.7 179.2,220.1 131.6,189.5 179.2,220.1 148.6,267.6 
				179.2,220.1 209.8,172.5 			"/>
		</g>
		
			<ellipse transform="matrix(0.5255 -0.8508 0.8508 0.5255 -103.2758 256.4694)" class="st10" cx="178.3" cy="220.8" rx="67.4" ry="112.2"/>
		
			<ellipse transform="matrix(1.647217e-03 -1 1 1.647217e-03 -42.8205 398.762)" class="st10" cx="178.3" cy="220.8" rx="112.2" ry="67.4"/>
		
			<ellipse transform="matrix(0.8913 -0.4533 0.4533 0.8913 -80.7342 104.8239)" class="st10" cx="178.3" cy="220.8" rx="112.2" ry="67.4"/>
		
			<ellipse transform="matrix(0.5255 -0.8508 0.8508 0.5255 -103.2758 256.4694)" class="st11" cx="178.3" cy="220.8" rx="67.4" ry="112.2"/>
		
			<ellipse transform="matrix(1.647217e-03 -1 1 1.647217e-03 -42.8205 398.762)" class="st11" cx="178.3" cy="220.8" rx="112.2" ry="67.4"/>
		
			<ellipse transform="matrix(0.8913 -0.4533 0.4533 0.8913 -80.7342 104.8239)" class="st11" cx="178.3" cy="220.8" rx="112.2" ry="67.4"/>
	</g>
</g>
</svg>
