<?xml version="1.0" encoding="UTF-8" standalone="no"?>
<!-- Generator: Adobe Illustrator 23.0.3, SVG Export Plug-In . SVG Version: 6.00 Build 0)  -->

<svg
   xmlns:dc="http://purl.org/dc/elements/1.1/"
   xmlns:cc="http://creativecommons.org/ns#"
   xmlns:rdf="http://www.w3.org/1999/02/22-rdf-syntax-ns#"
   xmlns:svg="http://www.w3.org/2000/svg"
   xmlns="http://www.w3.org/2000/svg"
   xmlns:sodipodi="http://sodipodi.sourceforge.net/DTD/sodipodi-0.dtd"
   xmlns:inkscape="http://www.inkscape.org/namespaces/inkscape"
   version="1.1"
   x="0px"
   y="0px"
   viewBox="0 0 552.8 552.8"
   style="enable-background:new 0 0 552.8 552.8;"
   xml:space="preserve"
   id="svg4136"
   inkscape:version="0.91 r13725"
   sodipodi:docname="tracker.svg"
   inkscape:export-filename="E:\Sites\mass-effect\masseffect-5e\assets\images\classes\tracker.png"
   inkscape:export-xdpi="120.53"
   inkscape:export-ydpi="120.53"><metadata
     id="metadata4188"><rdf:RDF><cc:Work
         rdf:about=""><dc:format>image/svg+xml</dc:format><dc:type
           rdf:resource="http://purl.org/dc/dcmitype/StillImage" /><dc:title></dc:title></cc:Work></rdf:RDF></metadata><defs
     id="defs4186" /><sodipodi:namedview
     pagecolor="#ffffff"
     bordercolor="#666666"
     borderopacity="1"
     objecttolerance="10"
     gridtolerance="10"
     guidetolerance="10"
     inkscape:pageopacity="0"
     inkscape:pageshadow="2"
     inkscape:window-width="2560"
     inkscape:window-height="1377"
     id="namedview4184"
     showgrid="false"
     inkscape:zoom="2.1852388"
     inkscape:cx="276.39999"
     inkscape:cy="276.39999"
     inkscape:window-x="-8"
     inkscape:window-y="-8"
     inkscape:window-maximized="1"
     inkscape:current-layer="bg" /><style
     type="text/css"
     id="style4138">
	
		.st0{fill-rule:evenodd;clip-rule:evenodd;fill:#081826;stroke:#081826;stroke-width:10;stroke-linecap:round;stroke-linejoin:round;}
	.st1{fill:none;stroke:#C5791E;stroke-width:15;stroke-linecap:round;stroke-linejoin:round;}
	.st2{fill:#FFFFFF;}
	.st3{fill:#081826;}
</style><g
     id="bg"
     inkscape:version="0.91 r13725"
     sodipodi:docname="adept.svg"><sodipodi:namedview
       bordercolor="#666666"
       borderopacity="1.0"
       id="base"
       inkscape:current-layer="layer1"
       inkscape:cx="-129.55511"
       inkscape:cy="304.64766"
       inkscape:document-units="px"
       inkscape:pageopacity="0.0"
       inkscape:pageshadow="2"
       inkscape:window-height="1017"
       inkscape:window-maximized="1"
       inkscape:window-width="1920"
       inkscape:window-x="-8"
       inkscape:window-y="-8"
       inkscape:zoom="0.98994949"
       pagecolor="#ffffff"
       showgrid="true"
       showguides="false"><inkscape:grid
         id="grid4169"
         type="xygrid" /></sodipodi:namedview><path
       id="path4236"
       inkscape:connector-curvature="0"
       inkscape:export-xdpi="240"
       inkscape:export-ydpi="240"
       sodipodi:nodetypes="cccccc"
       class="st0"
       d="   M28.4,44.2h488.5v247.6c-64,168-240,240-240,240s-176-72-248-240L28.4,44.2z" /><path
       id="path4236-2"
       inkscape:connector-curvature="0"
       sodipodi:nodetypes="cccccc"
       class="st1"
       d="M44.8,60.8h455.7v230.7   c-59.7,156.5-223.9,223.6-223.9,223.6S112.5,448.1,45.3,291.5L44.8,60.8z"
       style="stroke:#22b14c;stroke-opacity:1;fill:#000000;fill-opacity:0" /><path
       style="fill:#ffffff;fill-opacity:1;stroke-width:1;stroke-miterlimit:4;stroke-dasharray:none"
       d="m 239.9376,422.17787 c -2.54142,-1.09039 -18.90494,-17.76889 -18.90494,-19.26884 0,-0.55793 -1.23923,-2.34456 -2.75385,-3.97031 -6.73736,-7.23173 -9.03126,-16.44797 -6.04727,-24.29643 1.75813,-4.62424 11.61695,-14.62874 21.88916,-22.21261 4.39903,-3.24776 11.88725,-9.93022 16.64046,-14.8499 4.75322,-4.91969 9.7703,-8.94489 11.14907,-8.94489 1.37877,0 2.76934,-0.78747 3.09016,-1.74994 0.33352,-1.00056 2.98526,-1.68187 6.19225,-1.59097 6.18628,0.17537 9.21549,2.96651 13.50368,12.44245 1.36046,3.00628 3.78912,5.88109 5.39705,6.38847 2.8801,0.90884 8.01328,5.85792 8.01328,7.72591 0,1.36727 4.20732,5.61371 12.99841,13.11925 8.26698,7.05808 11.72343,12.36761 11.72343,18.00864 0,4.34832 -3.94588,20.85807 -5.96371,24.95243 -2.02275,4.10435 -9.28494,7.05916 -14.10707,5.73984 -6.73632,-1.84304 -16.68976,-1.3242 -25.01023,1.30371 -4.39903,1.38937 -9.63425,2.91529 -11.63381,3.39091 -1.99956,0.47562 -4.00988,1.4354 -4.46738,2.13281 -1.0373,1.5813 -18.74464,2.95121 -21.70869,1.67947 z m 93.11429,-51.67947 c -1.6764,-3.56637 -5.31686,-8.68339 -8.08992,-11.37115 -2.77306,-2.68776 -5.04193,-5.92174 -5.04193,-7.18664 0,-4.09302 15.27596,-32.60798 20.53776,-38.3369 1.9564,-2.13009 3.04961,-2.35073 5.40405,-1.09067 1.62332,0.86877 6.24351,1.57959 10.26707,1.57959 6.00476,0 7.61637,0.56206 8.99434,3.13681 1.77741,3.32113 0.8696,16.76498 -1.43635,21.27085 -0.70242,1.37254 -2.44153,7.40354 -3.86468,13.40222 -4.03555,17.01016 -8.44255,23.03076 -17.77441,24.28242 -5.86558,0.78674 -5.99015,0.70799 -8.99593,-5.68653 z m -148.01133,-12.29009 -9.08891,-9.62612 0,-19.44585 c 0,-10.69522 0.55812,-20.58217 1.24025,-21.97102 0.68215,-1.38884 2.35148,-4.84971 3.70964,-7.69083 1.35816,-2.84114 4.27773,-7.28444 6.4879,-9.87404 5.11638,-5.99468 8.59218,-4.9818 9.8477,2.86975 0.50046,3.12972 1.47838,6.04172 2.17314,6.47111 0.69477,0.42939 1.26321,2.24142 1.26321,4.02673 0,1.92615 2.36522,5.42071 5.81691,8.59434 3.1993,2.94158 5.8169,6.35026 5.8169,7.57485 0,1.2246 0.65441,2.22653 1.45423,2.22653 0.79982,0 1.45423,1.63601 1.45423,3.63557 0,1.99956 0.54414,3.63556 1.20921,3.63556 1.04292,0 2.65469,4.94184 5.45438,16.7236 0.49111,2.06674 -1.53048,5.22318 -6.98536,10.9067 -14.27961,14.87814 -17.44571,15.08422 -29.85343,1.94312 z m 107.44073,-27.5879 c -11.17161,-11.24633 -17.95185,-21.67847 -15.31965,-23.57091 1.86389,-1.34006 4.58229,-9.87337 5.7476,-18.04227 0.54196,-3.79916 1.56548,-6.90757 2.27448,-6.90757 0.70901,0 1.28912,-1.83233 1.28912,-4.07184 0,-2.2395 0.54392,-4.69351 1.20872,-5.45334 0.6648,-0.75984 2.4539,-6.78033 3.97578,-13.37888 1.52189,-6.59855 3.19742,-11.99737 3.72342,-11.99737 0.526,0 1.37789,-1.67949 1.89308,-3.73218 1.3429,-5.35055 5.45905,-3.99725 6.93529,2.28018 2.49679,10.61713 4.76671,16.89853 8.00284,22.14583 1.83996,2.98344 3.34539,6.09185 3.34539,6.90757 0,0.81572 0.4908,1.48727 1.09067,1.49231 1.46294,0.0116 6.18046,8.42031 6.18046,11.01536 0,1.13492 0.56936,2.06349 1.26523,2.06349 0.69588,0 2.10034,2.9827 3.12102,6.62822 1.48699,5.31099 1.4986,8.22433 0.0585,14.65974 -3.28187,14.66489 -12.25734,28.75679 -19.39062,30.44416 -3.60922,0.85374 -5.24897,-0.26232 -15.40124,-10.4825 z m -64.86727,0.99515 c -1.22027,-2.35975 -2.21868,-5.63176 -2.21868,-7.27113 0,-1.63936 -0.6544,-2.98067 -1.45423,-2.98067 -0.79982,0 -1.45422,-1.27018 -1.45422,-2.82262 0,-1.55244 -0.58023,-3.18122 -1.28938,-3.61951 -0.70915,-0.43828 -1.72041,-3.09451 -2.24723,-5.90272 -0.52682,-2.80823 -1.58262,-5.10586 -2.34619,-5.10586 -1.7943,0 -1.81106,-15.25559 -0.0204,-18.56112 0.75236,-1.38884 2.44463,-7.21153 3.7606,-12.93934 2.3953,-10.42556 5.61989,-15.03222 13.45895,-19.22756 1.6179,-0.86587 5.35174,-4.85753 8.29742,-8.87036 2.94568,-4.0128 5.86555,-7.29602 6.48859,-7.29602 1.70798,0 5.88768,11.85814 5.91179,16.77221 0.0199,4.06121 2.78094,13.81496 5.74938,20.31055 0.73103,1.59965 1.7027,7.16207 2.15928,12.36093 0.45657,5.19885 1.19654,12.72447 1.64438,16.7236 0.84366,7.53376 0.0346,9.16441 -7.57806,15.27338 -11.6624,9.35882 -18.79415,15.43279 -19.20449,16.35604 -0.26661,0.59986 -2.04941,1.09066 -3.96178,1.09066 -2.37955,0 -4.17734,-1.35424 -5.69572,-4.29046 z m 121.09532,-19.97055 c -4.60858,-1.20542 -4.51479,-5.83611 0.2185,-10.78905 2.44167,-2.55497 4.4394,-5.156 4.4394,-5.78008 0,-0.62407 0.86206,-1.99942 1.91569,-3.05632 2.40784,-2.41534 5.35544,-10.7488 5.35544,-15.14088 0,-3.11619 2.33329,-6.0185 3.72205,-4.62975 0.34104,0.34105 1.29314,4.16905 2.11575,8.50667 1.83537,9.67786 0.42506,23.6605 -2.75286,27.29353 -2.42789,2.77559 -10.63504,4.74121 -15.01397,3.59588 z M 178.13299,295.18769 c 0.49432,-0.79982 0.12564,-1.45422 -0.81936,-1.45422 -1.20225,0 -1.26929,-0.54579 -0.22328,-1.81779 0.82216,-0.99978 2.6306,-5.74419 4.01874,-10.54314 2.46942,-8.53704 6.98673,-14.28439 12.65683,-16.10324 1.39969,-0.44899 2.5449,-1.40363 2.5449,-2.12141 0,-0.71779 1.3785,-2.04282 3.06335,-2.94453 2.98803,-1.59914 3.03803,-1.44845 2.03327,6.1293 -0.56655,4.27281 -1.61785,8.39044 -2.33624,9.15027 -0.71839,0.75983 -1.30616,2.55944 -1.30616,3.99912 0,1.69611 -1.08347,2.61761 -3.07772,2.61761 -2.93475,0 -14.37299,10.5587 -14.37299,13.26778 0,0.70096 -0.69303,1.27448 -1.54006,1.27448 -0.84702,0 -1.1356,-0.6544 -0.64128,-1.45423 z m 134.03118,-37.32514 c -0.53322,-0.53321 -0.96949,-2.4578 -0.96949,-4.27685 0,-1.81905 -0.5662,-3.65731 -1.25822,-4.08499 -0.69203,-0.42769 -1.64772,-3.17776 -2.12376,-6.11126 -0.47604,-2.93351 -2.34034,-6.90351 -4.14291,-8.82226 -2.75746,-2.93519 -2.99729,-3.93712 -1.51182,-6.31575 0.97108,-1.55493 1.76558,-4.70157 1.76558,-6.99255 0,-5.88446 2.84253,-13.32477 5.09068,-13.32477 1.04373,0 3.64697,4.41722 5.78497,9.81603 3.02607,7.64132 4.06955,13.27944 4.70999,25.44896 l 0.82273,15.63293 -3.59914,0 c -1.97952,0 -4.0354,-0.43627 -4.56861,-0.96949 z m -88.95565,-6.31053 c -0.57745,-0.93431 -0.32165,-2.42703 0.56845,-3.31712 0.89011,-0.8901 1.61837,-3.39013 1.61837,-5.55562 0,-4.74579 10.50943,-25.43059 14.82019,-29.1693 6.33095,-5.4908 8.04791,-3.76094 9.20146,9.27054 0.73928,8.35155 0.56891,12.10055 -0.56712,12.47923 -0.89313,0.29771 -5.06337,4.04408 -9.26719,8.3253 -7.74119,7.88366 -14.41791,11.13227 -16.37416,7.96697 z m 131.61294,-10.17069 c 0,-4.84742 0.64632,-8.72536 1.45423,-8.72536 0.94452,0 1.45423,-19.79363 1.45423,-56.47244 0,-31.05986 0.40221,-56.87467 0.89379,-57.36626 0.88817,-0.88817 6.23296,2.08946 11.10299,6.1856 2.30533,1.93897 2.54548,5.73818 2.54548,40.26894 0,23.85001 -0.54458,38.46455 -1.45423,39.02675 -0.79982,0.49432 -1.48294,3.96855 -1.51805,7.72052 -0.0351,3.75196 -1.00686,9.43935 -2.15945,12.63865 -1.15258,3.19929 -2.10546,6.9621 -2.1175,8.3618 -0.0116,1.39969 -0.53225,2.54489 -1.156,2.54489 -0.62374,0 -2.40382,3.27201 -3.95569,7.27113 -1.55188,3.99912 -3.33196,7.27113 -3.9557,7.27113 -0.62375,0 -1.1341,-3.92641 -1.1341,-8.72535 z m -166.34151,-4.27238 c -1.29179,-3.94944 -2.34872,-9.38098 -2.34872,-12.07007 0,-2.68908 -0.62984,-5.5191 -1.39965,-6.2889 -0.79015,-0.79016 -1.4977,-14.37349 -1.62483,-31.19316 -0.1239,-16.38642 -1.09188,-37.31912 -2.15114,-46.5171 -2.90191,-25.19846 -3.11429,-23.90377 4.63167,-28.23309 3.69996,-2.06793 7.29917,-3.75988 7.99824,-3.75988 1.51699,0 1.60358,24.9575 0.3065,88.34424 -0.52783,25.79433 -1.43301,46.89879 -2.01152,46.89879 -0.57849,0 -2.10874,-3.23136 -3.40055,-7.18083 z m 50.63818,-45.60204 c -3.18217,-3.65076 -6.19003,-27.72929 -9.30174,-74.46192 -1.52618,-22.920835 -1.1481,-23.994735 8.44761,-23.994735 l 5.04166,0 -1.13617,32.356535 c -0.6249,17.79609 -0.9927,40.37295 -0.81735,50.1708 0.17535,9.79785 0.0925,17.78938 -0.18431,17.75895 -0.27671,-0.0304 -1.19908,-0.85376 -2.0497,-1.82963 z m 64.90357,-2.7201 c -0.054,-1.33303 -0.7608,-2.64458 -1.5707,-2.91456 -1.49422,-0.49807 -2.23526,-88.897885 -0.76515,-91.276555 0.39866,-0.64507 4.33725,-0.16739 8.7524,1.06151 l 8.02756,2.23434 0,8.400225 c 0,4.62014 -0.6544,8.80467 -1.45422,9.299 -0.79983,0.49432 -1.44968,3.64135 -1.44412,6.9934 0.0116,6.97701 -3.96337,34.43241 -5.95028,41.09931 -0.73202,2.45626 -1.35984,6.38267 -1.39514,8.72535 -0.0712,4.72964 -4.04465,20.22266 -4.20035,16.37798 z"
       id="path4771"
       inkscape:connector-curvature="0" /></g><g
     id="Layer_3" /></svg>