<?xml version="1.0" encoding="UTF-8" standalone="no"?>
<!-- Generator: Adobe Illustrator 23.0.3, SVG Export Plug-In . SVG Version: 6.00 Build 0)  -->

<svg
   xmlns:dc="http://purl.org/dc/elements/1.1/"
   xmlns:cc="http://creativecommons.org/ns#"
   xmlns:rdf="http://www.w3.org/1999/02/22-rdf-syntax-ns#"
   xmlns:svg="http://www.w3.org/2000/svg"
   xmlns="http://www.w3.org/2000/svg"
   xmlns:sodipodi="http://sodipodi.sourceforge.net/DTD/sodipodi-0.dtd"
   xmlns:inkscape="http://www.inkscape.org/namespaces/inkscape"
   version="1.1"
   x="0px"
   y="0px"
   viewBox="0 0 552.8 552.8"
   style="enable-background:new 0 0 552.8 552.8;"
   xml:space="preserve"
   id="svg10279"
   inkscape:version="0.91 r13725"
   sodipodi:docname="musician.svg"
   inkscape:export-filename="E:\Sites\mass-effect\masseffect-5e\assets\images\classes\musician.png"
   inkscape:export-xdpi="120.53"
   inkscape:export-ydpi="120.53"><metadata
     id="metadata10331"><rdf:RDF><cc:Work
         rdf:about=""><dc:format>image/svg+xml</dc:format><dc:type
           rdf:resource="http://purl.org/dc/dcmitype/StillImage" /><dc:title /></cc:Work></rdf:RDF></metadata><defs
     id="defs10329" /><sodipodi:namedview
     pagecolor="#ffffff"
     bordercolor="#666666"
     borderopacity="1"
     objecttolerance="10"
     gridtolerance="10"
     guidetolerance="10"
     inkscape:pageopacity="0"
     inkscape:pageshadow="2"
     inkscape:window-width="2560"
     inkscape:window-height="1377"
     id="namedview10327"
     showgrid="false"
     inkscape:zoom="1.2075051"
     inkscape:cx="251.98813"
     inkscape:cy="127.63972"
     inkscape:window-x="-8"
     inkscape:window-y="-8"
     inkscape:window-maximized="1"
     inkscape:current-layer="svg10279" /><style
     type="text/css"
     id="style10281">
	
		.st0{fill-rule:evenodd;clip-rule:evenodd;fill:#081826;stroke:#081826;stroke-width:10;stroke-linecap:round;stroke-linejoin:round;}
	.st1{fill:none;stroke:#C5791E;stroke-width:15;stroke-linecap:round;stroke-linejoin:round;}
	.st2{fill:#FFFFFF;}
	.st3{fill:#081826;}
</style><g
     id="bg"
     inkscape:version="0.91 r13725"
     sodipodi:docname="adept.svg"><sodipodi:namedview
       bordercolor="#666666"
       borderopacity="1.0"
       id="base"
       inkscape:current-layer="layer1"
       inkscape:cx="-129.55511"
       inkscape:cy="304.64766"
       inkscape:document-units="px"
       inkscape:pageopacity="0.0"
       inkscape:pageshadow="2"
       inkscape:window-height="1017"
       inkscape:window-maximized="1"
       inkscape:window-width="1920"
       inkscape:window-x="-8"
       inkscape:window-y="-8"
       inkscape:zoom="0.98994949"
       pagecolor="#ffffff"
       showgrid="true"
       showguides="false"><inkscape:grid
         id="grid4169"
         type="xygrid" /></sodipodi:namedview><path
       id="path4236"
       inkscape:connector-curvature="0"
       inkscape:export-xdpi="240"
       inkscape:export-ydpi="240"
       sodipodi:nodetypes="cccccc"
       class="st0"
       d="   M28.4,44.2h488.5v247.6c-64,168-240,240-240,240s-176-72-248-240L28.4,44.2z" /><path
       id="path4236-2"
       inkscape:connector-curvature="0"
       sodipodi:nodetypes="cccccc"
       class="st1"
       d="M44.8,60.8h455.7v230.7   c-59.7,156.5-223.9,223.6-223.9,223.6S112.5,448.1,45.3,291.5L44.8,60.8z"
       style="stroke:#64ffda;stroke-opacity:1" /></g><g
     id="Layer_3" /><g
     id="Layer_2"
     transform="matrix(2.1048456,0,0,2.1048456,-91.947986,-111.14266)"><g
       id="g10290"><circle
         id="path8598_2_"
         class="st3"
         cx="175"
         cy="179.3"
         r="59.700001"
         style="fill:#081826" /><polyline
         class="st2"
         points="141.8,236.2 125.9,252.1 102.2,228.4 118.1,212.5   "
         id="polyline10308"
         style="fill:#ffffff"
         transform="matrix(0.87083675,0,0,0.87083675,19.495702,26.660287)" /></g></g><path
     style="fill:#ffffff;fill-opacity:1"
     d="m 315.20566,400.46767 c -8.23793,-3.38339 -11.61948,-7.57991 -11.61948,-14.41998 0,-11.25109 15.06804,-21.36869 28.52052,-19.1505 1.93658,0.31929 3.91717,0.59949 4.40131,0.62252 0.69661,0.0332 0.88026,-10.75427 0.88026,-51.70404 l 0,-51.74603 1.58448,-0.36944 c 0.87146,-0.20321 11.40821,-1.9647 23.41499,-3.91442 12.00678,-1.94973 30.46452,-4.95846 41.01719,-6.68607 10.55265,-1.72761 19.34648,-3.1411 19.54183,-3.1411 0.19534,0 0.35517,26.56163 0.35517,59.02588 0,64.57319 0.0899,63.07167 -4.12721,68.89324 -2.40713,3.32295 -7.91296,7.01781 -12.5846,8.44524 -4.54049,1.38743 -12.69202,1.36117 -16.95439,-0.0542 -4.15687,-1.38073 -8.68336,-5.08939 -10.25567,-8.40284 -3.71748,-7.83399 1.18922,-17.84363 11.17609,-22.79916 5.78313,-2.86958 15.6226,-3.81133 20.24605,-1.9377 1.16404,0.47175 1.23236,-1.48047 1.23236,-35.21488 l 0,-35.71429 -1.58446,0.37399 c -0.87147,0.2057 -15.0525,2.8146 -31.51342,5.79758 -16.46091,2.98297 -30.08738,5.56877 -30.28104,5.74625 -0.19365,0.17745 -0.51055,20.97393 -0.70421,46.2143 l -0.3521,45.89161 -1.90967,3.24839 c -2.42831,4.13069 -5.65725,6.95866 -10.84081,9.4948 -3.50446,1.71453 -5.08384,2.03403 -10.81709,2.18826 -4.12037,0.11084 -7.52949,-0.15457 -8.8261,-0.6871 z m -46.47789,-25.57439 c -35.02383,-3.42668 -63.84583,-20.56378 -82.80068,-49.23204 -7.21071,-10.90589 -12.38605,-23.74516 -15.53455,-38.53904 -1.86577,-8.76677 -2.24007,-28.53005 -0.70383,-37.16359 5.37025,-30.18061 21.80579,-55.96195 46.2233,-72.50745 36.0004,-24.39416 82.55779,-25.08167 118.81136,-1.75448 7.75276,4.98846 15.01191,11.14883 21.91923,18.60139 7.56028,8.15705 11.91259,14.60201 17.37672,25.73159 4.3243,8.80798 9.51507,24.84757 8.41115,25.9907 -0.33947,0.35153 -8.1569,1.85008 -17.37207,3.33013 -9.21518,1.48005 -22.30052,3.58841 -29.07855,4.68523 l -12.32367,1.99424 -0.18068,50.39359 -0.1807,50.39357 -4.39668,0.83597 c -2.41816,0.45978 -5.8227,1.34624 -7.56563,1.96989 -4.90087,1.7537 -12.50832,7.06204 -15.00144,10.4678 -1.50875,2.06109 -3.06495,3.30634 -4.71644,3.77407 -2.69702,0.76393 -18.38528,1.46885 -22.88684,1.02843 z m 20.01644,-69.49967 c 16.75808,-4.77198 28.22197,-20.47733 28.22197,-38.66371 0,-20.80423 -14.96778,-37.61878 -35.56262,-39.95043 -12.98733,-1.47036 -25.72463,3.17466 -34.23284,12.48399 -4.86091,5.31862 -6.61884,8.24951 -8.8357,14.7313 -1.52108,4.44746 -1.87689,6.78784 -1.9023,12.51279 -0.0525,11.82686 3.46514,20.4058 11.87296,28.95622 10.6067,10.78659 25.00968,14.3233 40.43853,9.92984 z m -19.46614,-8.89691 c -7.88335,-2.00857 -16.23511,-9.03871 -20.13226,-16.94646 -2.13447,-4.33107 -2.24855,-4.97419 -2.24855,-12.67578 0,-7.70337 0.1138,-8.34446 2.25269,-12.6906 2.51766,-5.11576 7.92298,-11.07589 12.39596,-13.66827 8.05685,-4.66948 19.08468,-5.21974 27.28382,-1.36141 23.83702,11.21713 24.38795,42.9819 0.95179,54.87748 -4.87026,2.47202 -5.84989,2.71075 -11.77457,2.86943 -3.55428,0.0952 -7.48228,-0.0868 -8.72888,-0.40439 z m 15.57007,-9.03428 c 4.47242,-1.60315 8.75406,-5.42297 11.36757,-10.14144 1.90448,-3.43838 2.0889,-4.36196 2.0889,-10.46133 0,-6.1121 -0.18201,-7.01863 -2.10692,-10.49444 -3.97475,-7.17717 -11.07475,-11.4241 -19.09874,-11.4241 -6.07294,0 -9.47295,1.0757 -13.5259,4.27938 -6.35894,5.02645 -8.73361,9.79825 -8.77809,17.63916 -0.0221,3.89332 0.35761,6.14594 1.44453,8.57001 2.51962,5.61934 8.27551,11.02281 13.37844,12.55932 3.49962,1.05375 11.6031,0.77358 15.23021,-0.52656 z m 1.01388,-72.18617 c 0.95824,-3.73259 2.52559,-10.50905 7.25791,-31.37979 3.0813,-13.58928 3.55326,-16.51966 2.74138,-17.02142 -3.55508,-2.19716 -20.75503,-3.20027 -26.42933,-1.54135 -5.02996,1.47053 -4.98011,-0.30607 -0.72598,25.87446 2.13525,13.14063 4.04961,24.60506 4.25412,25.47652 0.34897,1.48698 0.7337,1.58448 6.25271,1.58448 l 5.88085,0 z"
     id="path7314-8"
     inkscape:connector-curvature="0"
     sodipodi:nodetypes="csccscssssssccsscscsscscscsccssssssssssscccscscssssssssssssssssssssssssssssssssssscs" /><path
     style="fill:#ffffff;fill-opacity:1"
     d="m 259.48045,404.37275 c -23.21566,-3.13803 -45.9746,-12.52511 -64.95026,-26.78915 -38.49968,-28.9402 -59.26736,-74.07948 -55.88132,-121.45983 4.45213,-62.29809 49.44196,-113.60747 111.37411,-127.0184 10.51789,-2.27758 32.90773,-3.16392 44.41727,-1.75833 25.42185,3.1046 50.85115,13.95009 70.90811,30.24201 16.1827,13.14492 27.60702,27.43781 37.53077,46.95448 1.76834,3.47773 4.22602,9.06759 5.46151,12.42188 2.33314,6.33439 6.8979,22.63908 6.46058,23.07639 -0.63022,0.63022 -12.34081,2.267 -12.64923,1.76797 -0.19142,-0.30974 -1.17274,-3.73721 -2.18069,-7.6166 -3.08822,-11.88595 -9.72709,-27.40837 -15.02176,-35.12262 -1.15044,-1.67614 -2.09169,-3.23074 -2.09169,-3.45464 0,-0.2239 -0.47624,-0.98497 -1.05831,-1.69126 -0.58206,-0.70629 -2.56247,-3.2526 -4.40089,-5.65845 -5.24075,-6.85833 -16.1231,-17.54203 -23.56783,-23.1376 -15.26483,-11.47331 -31.95713,-18.95866 -51.89728,-23.27237 -6.63413,-1.43518 -9.79396,-1.65849 -23.69404,-1.67449 -13.862,-0.016 -17.16062,0.20779 -24.30193,1.64848 -36.72601,7.40909 -66.13235,28.29705 -85.36901,60.63946 -7.33357,12.32985 -12.76005,27.54056 -15.48003,43.39129 -2.00746,11.6985 -1.60033,33.89787 0.82898,45.20096 11.62433,54.08598 53.87249,93.04446 108.72245,100.25678 3.44954,0.45354 11.25606,0.71827 17.34781,0.58827 l 11.07591,-0.23642 0.33827,1.82261 c 0.18604,1.00245 0.96973,3.78536 1.74151,6.1843 0.77179,2.39893 1.23404,4.53139 1.02721,4.7388 -0.67294,0.67481 -29.64458,0.6385 -34.69022,-0.0437 z"
     id="path7314"
     inkscape:connector-curvature="0"
     sodipodi:nodetypes="cssssssssssssssssssssscscssccc" /><polyline
     class="st2"
     points="141.8,236.2 125.9,252.1 102.2,228.4 118.1,212.5   "
     id="polyline10308-4"
     style="fill:#ffffff"
     transform="matrix(1.2961104,1.2961104,-1.2961104,1.2961104,267.18406,-192.95316)" /><polyline
     class="st2"
     points="141.8,236.2 125.9,252.1 102.2,228.4 118.1,212.5   "
     id="polyline10308-4-4"
     style="fill:#ffffff"
     transform="matrix(0.02538645,1.8328011,-1.8328011,0.02538645,589.12148,-71.728414)" /><polyline
     class="st2"
     points="141.8,236.2 125.9,252.1 102.2,228.4 118.1,212.5   "
     id="polyline10308-4-4-3"
     style="fill:#ffffff"
     transform="matrix(-1.2780352,1.313937,-1.313937,-1.2780352,738.5794,249.63754)" /><polyline
     class="st2"
     points="141.8,236.2 125.9,252.1 102.2,228.4 118.1,212.5   "
     id="polyline10308-4-4-3-7"
     style="fill:#ffffff"
     transform="matrix(-1.8328011,0.02538641,-0.02538641,-1.8328011,616.24685,578.77685)" /></svg>