<?xml version="1.0" encoding="UTF-8" standalone="no"?>
<!-- Created with Inkscape (http://www.inkscape.org/) -->

<svg
   xmlns:dc="http://purl.org/dc/elements/1.1/"
   xmlns:cc="http://creativecommons.org/ns#"
   xmlns:rdf="http://www.w3.org/1999/02/22-rdf-syntax-ns#"
   xmlns:svg="http://www.w3.org/2000/svg"
   xmlns="http://www.w3.org/2000/svg"
   xmlns:sodipodi="http://sodipodi.sourceforge.net/DTD/sodipodi-0.dtd"
   xmlns:inkscape="http://www.inkscape.org/namespaces/inkscape"
   width="195mm"
   height="195mm"
   viewBox="0 0 690.94484 690.94472"
   id="svg2"
   version="1.1"
   inkscape:version="0.91 r13725"
   sodipodi:docname="soldier.svg"
   inkscape:export-filename="G:\Pictures\Projects\ME Logo\soldier.png"
   inkscape:export-xdpi="240"
   inkscape:export-ydpi="240">
  <defs
     id="defs4" />
  <sodipodi:namedview
     id="base"
     pagecolor="#ffffff"
     bordercolor="#666666"
     borderopacity="1.0"
     inkscape:pageopacity="0.0"
     inkscape:pageshadow="2"
     inkscape:zoom="0.98994949"
     inkscape:cx="91.333414"
     inkscape:cy="366.42742"
     inkscape:document-units="px"
     inkscape:current-layer="layer1"
     showgrid="false"
     showguides="false"
     inkscape:window-width="1920"
     inkscape:window-height="1017"
     inkscape:window-x="-8"
     inkscape:window-y="-8"
     inkscape:window-maximized="1">
    <inkscape:grid
       type="xygrid"
       id="grid4169" />
  </sodipodi:namedview>
  <metadata
     id="metadata7">
    <rdf:RDF>
      <cc:Work
         rdf:about="">
        <dc:format>image/svg+xml</dc:format>
        <dc:type
           rdf:resource="http://purl.org/dc/dcmitype/StillImage" />
        <dc:title />
      </cc:Work>
    </rdf:RDF>
  </metadata>
  <g
     inkscape:label="Layer 1"
     inkscape:groupmode="layer"
     id="layer1"
     transform="translate(0,-361.41754)">
    <path
       style="fill:#021626;fill-rule:evenodd;stroke:#000000;stroke-width:0;stroke-linecap:butt;stroke-linejoin:miter;stroke-opacity:0;stroke-miterlimit:4;stroke-dasharray:none;fill-opacity:1"
       d="m 39.395949,402.83428 610.604051,0 0,309.52809 C 569.99993,922.3623 350,1012.3624 350,1012.3624 c 0,0 -220.00002,-90.0001 -310,-300.0207 z"
       id="path4236"
       inkscape:connector-curvature="0"
       sodipodi:nodetypes="cccccc" />
    <path
       style="fill:none;fill-opacity:1;fill-rule:evenodd;stroke:#d42620;stroke-width:28.85372353;stroke-linecap:butt;stroke-linejoin:miter;stroke-miterlimit:4;stroke-dasharray:none;stroke-opacity:1"
       d="m 53.533569,416.85029 581.751921,0 0,294.60255 c -76.21992,199.87368 -285.82446,285.53401 -285.82446,285.53401 0,0 -209.60463,-85.66033 -295.351953,-285.55369 z"
       id="path4236-2"
       inkscape:connector-curvature="0"
       sodipodi:nodetypes="cccccc" />
    <g
       id="g4138"
       transform="matrix(1.039837,0,0,1.039837,-15.202114,-15.947765)">
      <path
         d="m 513.10222,663.67175 -29.99999,0 m -272.85711,0 -30,0 m 165.71426,136.68515 0,30 m 0,-332.14283 0,30 m 170,135.45768 a 170,170 0 0 1 -170,170 170,170 0 0 1 -170,-170 170,170 0 0 1 170,-170 170,170 0 0 1 170,170 z"
         style="fill:none;fill-rule:evenodd;stroke:#eeeeee;stroke-width:14.99999809;stroke-linecap:butt;stroke-linejoin:miter;stroke-miterlimit:4;stroke-dasharray:none;stroke-opacity:1"
         id="path5358-3-1"
         inkscape:connector-curvature="0" />
      <path
         sodipodi:nodetypes="scssssssssssssssssssssssss"
         inkscape:connector-curvature="0"
         id="path5984"
         d="m 298.34998,757.18672 c 0,-3.96178 -6.09311,-16.32144 -15.21052,-17.682 -6.47807,-0.96678 -16.53136,0.57575 -21.06367,-4.28486 -4.53229,-4.8606 -3.54361,-16.12435 -7.81783,-32.76365 -13.73548,-53.47151 -7.4167,-89.03352 20.84057,-117.29079 18.40484,-18.40484 28.51293,-22.06033 61.00029,-22.06033 51.75315,0 76.54411,12.50749 94.48146,47.66749 17.47013,34.24438 17.95713,43.0815 5.36042,97.26321 -3.45664,14.86796 -1.75184,23.01888 -6.73994,27.17669 -4.9881,4.15782 -16.66913,4.32254 -21.49509,4.32254 -7.29638,0 -9.95255,12.8553 -12.58416,17.11328 -6.03879,9.77103 -96.77153,10.27583 -96.77153,0.53842 z m 60.39962,-16.14917 c 0.5335,-4.06187 -4.09787,-17.54281 -7.18978,-25.90098 -5.47213,-14.7927 -4.49134,-14.95004 -13.15126,1.23121 -4.8931,9.14275 -8.50594,21.12044 -8.50594,24.94672 0,4.65573 9.63818,-5.48292 14.74057,-5.31736 5.60028,0.1817 13.4879,9.74957 14.10641,5.04041 z m -41.59832,-35.26351 c 18.28798,-18.28798 14.77287,-26.54302 -11.3026,-26.54302 -25.86514,0 -40.08803,20.28713 -22.17487,31.62969 15.03209,9.51824 19.56069,8.83019 33.47747,-5.08667 z m 93.45369,-7.29472 c 0,-11.68279 -6.03162,-15.95928 -25.10426,-17.79922 -21.44793,-2.06899 -24.349,-0.37738 -19.91899,11.6126 10.71397,28.99833 45.02325,33.71273 45.02325,6.18662 z"
         style="fill:#eeeeee;fill-opacity:1" />
    </g>
  </g>
</svg>
