<?xml version="1.0" encoding="utf-8"?>
<!-- Generator: Adobe Illustrator 23.0.3, SVG Export Plug-In . SVG Version: 6.00 Build 0)  -->
<svg version="1.1" xmlns="http://www.w3.org/2000/svg" xmlns:xlink="http://www.w3.org/1999/xlink" x="0px" y="0px"
	 viewBox="0 0 552.8 552.8" style="enable-background:new 0 0 552.8 552.8;" xml:space="preserve">
<style type="text/css">
	
		.st0{fill-rule:evenodd;clip-rule:evenodd;fill:#081826;stroke:#081826;stroke-width:10;stroke-linecap:round;stroke-linejoin:round;}
	.st1{fill:none;stroke:#AC2B35;stroke-width:15;stroke-linecap:round;stroke-linejoin:round;}
	.st2{display:none;}
	.st3{display:inline;fill:none;stroke:#FFFFFF;stroke-width:10;}
	.st4{display:inline;fill:none;stroke:#FFFFFF;stroke-width:5;}
	.st5{fill:#FFFFFF;stroke:#081826;stroke-width:2;stroke-miterlimit:10;}
	.st6{fill:#FFFFFF;stroke:#081826;stroke-miterlimit:10;}
</style>
<g id="bg" inkscape:version="0.91 r13725" sodipodi:docname="adept.svg" xmlns:cc="http://creativecommons.org/ns#" xmlns:dc="http://purl.org/dc/elements/1.1/" xmlns:inkscape="http://www.inkscape.org/namespaces/inkscape" xmlns:rdf="http://www.w3.org/1999/02/22-rdf-syntax-ns#" xmlns:sodipodi="http://sodipodi.sourceforge.net/DTD/sodipodi-0.dtd" xmlns:svg="http://www.w3.org/2000/svg">
	
		<sodipodi:namedview  bordercolor="#666666" borderopacity="1.0" id="base" inkscape:current-layer="layer1" inkscape:cx="-129.55511" inkscape:cy="304.64766" inkscape:document-units="px" inkscape:pageopacity="0.0" inkscape:pageshadow="2" inkscape:window-height="1017" inkscape:window-maximized="1" inkscape:window-width="1920" inkscape:window-x="-8" inkscape:window-y="-8" inkscape:zoom="0.98994949" pagecolor="#ffffff" showgrid="true" showguides="false">
		<inkscape:grid  id="grid4169" type="xygrid"></inkscape:grid>
	</sodipodi:namedview>
	
		<path id="path4236" inkscape:connector-curvature="0" inkscape:export-xdpi="240" inkscape:export-ydpi="240" sodipodi:nodetypes="cccccc" class="st0" d="
		M28.4,44.2h488.5v247.6c-64,168-240,240-240,240s-176-72-248-240L28.4,44.2z"/>
	<path id="path4236-2" inkscape:connector-curvature="0" sodipodi:nodetypes="cccccc" class="st1" d="M44.9,60.8h455.7v230.7
		c-59.7,156.5-223.9,223.6-223.9,223.6S112.5,448.1,45.3,291.5L44.9,60.8z"/>
</g>
<g id="Layer_3" class="st2">
	<circle id="path8598_1_" class="st3" cx="272.7" cy="263" r="142.2"/>
	<circle id="path8598_2_" class="st3" cx="272.7" cy="263" r="92.2"/>
	<line class="st4" x1="272.8" y1="121.2" x2="272.8" y2="169.2"/>
	<line class="st4" x1="272.8" y1="355.2" x2="272.8" y2="405.2"/>
	<line class="st4" x1="414.8" y1="263.2" x2="364.9" y2="263.2"/>
	<line class="st4" x1="180.5" y1="263.2" x2="130.9" y2="263.2"/>
	<line class="st4" x1="190.2" y1="180.5" x2="153.8" y2="144.2"/>
	<line class="st4" x1="391.4" y1="381.8" x2="355.1" y2="345.4"/>
	<line class="st4" x1="223.5" y1="213.8" x2="207.5" y2="197.8"/>
	<line class="st4" x1="337.9" y1="328.2" x2="321.9" y2="312.2"/>
	<line class="st4" x1="190.2" y1="345.4" x2="153.8" y2="381.8"/>
	<line class="st4" x1="391.4" y1="144.2" x2="355.1" y2="180.5"/>
	<line class="st4" x1="223.5" y1="312.2" x2="207.5" y2="328.2"/>
	<line class="st4" x1="337.9" y1="197.8" x2="321.9" y2="213.8"/>
</g>
<g id="Layer_2">
	<g>
		<path class="st5" d="M144.9,171.3c0-2.1-2.4-4.7-0.8-5.9c2.5-1.8,5.8-2.6,9.1-2.6c4.6-0.1,9.8,1.2,12.4-4.4c0.8-1.7,2.5-1.9,4-2.3
			c7.7-2.3,15.5-4.7,23.2-7c10.8-2.7,21.5-5.9,32-9.5c2.4-0.7,4.9-1.4,7.3-2.2c1.9-0.4,3.8-0.8,5.7-1.2c0.1,0.2,0.2,0.5,0.1,0.8
			c-0.2,0.3-0.4,0.7-0.7,1c-0.2,0.4-0.4,0.8-0.7,1.2c-0.4,0.7-0.7,1.4-1.1,2.1c-0.2,0.5-0.5,0.9-0.7,1.4c0,0-0.2,0.4-0.2,0.4
			c-1.6,3-3.1,6-4.7,9c-1,1.8-1.2,3.3,1.2,4.2c1.8,1.1,2.9,3.6,6.6,2.6c-2.5-1.6-4.3-2.7-6.1-3.9c-0.7-4.4,3.4-7,3.9-11
			c0.2-0.4,0.4-0.8,0.7-1.2c0.2-0.4,0.4-0.8,0.7-1.2c0.4-0.8,0.7-1.5,1.1-2.3c0,0,0.2-0.4,0.2-0.4c0.4-0.8,0.8-1.5,1.1-2.3
			c0.9-2.1,2.4-3.1,4.6-3.7c5-1.3,9.9-2.9,14.9-4.4c2.3-0.7,4.2-1.8,5-4.9c-6.8,1.9-13.1,4.1-19.9,3.6c-6.8-0.4-6.8-0.1-5.7,6.6
			c0.1,0.4-0.3,0.8-0.5,1.2c-1.8,0.4-3.6,0.7-5.5,1.1c-0.6-2-1.1-4.1-1.7-6.1c0.5-0.6,0.4-1.4-0.1-1.5c-0.7-0.1-0.8,0.8-0.6,1.4
			c-0.9,3.3-3.5,4.5-6.5,5c-2.4-1.2-4.4,0.4-6.5,1c-7.9,2.2-15.7,4.6-23.6,7c0.1,0.3,0.2,0.6,0.3,0.9c9.9-2.9,19.8-5.9,29.7-8.8
			c0.3,1.2,0.7,2.4,1,3.6c-10.5,3.2-21.1,6.4-31.6,9.6c0-3.1-2.9-3-4.6-4.2c0.1-0.4,0.3-1.2,0.2-1.2c-0.7-0.4-1.1,0-1.4,0.7
			c-3.1,4.7-8.4,5-13.1,6.3c-1.2-4-2.4-8-3.6-12c-0.3,0.1-0.6,0.2-0.9,0.3c1.2,4,2.4,8,3.6,12c-0.3,0.1-0.6,0.3-0.9,0.4
			c-12.2,3.9-12.2,3.9-15-8.6c-0.5-2-0.3-3,1.8-3.5c8.9-1.9,17.1-6.9,27-4.6c3.4,0.8,8.1,0.2,9.2-5.1c0.4-2.2,2-3,4.1-3.6
			c10.9-3.2,21.9-6.4,32.7-9.7c3.3-1,4-0.3,2.3,3.4c9.5-5.4,18.7-11.1,29.4-12.7c1.2,3.9,2.2,7.8,3.6,11.6c1,2.6,0.8,4.5-1.9,5.7
			c5-1.5,10-3,15.7-4.7c-4.7-0.6-8.8,4-11.6,1.2c-2.5-2.6-2.7-7.4-3.8-11.3c-0.3-0.9-0.5-1.9-0.7-2.8c12.3-4.3,12.5-4.4,15.9,8.2
			c1,3.7,2,5.1,5.9,3.4c3.3-1.4,6.9-3,10.7-0.7c0.8,0.5,2.5-0.3,3.7-0.6c10.9-3.2,21.8-6.6,32.8-9.6c3.3-0.9,5.6-2.4,6.6-5.6
			c1.2-3.9,3.8-5.7,7.7-6.4c2.2-0.4,4.4-1.3,6.6-1.9c3-0.8,5.9-1.5,8.9-2.3c0.7,4.4,5.5,6.2,6.5,10.4c-1.7,3.7-3,7.5-3.7,11.6
			c-1.4,5.8-4.1,9.9-10.8,10.8c-3.9,0.5-7.9,1.6-11.4,3.7l0,0c-4.4,0.1-8.4,1.3-12.1,3.7l0.1-0.1c-17.4,4.3-34.4,9.8-51.5,15.1
			c-14.8,3.4-29.1,8.5-43.9,13.1c4.2-0.7,4.6,2,5.2,4.6c0.2,0.9,0.5,1.9,0.7,2.8c-9.6,2.9-19.2,5.7-28.7,8.6
			c-2.9-7.2-2.9-7.2-10.7-4.9c-2.2,0.6-4.4,1.2-6.6,1.8c-0.2-0.4-0.5-1.3-0.6-1.2c-2.5,0.6-6.1,0.6-7.1,2.2c-1.9,3.2-5,2.3-7.3,3.6
			c-0.8-0.4-0.8-2.4-2.5-1.3l0.1,0c0-1.1-0.2-1.7-1.3-0.7l0.1,0.1c0.5-1.5-0.4-1.7-1.5-1.7l0.1,0c-1.6-1.5-3-0.1-4.4,0.3
			c-6.5,1.8-12.9,3.7-19.3,5.6c-0.1-0.6,0.6-1.5-0.6-1.8l0,0.1c1.5,0.6,1.8-0.3,1.7-1.5l0,0.1c2.8-2.2,4.3-5.2,6.3-9.9
			C154.5,168.3,150.1,171.1,144.9,171.3z M202.1,153.3c-5.3,1.6-10.6,3.1-15.9,4.7c-1,0.3-2.6,0.3-2.3,1.9c0.4,2,2,1.2,3.2,0.8
			c10.5-3.1,20.9-6.2,31.3-9.3c1-0.3,2.5-0.7,2-2.2c-0.5-1.6-1.9-0.9-2.9-0.6C212.4,150.3,207.3,151.8,202.1,153.3z M242.6,141.7
			c4.6,1.3,13.4-1.5,15.2-4.5C252.8,138.7,248,140.1,242.6,141.7z M315.1,121.6c-0.1-0.4-0.2-0.8-0.3-1.2c-4.8,1.4-9.7,2.9-14.5,4.3
			c0.1,0.4,0.3,0.8,0.4,1.2C305.7,125.1,310.5,123.8,315.1,121.6z M286.9,129.2c-5.1,0.4-10,1.7-14.5,4.3
			C277.6,133.5,282.5,132,286.9,129.2z M259.2,142c0.2,0.5,0.3,0.9,0.5,1.4c5-1.1,9.8-2.4,14.6-4.3c-0.1-0.5-0.3-0.9-0.4-1.4
			C268.9,139.2,264,140.6,259.2,142z M328.5,116.2c4.2,1.3,12.9-1.2,15.7-4.7C338.8,113.2,333.9,114.6,328.5,116.2z M331.2,122.1
			c-0.1-0.4-0.2-0.8-0.3-1.1c-4.9,1.4-9.7,2.9-14.6,4.3c0.1,0.4,0.3,0.8,0.4,1.1C321.7,125.4,326.5,124,331.2,122.1z M288.2,133.4
			c0.1,0.3,0.2,0.6,0.3,1c4.8-1.4,9.7-2.9,14.5-4.3c-0.1-0.3-0.2-0.6-0.3-1C297.9,130.5,293,132,288.2,133.4z M345.2,116.6
			c0.1,0.4,0.3,0.8,0.4,1.2c4.9-0.9,9.7-2.3,14.2-4.2c-0.1-0.4-0.2-0.8-0.3-1.2C354.7,113.8,350,115.2,345.2,116.6z"/>
		<path class="st5" d="M331.7,146.3c-6.5,2-13,3.9-19.5,5.9c-0.3-0.8-0.4-2.1-1.7-1.7c-0.7,0.2-0.6,1-0.4,1.6
			c-11.8,13.3-27.9,18.5-44.4,19c-12.2,0.4-20.4,5.3-28.5,12.7c-7.2,6.6-14.9,12.3-24.3,15.7c-6.5,2.3-11.3,17.4-8.4,24.4
			c3.1,7.5,2.1,9.4-5.7,11.1c-0.2,0-0.3,0.1-0.5,0.1c-15.2,3-20.6-2.3-17.3-17.5c1.1-4.9,2.2-9.8,3.2-14.7c0.6-3.1,0.2-6.2-1.3-9
			c-2.1-4.1-5-4.9-9.2-3.5c-8,2.6-16.2,5-24.3,7.2c-3.9,1.1-5-2.5-6.6-4.9c0.6-0.6,1.8-1.2,0.5-2.2l0,0.1c0.4-0.1,0.7-0.2,1.1-0.3
			c-0.1-0.3-0.3-0.7-0.4-1l-0.1,0.1c1.6,0.6,1.8-0.2,1.7-1.5l0,0.1c1.7-1.2,3.4-2.4,2.6-4.9l0,0.1c1.5,0.6,1.8-0.3,1.7-1.5
			c0,0,0,0.1,0,0.1c1.2-0.7,2.3-1.4,3.5-2.1c7.9-1.9,15.8-4.2,23.5-7c0,0-0.1,0-0.1,0c-0.5,1.5,0.5,1.6,1.5,1.7c0,0-0.1-0.1-0.1-0.1
			c0.2,0.7,0.5,1.1,1.3,0.7c0,0-0.1,0-0.1,0c0.6,1.4,1.8,2.3,3,3.2c4.4-3.1,10-3,14.7-5.3c0.9-0.2,1.9-0.4,2.8-0.6
			c2.9-0.8,5.9-2.4,8.8-2.4c4,0,1.6,5.4,4.5,6.8c0.8-0.1,1.6,0,2.4-0.2c21.9-6.5,43.9-13,65.8-19.6c1-0.3,2.3-0.2,2.9-3
			c-9.9,2.9-19,5.6-28.2,8.4c-0.3-0.8-0.5-1.6-0.9-2.3c-2.2-4.2-0.4-5.7,3.7-6.7c7.4-1.8,14.6-4.2,22-6.4c10.4-3.1,20.8-6,31.1-9.3
			c3.2-1,3.6,0.2,3.2,2.8c0,0.4-0.1,1,0,1.1c0.5,0.2,0.8-0.1,0.9-0.7c4.3-1.2,8.6-2.4,12.9-3.6C329.8,140,330.7,143.2,331.7,146.3z
			 M215.8,192.6c3.1-1,6.3-1.8,8.7-4.1c1.9-1.8,3.1-3.9,1.7-6.5c-1.2-2.1-9.7-3.5-12.3-1.7c-2.7,1.9-0.6,4.6-0.1,7
			c0.2,1,2.3,2.1,0,3c-1.5,0.6-2.4-0.3-3.1-1.5c-0.5-1-1-2.1-1.7-2.9c-0.8-1,0.3-3.5-2-3.1c-1.6,0.3-2.6,1.8-3.2,3.4
			c-1.5,4,1.5,8.1,5.8,7.8C211.8,193.8,213.8,193.1,215.8,192.6z M154.7,186.4c0.1,0.5,0.3,0.9,0.4,1.4c5-0.8,9.8-2.3,14.4-4.2
			c-0.1-0.5-0.3-1-0.4-1.5C164.3,183.5,159.5,184.9,154.7,186.4z M313.9,144.2c-0.2,0.3-0.6,0.6-0.5,0.8c0,0.2,0.3,0.6,0.5,0.6
			c0.5,0,0.8-0.4,0.6-0.9C314.4,144.4,314.1,144.3,313.9,144.2z"/>
		<path class="st5" d="M141.4,192.8c-1.4,2.6-3.6,4-6.5,4.5c-16.2,2.7-28.6,11.7-39.5,23.3c-3.2,3.4-5.8,7.3-8.9,10.9
			c-3.1,3.5-6.6,6.8-11,8.6c-4.3,1.8-8.2,0-8.1-4.5c0.2-10.1-4.1-18.9-6.8-28.2c-2.3-7.9,0-12.9,7.6-16c9.5-3.9,19.4-6.6,29.4-8.6
			c2.6-0.5,5.2-0.4,7.6,0.8c0.4,0.6,0.8,0.7,1.4,0.2c12.7-3.8,25.5-7.6,38.2-11.4c3.5-0.9,6.9-1.7,10.5-2.6c0.1,2.3-2.9,3.1-1.5,5.3
			c0,0,0-0.1,0-0.1c-1.5-0.6-1.8,0.3-1.7,1.5c0,0,0-0.1,0-0.1c-1.7,1.2-3.3,2.4-2.6,4.9c0,0,0-0.1,0-0.1c-1.5-0.5-1.7,0.4-1.7,1.5
			c0,0,0-0.1,0-0.1c-1.5,1.3-3.4,2.4-2.6,4.9c0,0,0-0.1,0-0.1c-1.5-0.5-1.6,0.5-1.7,1.5c0,0,0.1-0.1,0.1-0.1c-0.7,0.2-1,0.6-0.7,1.3
			c0,0,0-0.1,0-0.1C141.9,190.7,141.6,191.7,141.4,192.8z M105.2,197c-3.1-0.4-5.7,1.4-8.4,2.3c-2.8,0.9-5.2,2.4-7.1,4.8
			c-1.5,2-1,4.4,0.3,5.8c1.4,1.7,2.7-0.6,3.9-1.4C98.5,205.7,102.1,201.6,105.2,197c-0.3-0.2-0.6-0.5-0.9-0.7
			c-0.1,0.1-0.2,0.2-0.2,0.4C104.4,196.8,104.8,196.9,105.2,197z M123,193.9c11.2-1.9,13.6-3.7,15.6-11.9
			C131.9,184,124,184.1,123,193.9z M90.5,213.6c-0.1,0-0.2-0.1-0.3-0.1c0.6,2.1,1.3,4.2,1.9,6.3c0.1,0,0.1,0,0.2-0.1
			C91.8,217.7,91.2,215.7,90.5,213.6z"/>
		<path class="st5" d="M387.6,94.4c6.1-1.5,11.7-4.8,18.3-4.6c0.7,2.5,1.5,5,2.2,7.5c0.1,0,0.2-0.1,0.3-0.1c-0.6-2.5-1.2-5-1.8-7.4
			c12.8-3.6,23.6-12.3,37-14.8c5-1,6.8,0.3,8,4.4c0.3,1.1,0.7,2.2,1,3.3c1.6,6.7,1,7.7-5.5,9.6c-4.7,1.4-9.4,2.8-14,4.2
			c-3.4,1-6.5,1.9-10.3,0.4c-4.5-1.8-15.6,3.6-18,7.9c-1.3,2.4-2.6,4.9-4,7.3c-0.4,0.7-0.9,1.4-0.3,2.2c0.6,0.8,1.4,0.5,2.2,0.2
			c10-3,20.1-5.5,29.8-9.2c3.1-1.2,5.9-3.7,9.3-4.8c2.6-0.8,3.7-0.2,4.7,2.2c3.7,8.4,0.9,12.9-8,12c-2.4-0.3-4.4,0.1-6.5,0.7
			c-3.9,1.1-7.7,2.5-11.7,3.4c-8.4,1.9-15.9,6.7-24.1,8.7c-14.8,3.5-29.3,7.9-44,12c-0.9-3.1-1.8-6.2-2.7-9.2
			c8.2-2.5,16.2-5.6,24.6-7.2c9.7-1.8,14.3-8,17.1-16.4C390,102.6,388.8,98.5,387.6,94.4z M438.7,87.6c2.3-0.7,4.7-1.4,7-2.1
			c1.2-0.4,2-1.1,1.7-2.5c-0.4-1.7-1.6-1.9-3-1.5c-4.7,1.4-9.3,2.8-14,4.2c-1.2,0.4-2,1.2-1.7,2.5c0.4,1.6,1.6,1.8,3,1.4
			C434.1,89,436.4,88.3,438.7,87.6z"/>
		<path class="st5" d="M351.5,139.9c0.3,1.4-0.5,2-1.7,2.3c-5.3,1.4-10.6,2.9-15.8,4.4c-1.1-3.6-2.2-7.3-3.3-10.9
			c3-1.2,1.8-3.4,1.5-5.5c0,0-0.1,0.1-0.1,0.1c3.9-1.7,8-2.7,12.1-3.7l0,0c0.2,2.7,1.2,4.4,4.3,3.8
			C349.5,133.7,350.5,136.8,351.5,139.9z"/>
		<path class="st5" d="M371.1,101.3c3.9-4.3,9.7-3.7,14.5-5.7c1.9,3.3,2.7,6.9,3.4,10.5c-6.9,2.1-13.7,4.2-20.6,6.2
			C368.1,108.4,370.8,105.2,371.1,101.3z"/>
		<path class="st5" d="M243.9,165.5c-0.6-2.4-3-5.6-1.4-7.1c2.2-1.9,5.9-2.2,8.9-3.1c1.3-0.4,1.7,0.4,2,1.4c0.5,1.9,1,3.7,1.5,5.6
			C251.2,163.4,247.6,164.5,243.9,165.5z"/>
	</g>
</g>
<g id="Layer_4">
	<g>
		<path class="st6" d="M363,220.6c-1.1-3.5-2-7-3.2-10.5c-0.8-2.4-0.6-3.7,2.2-4.1c12.4-1.9,24.7-5.2,37.3-5.6
			c7.9-0.3,15.6,0.8,23.2,3.2c3.2,1,7.3,0,7.4,5.4c0,1.9,1.5,3.9-1.5,4.8c-1.2,0.4-1.4,1.8-1.3,2.8c0.4,6.3-3.8,7.7-8.7,8.8
			c-5.5,1.3-10.9,3.3-16.4,4.6c-29.4,7.1-58.6,15-87.5,24.2c-4.4,1.4-9.4,6-13,3.7c-2.9-1.9-3-8.2-4.4-12.5
			c-0.4-1.2-0.1-3.5-2.5-2.5c-3.3,1.3-0.1,2.4,0.3,3.5c1.2,3.8,2.5,7.7,3.6,11.5c1.5,5.1-4.6,3.6-5.6,6.6c3.3,0.9,5.2-2.1,7.9-3
			c2.9-1,5.8-2.3,8.6-3.6c3.6-1.7,6.6-1.4,9.1,1.9c3.1,3.3,6.4,6.3,10.3,8.7c0.5,1.6-0.7,1.8-1.7,2.1c-7,1.9-14.1,3.9-21.1,5.8
			c-0.7-0.3-1,0-1,0.6c0,0.1,0.6,0.2,0.9,0.3c2.8,6.2,2.8,6.2-3.3,7.9c-2.1,0.6-4.2,1.4-6.3,1.8c-7.4,1.6-14.3,6.4-22.4,2.9
			c-0.2-0.1-0.7,0.4-1.1,0.7c4,3.4,8,3.5,12.8,1.9c6.9-2.4,13.9-4.3,21-6.1c3.2-0.8,4.9-1.9,3.2-5.4c-0.8-1.6-1-3.1,1.5-3.6
			c4.3-0.9,8.2-3,12.7-3.1c1.5,4.1,1.6,8.8,5.3,12c-1.2-4.2-2.4-8.3-3.6-12.5c0.6-2,2.6-1.8,4-2.2c17.2-5.1,34.5-10.2,51.7-15.2
			c2.8-0.8,5.6-1.7,8.3-2.6c1.9-0.5,3.7-1,5.6-1.4c2.2-0.5,3.1,1.3,4.4,2.5c3.9,3.4,7.7,6.8,11.5,10.3c0.7,2-1,2-2.1,2.3
			c-20.3,5.9-40.7,11.8-61,17.7c-1,0.3-2.2,1-2.5-0.8c0.2-0.4,0.4-0.8,0.6-1.1c0.2-0.5,0.4-0.9,0.6-1.4c0.2-0.5,0.5-0.9,0.7-1.4
			c0.7-0.7,1.3-1.9,0.6-2.3c-1.6-0.8-1.3,1-1.8,1.8c-0.2,0.4-0.4,0.9-0.7,1.3c-0.2,0.5-0.4,0.9-0.6,1.4c-0.1,0.4-0.3,0.8-0.4,1.3
			c-1.2,2.8-2.7,4.6-6.2,3.4c-1.7-0.6-3.3-0.7-4.6,1.5c-5,8.9-12.9,13.7-22.7,15.5c-4,0.7-5.9,2.7-6.5,6.7c-0.5,3.2-1.6,6.4-2.3,9.6
			c-1.1,5-1.3,9.9,1.1,14.9c2.7,5.6,1.1,7.6-5.1,7.9c-1.5,0.1-2.9-0.1-4.4-0.2c-13.5-1-15.6-3.8-13.4-17.3c0.6-3.8,2-7.4,3.3-11
			c3-7.7,0.4-13.3-7.8-14.4c-3.5-0.5-4.9-1.2-5.7-4.3c-0.2-0.6-0.9-1.1-2.2-2.5c1.8,9.9,1.8,9.9-6.6,12.3
			c-7.9,2.3-15.8,4.5-23.7,6.9c-2.4,0.7-3.9,0.5-4.2-2.2c-0.4-3.4-2.3-3.3-5-2.4c-6.6,2.1-13.3,3.9-20,5.9c0,0-0.1-0.2-0.1-0.2
			c0-0.5,0-1,0-1.5c3.5-1.6,5.7-4.5,7.6-7.6c-3.4,1.7-6.2,4.2-8.5,7.2c-0.5,0.5-1.5,0.8-0.8,1.8l-0.3-0.1
			c-7.2,6.5-16.6,7.2-25.7,9.3c11.5-13.2,23.1-26.4,34.6-39.6c1.8-2.1,4.7-1.7,7-2.9c20.3-5.9,40.6-11.8,60.8-17.6
			c-1.6-2.3-3.6-0.8-5.4-0.3c-6.7,1.8-13.3,3.9-20,5.7c-1.1,0.3-2.4,1.4-3.5,0.1c-1.7-1.8-1.7-1.9-3.6-0.3c-3,2.4-6.2,4.3-10,5.3
			c-6,1.5-11.9,3.4-17.9,5.1c7.2-8.8,16.7-14.6,25.6-21.3c1.3-1,2.7-1.9,4.1-2.7c2.7-1.7,5.7-5,8.2-4.6c2.5,0.3,2.1,5.2,3.2,7.9
			c0.3,0.8,0,2.4,1.8,1.6c1.6-0.7,0.6-1.3,0.3-2.2c-0.9-3.3-3.2-6.4-2.1-10.2c3.3-1.8,6.6-3.5,8.8-6.5c-3.6,1.1-8.4,0.2-9,5.6
			c-12.8,3.7-12.9,3.8-16.4-8.9c-0.7-2.6-3.3-5.9-0.8-8c3-2.5,7.4-4.2,11.2-3.3c3.1,0.7,5.6,0.3,8.3-0.5c12-3.3,23.9-6.7,35.9-10
			c0.7,2.6,1.3,5.1,2,7.7c-1.1,0.4-2.6,0.2-3.5,2.3c1.5-1,3.2-0.2,3.5-2.3c2.5-2.1,0.1-4.5,0.5-6.7c3.7-1.1,7.4-2.1,11-3.3
			c3.5-1.1,7-2.6,9.2,2.1c0.9,1.9,2.6,0.4,3.9,0.1c8.3-2.2,16.6-4.3,24.8-6.7c2.9-0.8,4.4-0.8,5.4,2.7c1,3.6-0.1,4.8-3.3,5.8
			c-3.7,1.2-7.8,1.5-10.7,4.5c-0.7,0.5-1.4,1.2-2.2,1.4c-5.6,1.1-11.3,2.2-16,5.9c6.3-1.6,12.7-3,18.3-6.7c3.9-0.1,7.4-1.8,10.8-3.4
			c3.4-1.6,4.9-0.6,6,2.4c0.4,0.3,0.8,0.7,1.2,1c0.4,0.3,0.9,0.6,1.3,0.9c0.9,0.6,1.7,1.3,2.6,1.9c0.4,0.3,0.7,0.5,1.1,0.8
			c0.7,0.4,1.4,0.9,2.1,1.3c0.4,0.3,0.9,0.6,1.3,0.9c0.4,0.3,0.8,0.6,1.2,0.9c0.4,0.3,0.8,0.6,1.2,0.9c0.5,0.3,1.1,1,1.6,0.2
			c0.5-0.9-0.5-0.9-1-1.2c-0.4-0.3-0.9-0.6-1.3-0.8c-0.4-0.3-0.8-0.6-1.3-0.9c-0.3-0.3-0.7-0.6-1-0.9c-0.7-0.4-1.5-0.8-2.2-1.2
			c-0.4-0.3-0.8-0.6-1.3-0.9c-0.9-0.6-1.7-1.2-2.6-1.8c-0.4-0.3-0.7-0.6-1.1-0.9C363.6,220.5,363.3,220.4,363,220.6z M377.2,231.5
			c0.4,0.2,1.1,0.7,1.2,0.5c0.8-0.8-0.1-1.1-0.6-1.5c-0.5-0.2-1.1-1-1.6-0.2C375.7,231.2,376.7,231.2,377.2,231.5z M349.6,275.4
			c0.5-1,2.1-2.4,0.8-3c-1.4-0.7-1.5,1.3-1.8,2.3c-0.4,0.5-1.2,1-0.4,1.6C349,276.8,349.3,276,349.6,275.4z M223.8,284.8
			c-1.4-0.6-2.7-1.1-3.8,1C221.5,285.4,222.7,285.1,223.8,284.8c0.6,1.7,1.1,3.5,1.6,5.3c-1.3,0.4-2.6,0.7-4.3,1.3
			c2.3,0.9,3.5,0.3,4.3-1.3C226.4,287.9,226,286.1,223.8,284.8z M264.7,286.5c1,0.5,2.5,2,2.9,1.1c0.7-1.5-0.7-2.4-2.4-2.5
			c-1.8-1.4-3.5,0-5.1,0.5c-10.2,2.9-20.2,6.2-30.5,8.7c-5.9,1.4-9.4,5.3-12.9,9.8c3.8-3.6,13.2,2.5,13.2-7.9c0-0.3,0.8-0.6,1.3-0.8
			C242.4,292.2,253.4,288.9,264.7,286.5z M316,291.6c-1.7,0.5-3.5,1.1-5.2,1.5c-3.1,0.7-2.8,2.7-2.2,5c0.8,3.1,2.7,2.3,4.6,1.3
			c2-0.9,4.1-1.6,5.8-2.9c2-1.6,5.8-3.1,4.4-6c-1-2.2-4.1,0.5-6.4,0.7C316.7,291.3,316.4,291.5,316,291.6z M375.7,211.8
			c-0.7,0.9-1.2,1.3-1.3,1.7c-0.1,1.1,0.8,1.5,1.5,2c5.4,3.6,10.8,7.3,16.3,10.9c0.8,0.5,1.8,1.7,2.7,0.3c0.9-1.4-0.5-1.9-1.3-2.4
			c-5.4-3.7-10.8-7.3-16.2-10.9C376.7,212.9,376.2,212.4,375.7,211.8z M411.7,220.6c-0.2-0.2-0.4-0.3-0.5-0.4
			c-6-4.1-12.1-8.2-18.2-12.2c-0.6-0.4-1.4-0.6-1.8,0.3c-0.4,0.8-0.1,1.4,0.5,1.8c5.9,4,11.8,7.9,17.7,11.9c0.6,0.4,1.3,0.8,1.9,0
			C411.6,221.7,411.6,221.1,411.7,220.6z M383.5,209.6c-0.5,0.7-0.9,1.5-1.4,2.2c6.5,4.3,13,8.6,19.6,12.9c0.3,0.2,1-0.1,1.3-0.4
			c0.6-0.6,0.4-1.3-0.4-1.8C396.2,218.2,389.9,213.9,383.5,209.6z M387.4,227.9c-0.1-0.2-0.2-0.4-0.3-0.5
			c-6.2-4.2-12.4-8.3-18.6-12.5c-0.7-0.5-1.4-0.3-1.7,0.6c-0.3,0.9,0.2,1.3,0.8,1.7c5.8,3.9,11.5,7.7,17.3,11.5
			c0.5,0.4,1.4,0.5,2,0.4C387.1,229.2,387.2,228.3,387.4,227.9z M400.1,205.2c-1.8,1.7-0.4,2.4,0.5,3.1c5.4,3.7,10.9,7.3,16.3,10.9
			c0.8,0.5,1.8,1.7,2.7,0.1c0.7-1.4-0.6-1.9-1.5-2.4c-5.3-3.6-10.6-7.1-15.9-10.6C401.6,205.8,400.8,205.5,400.1,205.2z
			 M320.7,269.5c0.5-0.4,1-0.8,1.5-1.1c-1.8-3.6-5.3-5.8-8.4-8.1c-0.3-0.2-1.1,0-1.4,0.3c-0.6,0.7-0.2,1.3,0.4,1.8
			C315.4,264.8,318,267.2,320.7,269.5z M306.2,260.8c2,5.2,5.7,6.9,8.4,9.6c0.5,0.5,1.5,0.6,1.8-0.2c0.2-0.5,0-1.5-0.4-1.9
			C313.2,266,311.1,263,306.2,260.8z M300.1,262.8c3,4.8,6.1,7.2,9.4,9.5c0.3,0.2,1.1-0.1,1.3-0.4c0.2-0.3,0.1-1.2-0.1-1.4
			C307.8,268,305.5,264.6,300.1,262.8z M319.8,231.1c-4,1.7-8.4,2.4-11.4,5.8C312.5,235.5,316.8,234.6,319.8,231.1z M291.6,229.2
			c1.3,0.4,2.3,0.2,3-1C293.4,227.9,292.5,228.3,291.6,229.2z M297.4,225.7c-0.3,0.4-0.5,0.7-0.8,1c0.3,0,0.7,0.2,1,0.1
			c0.4-0.2,0.8-0.5,1.2-0.8C298.4,225.9,297.9,225.8,297.4,225.7z M218.2,288.1c0.1,0.6,0.1,1.1,0.2,1.5c0.1,0.1,0.3,1.3,0.8,0.3
			c0.2-0.4-0.1-1-0.2-1.4C218.9,288.3,218.6,288.2,218.2,288.1z"/>
		<path class="st6" d="M159.4,302.9c11.6-3.4,23.1-6.8,34.8-10c1.5-0.4,3.4-2.3,4.8,0.2c1.3,2.3,0.9,4.2-1.1,6.3
			c-4.9,5.2-9.4,10.7-14.2,15.9c-4.4,4.9-8.8,9.7-10.7,16.3c-0.4,1.3-1.4,2.6-2.4,3.5c-8.1,7.6-16.2,15.2-24.5,22.6
			c-4.3,3.8-5.7,3.3-7.7-2c-2.4-6.3-3.2-13.1-6.4-19.2c-2.1-3.9-4.5-7.5-7.8-10.5c-0.9-0.8-1.8-1.8-2.6-2.8
			c-4.4-6.2-3.6-8.6,3.6-10.7c11.4-3.3,22.8-6.6,34.2-9.9C159.3,302.7,159.3,302.8,159.4,302.9z M137.1,324.3
			c2.8,5.1,5.4,9.9,7,15.9c5.3-5,10.1-9.5,14.9-13.8c2.4-2.2,1.1-4.3,0.4-6.4c-1-2.9-3.1-1.1-4.5-0.7
			C149.1,320.7,143.4,322.5,137.1,324.3z"/>
		<path class="st6" d="M319.1,258.2c0.5-2.2,2.6-1.7,4-2.1c29.8-8.7,59.6-17.3,89.5-26c2.5-0.7,4.8-1.7,6.9,0.8
			c1.2,1.4,2.8,0.3,4.1-0.1c3.7-1,7.4-2.1,11.1-3.2c1.6-0.5,2.3,0.1,2.8,1.6c0.5,1.6-0.7,1.8-1.7,2.1c-4.7,1.4-9.4,2.7-13.8,5.1
			c8.3-2.4,16.6-4.5,24.8-7.3c4.8-1.6,6.7,0.2,7.2,4.6c-19.3,4.5-38.2,10.7-57.2,16.2c-2.7,0.3-5.4,0.7-7.7,2.5
			c-17.8,5.1-35.7,10.1-53.5,15.4c-2.9,0.9-5.2,0.9-7.3-1.5C325.6,263.2,322.5,260.6,319.1,258.2z"/>
		<path class="st6" d="M453.9,235c2,1.5,0.6,3.4,0.2,4.8c-3.5,10.1-8.4,18.8-20.3,21c-5.5,1-10.9,2.9-16.2,4.7
			c-2.1,0.7-3.8,0.7-5.4-1c-4.2-4.3-8.5-8.7-13.3-13.5C417.7,245.5,435.8,240.2,453.9,235z M416.6,263.6c0.4-0.5,0.7-0.9,1.1-1.4
			c-3.9-3.7-7.8-7.4-11.7-11.1c-0.4,0.4-0.7,0.8-1.1,1.2C408.8,256.1,412.7,259.9,416.6,263.6z M411,249.8c-0.4,0.4-0.8,0.8-1.1,1.2
			c3.8,3.5,7.5,7.1,11.3,10.6c0.4-0.4,0.7-0.8,1.1-1.2C418.5,256.9,414.8,253.4,411,249.8z"/>
	</g>
	<g>
		<path class="st6" d="M355.6,404.9c-4.6,11.2-14.9,13-25,14.8c-4.1,0.7-8.4,0.4-12.6,0.7c-14.8,0.9-21.1,9.3-16.7,23.4
			c1.4,4.6,0.7,6.9-3.4,8.9c-2.9,1.4-5.2,3.3-5.6,7.1c-0.3,2.9-2.9,3.6-5.5,3.6c-5.2,0-10.4-0.2-15.6-0.2c-5.2,0-10.2-0.6-15.6,1.3
			c-5.6,2-11.9-0.1-17.3-3c-3.2-1.7-3-4.9-2.9-8c0.3-7.3,2.5-14.2,4.3-21.2c1-4,0.3-6.9-2.6-10.2c-4.9-5.5-6.7-12.9-9.3-19.7
			c-0.2-0.5-0.2-1.6,0-1.6c6.1-1.7,4.1-8.1,6.7-11.4c3-3.7,8.3-3.7,12.9-4.7c16.4-3.5,32.4-8.6,47.7-15.7c5.2-2.4,10.2-4.8,16.7-4.3
			c6,0.5,12.2-2.5,17.6-5.4c3.2-1.7,6.7-2.6,9.9-4c1.1-0.5,2.3-0.9,3.4,0.1c5.6,5.5,11.1,11,16.7,16.5c0.5,2.1,0.8,4.3,1.6,6.3
			c1.8,4,0.3,5.5-3.6,6.8c-11.9,3.9-11.8,4-15.8-8.1c-0.2-0.6-0.4-1.1-0.6-1.7c1.4-3.4-2.9-9.9-6.2-9c-8.3,2.4-16.6,4.8-24.5,8.1
			c-4,1.7-3.7,6.9-2.9,10c0.6,2.4,4.1-0.1,6.1-0.7c8.8-2.5,17.6-5.4,26.4-8.1c1,3.1,1.8,6.2,3,9.2c1.5,3.5,0.3,5.1-3.2,6.1
			c-2.6,0.7-5.5,1.2-7.5,3.3c3.7-0.8,7.3-2.1,10.9-3.1c6.7-1.8,12.9-5.6,20.2-5.5c0.3,0.7,0.6,1.5,0.9,2.2c-0.4,3.1,5.2,6.9-1.3,9.4
			c-12.2,4.7-12.1,4.9-16.6-2.7c3.6,7.2-0.7,8.8-6.1,10.1c-4.9,1.2-9.6,2.9-14.4,4.4c-0.7-0.6-1.4-1.2-2-1.8
			c-0.3-0.1-0.9-0.4-0.9-0.3c-0.5,0.7,0.1,0.8,0.6,1c0.6,0.6,1.3,1.2,1.9,1.9c2.1,1.1,3.9-0.2,5.7-0.8c6.5-2,13-4.1,19.5-6.4
			C353.3,401.3,355,401.6,355.6,404.9z M247.4,395.5c13.3-4.4,26.6-8.8,39.9-13.1c1.2-0.4,2.5-1.5,3.8-0.1c-0.2,0.7-0.5,1.3-0.6,2
			c0,0.1,0.5,0.2,0.8,0.4c0.1-0.7,0.2-1.5,0.4-2.2c0.3-0.8,0.5-1.7,0.8-2.5c-0.1-0.5-0.1-1.4-0.3-1.4c-0.8-0.2-0.8,0.5-0.8,1
			c-5.8,1.9-11.7,3.7-17.5,5.8c-9.1,3.3-18.7,5.2-27.4,9.6c-0.3,0.7-0.7,1.4,0.3,1.8C247.1,396.4,247.2,395.9,247.4,395.5z
			 M284.7,411.1c-1.6,0.3-2.7-1-3.6-1.8c-3.9-3.7-8.3-1-11.5,0.3c-2.3,1-0.2,5.4,1.1,8.1c0.3,0.6,0.5,1.3,0.9,2.4
			c-5.1-1.3-5.1-6.4-8.3-9.1c-2.1,3.8-1,6.9,1.7,8.6c3.8,2.4,3,3.9,0.5,6.8c-7.6,8.8-11.2,13.8-0.6,24.9c2,2.1,12.5,1.1,14.1-1.4
			c5.5-9.1,7.4-19.3,9-29.7C288.7,416.4,287.8,413.5,284.7,411.1c8.2-2.7,16.5-5.4,24.8-8.1c-7.7,1-14.8,3.3-22,5.7
			c-0.6,0.2-1.4,0-1.7,0.4C285.2,409.6,285,410.4,284.7,411.1z M278.4,403.9c0-0.1-0.1-0.3-0.1-0.4c-9.4,3.1-18.8,6.1-28.2,9.2
			c0,0.1,0.1,0.3,0.1,0.4C259.6,410,269,406.9,278.4,403.9z M250.5,407.4c4.3,0.4,8.1-0.5,11.1-3.6
			C257.9,405,254.2,406.2,250.5,407.4z M246.2,398.3c-0.1,0.2-0.3,0.4-0.2,0.5c0.1,0.2,0.4,0.4,0.5,0.6c0.1-0.2,0.3-0.4,0.2-0.5
			C246.7,398.6,246.4,398.5,246.2,398.3z"/>
	</g>
</g>
</svg>
