<?xml version="1.0" encoding="UTF-8" standalone="no"?>
<!-- Created with Inkscape (http://www.inkscape.org/) -->

<svg
   xmlns:dc="http://purl.org/dc/elements/1.1/"
   xmlns:cc="http://creativecommons.org/ns#"
   xmlns:rdf="http://www.w3.org/1999/02/22-rdf-syntax-ns#"
   xmlns:svg="http://www.w3.org/2000/svg"
   xmlns="http://www.w3.org/2000/svg"
   xmlns:sodipodi="http://sodipodi.sourceforge.net/DTD/sodipodi-0.dtd"
   xmlns:inkscape="http://www.inkscape.org/namespaces/inkscape"
   width="195mm"
   height="195mm"
   viewBox="0 0 690.94484 690.94472"
   id="svg2"
   version="1.1"
   inkscape:version="0.91 r13725"
   sodipodi:docname="vanguard.svg"
   inkscape:export-filename="G:\Pictures\Projects\ME Logo\vanguard.png"
   inkscape:export-xdpi="240"
   inkscape:export-ydpi="240">
  <defs
     id="defs4" />
  <sodipodi:namedview
     id="base"
     pagecolor="#ffffff"
     bordercolor="#666666"
     borderopacity="1.0"
     inkscape:pageopacity="0.0"
     inkscape:pageshadow="2"
     inkscape:zoom="1.4"
     inkscape:cx="325.2396"
     inkscape:cy="399.68818"
     inkscape:document-units="px"
     inkscape:current-layer="layer1"
     showgrid="false"
     showguides="false"
     inkscape:window-width="1920"
     inkscape:window-height="1017"
     inkscape:window-x="-8"
     inkscape:window-y="-8"
     inkscape:window-maximized="1">
    <inkscape:grid
       type="xygrid"
       id="grid4169" />
  </sodipodi:namedview>
  <metadata
     id="metadata7">
    <rdf:RDF>
      <cc:Work
         rdf:about="">
        <dc:format>image/svg+xml</dc:format>
        <dc:type
           rdf:resource="http://purl.org/dc/dcmitype/StillImage" />
        <dc:title />
      </cc:Work>
    </rdf:RDF>
  </metadata>
  <g
     inkscape:label="Layer 1"
     inkscape:groupmode="layer"
     id="layer1"
     transform="translate(0,-361.41754)">
    <path
       style="fill:#021626;fill-rule:evenodd;stroke:#000000;stroke-width:0;stroke-linecap:butt;stroke-linejoin:miter;stroke-opacity:0;stroke-miterlimit:4;stroke-dasharray:none;fill-opacity:1"
       d="m 39.395949,402.83428 610.604051,0 0,309.52809 C 569.99993,922.3623 350,1012.3624 350,1012.3624 c 0,0 -220.00002,-90.0001 -310,-300.0207 z"
       id="path4236"
       inkscape:connector-curvature="0"
       sodipodi:nodetypes="cccccc" />
    <path
       style="fill:none;fill-opacity:1;fill-rule:evenodd;stroke:#d42620;stroke-width:28.85372353;stroke-linecap:butt;stroke-linejoin:miter;stroke-miterlimit:4;stroke-dasharray:none;stroke-opacity:1"
       d="m 334.48731,989.68119 c 0,0 -194.63091,-78.35467 -280.378233,-278.24803 l -0.575508,-294.58287 276.481281,0.50507"
       id="path4255"
       inkscape:connector-curvature="0"
       sodipodi:nodetypes="cccc" />
    <path
       style="fill:none;fill-opacity:1;fill-rule:evenodd;stroke:#6467b9;stroke-width:28.85399628;stroke-linecap:butt;stroke-linejoin:miter;stroke-miterlimit:4;stroke-dasharray:none;stroke-opacity:1"
       d="m 360.57197,417.10283 274.71352,-0.25254 0,294.60255 C 559.06557,911.32652 364.37347,989.68119 364.37347,989.68119"
       id="path4236-2"
       inkscape:connector-curvature="0"
       sodipodi:nodetypes="cccc" />
    <path
       inkscape:connector-curvature="0"
       id="path5358-3-1"
       style="fill:none;fill-rule:evenodd;stroke:#eeeeee;stroke-width:14.99999809;stroke-linecap:butt;stroke-linejoin:miter;stroke-miterlimit:4;stroke-dasharray:none;stroke-opacity:1"
       d="m 513.10218,673.67172 -32.02029,0 m -270.83678,0 -29.99999,0 m 165.71424,136.68513 0,30 m 0,-332.14279 0,29.99999 m 169.99998,135.45767 c 0,93.8884 -76.11158,169.99998 -169.99998,169.99998 -93.8884,0 -169.99998,-76.11158 -169.99998,-169.99998 0,-93.8884 76.11158,-169.99998 169.99998,-169.99998 93.8884,0 169.99998,76.11158 169.99998,169.99998 z"
       sodipodi:nodetypes="ccccccccsssss" />
    <path
       style="opacity:1;fill:#eeeeee;fill-opacity:1;fill-rule:nonzero;stroke:#6467b9;stroke-width:0;stroke-linecap:butt;stroke-linejoin:miter;stroke-miterlimit:4;stroke-dasharray:none;stroke-opacity:1"
       d="m 427.42035,557.13651 a 27.754364,28.209354 81.666184 0 0 -24.14572,28.10667 l -23.57997,3.45415 a 16.115436,16.379626 81.666184 0 0 -17.6471,-10.22164 16.115436,16.379626 81.666184 0 0 -13.87149,18.32047 16.115436,16.379626 81.666184 0 0 18.54309,13.57036 16.115436,16.379626 81.666184 0 0 13.98434,-14.85524 l 23.57822,-3.4539 a 27.754364,28.209354 81.666184 0 0 31.18406,20.00156 27.754364,28.209354 81.666184 0 0 23.88864,-31.54898 27.754364,28.209354 81.666184 0 0 -31.93407,-23.37345 z"
       id="path7674"
       inkscape:connector-curvature="0" />
    <path
       style="opacity:1;fill:#eeeeee;fill-opacity:1;fill-rule:nonzero;stroke:#6467b9;stroke-width:0;stroke-linecap:butt;stroke-linejoin:miter;stroke-miterlimit:4;stroke-dasharray:none;stroke-opacity:1"
       d="m 445.40509,623.15057 a 38.525919,37.904531 9.5451399 0 0 -43.16832,26.40801 l -32.09658,-5.39714 a 22.369889,22.009081 9.5451399 0 0 -18.65122,-20.68481 22.369889,22.009081 9.5451399 0 0 -25.71109,17.99611 22.369889,22.009081 9.5451399 0 0 18.41174,25.41303 22.369889,22.009081 9.5451399 0 0 24.40484,-13.44484 l 32.0942,5.39673 a 38.525919,37.904531 9.5451399 0 0 32.14547,39.07221 38.525919,37.904531 9.5451399 0 0 44.27747,-30.98998 38.525919,37.904531 9.5451399 0 0 -31.70651,-43.76932 z"
       id="path7674-2"
       inkscape:connector-curvature="0" />
    <path
       style="opacity:1;fill:#eeeeee;fill-opacity:1;fill-rule:nonzero;stroke:#6467b9;stroke-width:0;stroke-linecap:butt;stroke-linejoin:miter;stroke-miterlimit:4;stroke-dasharray:none;stroke-opacity:1"
       d="m 389.55433,701.62583 a 32.072921,31.555615 30.927806 0 0 -41.47951,7.36871 L 324.8318,695.06853 a 18.622987,18.322614 30.927806 0 0 -8.18001,-21.69596 18.622987,18.322614 30.927806 0 0 -25.39348,6.14656 18.622987,18.322614 30.927806 0 0 6.55921,25.28857 18.622987,18.322614 30.927806 0 0 22.99945,-3.0149 l 23.24131,13.92496 a 32.072921,31.555615 30.927806 0 0 13.05966,40.04572 32.072921,31.555615 30.927806 0 0 43.7301,-10.58401 32.072921,31.555615 30.927806 0 0 -11.29371,-43.55364 z"
       id="path7674-5"
       inkscape:connector-curvature="0" />
    <path
       style="opacity:1;fill:#eeeeee;fill-opacity:1;fill-rule:nonzero;stroke:#6467b9;stroke-width:0;stroke-linecap:butt;stroke-linejoin:miter;stroke-miterlimit:4;stroke-dasharray:none;stroke-opacity:1"
       d="m 315.36534,741.64953 a 22.763888,22.396728 46.835618 0 0 -29.7463,-3.0396 L 272.4631,724.58278 a 13.217742,13.004551 46.835618 0 0 -1.3628,-16.4004 13.217742,13.004551 46.835618 0 0 -18.52864,-0.74448 13.217742,13.004551 46.835618 0 0 -0.44241,18.53731 13.217742,13.004551 46.835618 0 0 16.28532,2.41635 l 13.15498,14.0261 a 22.763888,22.396728 46.835618 0 0 1.12381,29.87471 22.763888,22.396728 46.835618 0 0 31.90799,1.28276 22.763888,22.396728 46.835618 0 0 0.76399,-31.9256 z"
       id="path7674-5-7"
       inkscape:connector-curvature="0" />
    <path
       style="opacity:1;fill:#eeeeee;fill-opacity:1;fill-rule:nonzero;stroke:#6467b9;stroke-width:0;stroke-linecap:butt;stroke-linejoin:miter;stroke-miterlimit:4;stroke-dasharray:none;stroke-opacity:1"
       d="m 245.74651,748.93108 a 11.595006,11.407989 74.48642 0 0 -12.70263,-8.403 l -2.61998,-9.43871 a 6.732584,6.6239931 74.48642 0 0 3.26192,-7.72179 6.732584,6.6239931 74.48642 0 0 -8.1839,-4.71579 6.732584,6.6239931 74.48642 0 0 -4.58154,8.25922 6.732584,6.6239931 74.48642 0 0 6.77653,4.93982 l 2.61981,9.43802 a 11.595006,11.407989 74.48642 0 0 -6.55487,13.74474 11.595006,11.407989 74.48642 0 0 14.09324,8.12131 11.595006,11.407989 74.48642 0 0 7.89142,-14.22382 z"
       id="path7674-5-7-5"
       inkscape:connector-curvature="0" />
  </g>
</svg>
