<?xml version="1.0" encoding="utf-8"?>
<!-- Generator: Adobe Illustrator 23.0.3, SVG Export Plug-In . SVG Version: 6.00 Build 0)  -->
<svg version="1.1" xmlns="http://www.w3.org/2000/svg" xmlns:xlink="http://www.w3.org/1999/xlink" x="0px" y="0px"
	 viewBox="0 0 552.8 552.8" style="enable-background:new 0 0 552.8 552.8;" xml:space="preserve">
<style type="text/css">
	.st0{fill:#081826;stroke:#000000;stroke-linecap:round;stroke-linejoin:round;}
	.st1{fill:none;stroke:#081826;stroke-width:25;stroke-miterlimit:10;}
	.st2{display:none;}
	.st3{display:inline;fill:none;stroke:#FFFFFF;stroke-width:15;stroke-miterlimit:10;}
	.st4{fill:none;}
	.st5{opacity:0.15;fill:url(#SVGID_1_);}
	.st6{opacity:0.5;fill:url(#SVGID_2_);}
	.st7{fill:url(#SVGID_3_);}
	.st8{opacity:3.000000e-02;fill:none;stroke:#FFFFFF;stroke-width:2;stroke-miterlimit:10;}
	.st9{fill:none;stroke:#6668AF;stroke-width:15;stroke-miterlimit:10;}
</style>
<g id="bg" inkscape:version="0.91 r13725" sodipodi:docname="adept.svg" xmlns:cc="http://creativecommons.org/ns#" xmlns:dc="http://purl.org/dc/elements/1.1/" xmlns:inkscape="http://www.inkscape.org/namespaces/inkscape" xmlns:rdf="http://www.w3.org/1999/02/22-rdf-syntax-ns#" xmlns:sodipodi="http://sodipodi.sourceforge.net/DTD/sodipodi-0.dtd" xmlns:svg="http://www.w3.org/2000/svg">
	
		<sodipodi:namedview  bordercolor="#666666" borderopacity="1.0" id="base" inkscape:current-layer="layer1" inkscape:cx="-129.55511" inkscape:cy="304.64766" inkscape:document-units="px" inkscape:pageopacity="0.0" inkscape:pageshadow="2" inkscape:window-height="1017" inkscape:window-maximized="1" inkscape:window-width="1920" inkscape:window-x="-8" inkscape:window-y="-8" inkscape:zoom="0.98994949" pagecolor="#ffffff" showgrid="true" showguides="false">
		<inkscape:grid  id="grid4169" type="xygrid"></inkscape:grid>
	</sodipodi:namedview>
	<path class="st0" d="M81.7,252.6c0,0-32.9-61.6-3.8-104.3s69-48.6,87.4-49.5c18.3-0.9,20.7-9.6,20.7-9.6s41.4-58.3,86.5-51.7
		s77.8,33.7,87.1,53s24.3,16.3,24.3,16.3s59.2,8.8,75.8,34.6s32,52,15,106.7c-16.9,54.7-22.2,1.5-10.6,29.7
		c11.6,28.2,20.6,70.3,5.9,93.3c-14.7,23-37.3,49.5-66,52.5c-28.8,3.1-34.1-2.5-40.9,7.1S329.9,473,310.6,480s-82.4,7.6-91.7-4.2
		c-9.3-11.8-31.5-47.3-42-51.3c-10.5-4-70.3-18.5-82.5-30.1c-12.2-11.6-40.5-38.5-32.8-67.8S57.8,298.6,81.7,252.6z"/>
	
		<ellipse transform="matrix(0.5255 -0.8508 0.8508 0.5255 -94.9976 356.5431)" class="st1" cx="272.2" cy="263.4" rx="135.6" ry="225.9"/>
	
		<ellipse transform="matrix(1.647217e-03 -1 1 1.647217e-03 8.2701 535.1669)" class="st1" cx="272.2" cy="263.4" rx="225.9" ry="135.6"/>
	
		<ellipse transform="matrix(0.8913 -0.4533 0.4533 0.8913 -89.8543 152.0044)" class="st1" cx="272.2" cy="263.4" rx="225.9" ry="135.6"/>
</g>
<g id="Layer_4" class="st2">
	
		<ellipse transform="matrix(0.5255 -0.8508 0.8508 0.5255 -94.9976 356.5431)" class="st3" cx="272.2" cy="263.4" rx="135.6" ry="225.9"/>
	
		<ellipse transform="matrix(1.647217e-03 -1 1 1.647217e-03 8.2701 535.1669)" class="st3" cx="272.2" cy="263.4" rx="225.9" ry="135.6"/>
	
		<ellipse transform="matrix(0.8913 -0.4533 0.4533 0.8913 -89.8543 152.0044)" class="st3" cx="272.2" cy="263.4" rx="225.9" ry="135.6"/>
</g>
<g id="Layer_3">
	<g>
		<line class="st4" x1="273.9" y1="261.9" x2="326.3" y2="256.9"/>
		<circle class="st4" cx="273.9" cy="261.9" r="43.8"/>
		<circle class="st4" cx="273.9" cy="261.9" r="52.6"/>
		<polyline class="st4" points="273.9,261.9 485.6,318 273.9,261.9 62.2,205.9 273.9,261.9 217.9,473.6 273.9,261.9 330,50.2 
			273.9,261.9 369.2,281.9 273.9,261.9 178.7,242 273.9,261.9 254,357.2 273.9,261.9 293.9,166.7 273.9,261.9 346.7,247.8 
			273.9,261.9 201.2,276.1 273.9,261.9 288.1,334.7 273.9,261.9 259.8,189.2 273.9,261.9 319.6,319.3 273.9,261.9 228.2,204.6 
			273.9,261.9 216.6,307.6 273.9,261.9 331.3,216.2 273.9,261.9 462.1,308.8 273.9,261.9 85.7,215.1 273.9,261.9 227.1,450.1 
			273.9,261.9 320.8,73.7 273.9,261.9 517.1,343.6 273.9,261.9 30.8,180.3 273.9,261.9 192.3,505.1 273.9,261.9 355.6,18.8 
			273.9,261.9 329.9,302 273.9,261.9 218,221.9 273.9,261.9 233.9,317.9 273.9,261.9 314,206 273.9,261.9 399.1,345.4 273.9,261.9 
			148.8,178.4 273.9,261.9 190.4,387.1 273.9,261.9 357.4,136.8 273.9,261.9 371.6,330.6 273.9,261.9 176.3,193.3 273.9,261.9 
			205.3,359.6 273.9,261.9 342.6,164.3 273.9,261.9 406.6,207.5 273.9,261.9 141.3,316.4 273.9,261.9 328.4,394.6 273.9,261.9 
			219.5,129.3 273.9,261.9 432.5,369.5 273.9,261.9 115.4,154.4 273.9,261.9 166.4,420.5 273.9,261.9 381.5,103.4 273.9,261.9 
			508.7,158.4 273.9,261.9 39.2,365.4 273.9,261.9 377.4,496.7 273.9,261.9 170.4,27.2 273.9,261.9 388.3,280.2 273.9,261.9 
			159.6,243.7 273.9,261.9 255.7,376.3 273.9,261.9 292.2,147.6 273.9,261.9 286.4,256.9 273.9,261.9 261.5,267 273.9,261.9 
			279,274.4 273.9,261.9 268.9,249.5 273.9,261.9 369.7,323.5 273.9,261.9 178.2,200.4 273.9,261.9 212.4,357.7 273.9,261.9 
			335.5,166.2 		"/>
		<radialGradient id="SVGID_1_" cx="273.9412" cy="261.9412" r="105.1069" gradientUnits="userSpaceOnUse">
			<stop  offset="0" style="stop-color:#000000"/>
			<stop  offset="0.73" style="stop-color:#93432A"/>
			<stop  offset="1" style="stop-color:#000000"/>
		</radialGradient>
		<circle class="st5" cx="273.9" cy="261.9" r="105.1"/>
		<radialGradient id="SVGID_2_" cx="273.9412" cy="261.9412" r="52.5534" gradientUnits="userSpaceOnUse">
			<stop  offset="0.15" style="stop-color:#FFFFFF"/>
			<stop  offset="0.2134" style="stop-color:#D7C0BE"/>
			<stop  offset="0.2931" style="stop-color:#B68A8A"/>
			<stop  offset="0.362" style="stop-color:#A16A6B"/>
			<stop  offset="0.4166" style="stop-color:#95585B"/>
			<stop  offset="0.45" style="stop-color:#915155"/>
			<stop  offset="0.5442" style="stop-color:#78312E"/>
			<stop  offset="0.6472" style="stop-color:#5C0E05"/>
			<stop  offset="0.7362" style="stop-color:#410000"/>
			<stop  offset="0.8068" style="stop-color:#200000"/>
			<stop  offset="0.85" style="stop-color:#000000"/>
			<stop  offset="0.856" style="stop-color:#120000"/>
			<stop  offset="0.8623" style="stop-color:#300000"/>
			<stop  offset="0.8686" style="stop-color:#470000"/>
			<stop  offset="0.875" style="stop-color:#5C0000"/>
			<stop  offset="0.8815" style="stop-color:#751400"/>
			<stop  offset="0.888" style="stop-color:#912A15"/>
			<stop  offset="0.8945" style="stop-color:#B44126"/>
			<stop  offset="0.9" style="stop-color:#D65836"/>
			<stop  offset="0.9063" style="stop-color:#BD472B"/>
			<stop  offset="0.916" style="stop-color:#9D311B"/>
			<stop  offset="0.9262" style="stop-color:#801D09"/>
			<stop  offset="0.9367" style="stop-color:#690900"/>
			<stop  offset="0.9475" style="stop-color:#530000"/>
			<stop  offset="0.9588" style="stop-color:#410000"/>
			<stop  offset="0.9707" style="stop-color:#290000"/>
			<stop  offset="0.9838" style="stop-color:#0F0000"/>
			<stop  offset="1" style="stop-color:#000000"/>
		</radialGradient>
		<circle class="st6" cx="273.9" cy="261.9" r="52.6"/>
		<radialGradient id="SVGID_3_" cx="273.9412" cy="261.9412" r="43.7945" gradientUnits="userSpaceOnUse">
			<stop  offset="0.15" style="stop-color:#FFFFFF"/>
			<stop  offset="0.2824" style="stop-color:#9C9593"/>
			<stop  offset="0.4253" style="stop-color:#5A5250"/>
			<stop  offset="0.5636" style="stop-color:#302A28"/>
			<stop  offset="0.6936" style="stop-color:#0F0704"/>
			<stop  offset="0.8134" style="stop-color:#000000"/>
			<stop  offset="0.9192" style="stop-color:#000000"/>
			<stop  offset="1" style="stop-color:#000000"/>
		</radialGradient>
		<circle class="st7" cx="273.9" cy="261.9" r="43.8"/>
		<polyline class="st8" points="273.9,261.9 485.6,318 273.9,261.9 62.2,205.9 273.9,261.9 217.9,473.6 273.9,261.9 330,50.2 
			273.9,261.9 369.2,281.9 273.9,261.9 178.7,242 273.9,261.9 254,357.2 273.9,261.9 293.9,166.7 273.9,261.9 346.7,247.8 
			273.9,261.9 201.2,276.1 273.9,261.9 288.1,334.7 273.9,261.9 259.8,189.2 273.9,261.9 319.6,319.3 273.9,261.9 228.2,204.6 
			273.9,261.9 216.6,307.6 273.9,261.9 331.3,216.2 273.9,261.9 462.1,308.8 273.9,261.9 85.7,215.1 273.9,261.9 227.1,450.1 
			273.9,261.9 320.8,73.7 273.9,261.9 517.1,343.6 273.9,261.9 30.8,180.3 273.9,261.9 192.3,505.1 273.9,261.9 355.6,18.8 
			273.9,261.9 329.9,302 273.9,261.9 218,221.9 273.9,261.9 233.9,317.9 273.9,261.9 314,206 273.9,261.9 399.1,345.4 273.9,261.9 
			148.8,178.4 273.9,261.9 190.4,387.1 273.9,261.9 357.4,136.8 273.9,261.9 371.6,330.6 273.9,261.9 176.3,193.3 273.9,261.9 
			205.3,359.6 273.9,261.9 342.6,164.3 273.9,261.9 406.6,207.5 273.9,261.9 141.3,316.4 273.9,261.9 328.4,394.6 273.9,261.9 
			219.5,129.3 273.9,261.9 432.5,369.5 273.9,261.9 115.4,154.4 273.9,261.9 166.4,420.5 273.9,261.9 381.5,103.4 273.9,261.9 
			508.7,158.4 273.9,261.9 39.2,365.4 273.9,261.9 377.4,496.7 273.9,261.9 170.4,27.2 273.9,261.9 388.3,280.2 273.9,261.9 
			159.6,243.7 273.9,261.9 255.7,376.3 273.9,261.9 292.2,147.6 273.9,261.9 286.4,256.9 273.9,261.9 261.5,267 273.9,261.9 
			279,274.4 273.9,261.9 268.9,249.5 273.9,261.9 369.7,323.5 273.9,261.9 178.2,200.4 273.9,261.9 212.4,357.7 273.9,261.9 
			335.5,166.2 		"/>
	</g>
</g>
<g id="Layer_2">
	
		<ellipse transform="matrix(0.5255 -0.8508 0.8508 0.5255 -94.9976 356.5426)" class="st9" cx="272.2" cy="263.4" rx="135.6" ry="225.9"/>
	
		<ellipse transform="matrix(1.647195e-03 -1 1 1.647195e-03 8.2701 535.1669)" class="st9" cx="272.2" cy="263.4" rx="225.9" ry="135.6"/>
	
		<ellipse transform="matrix(0.8913 -0.4533 0.4533 0.8913 -89.8544 152.0026)" class="st9" cx="272.2" cy="263.4" rx="225.9" ry="135.6"/>
</g>
</svg>
