<?xml version="1.0" encoding="utf-8"?>
<!-- Generator: Adobe Illustrator 23.0.3, SVG Export Plug-In . SVG Version: 6.00 Build 0)  -->
<svg version="1.1" xmlns="http://www.w3.org/2000/svg" xmlns:xlink="http://www.w3.org/1999/xlink" x="0px" y="0px"
	 viewBox="0 0 552.8 552.8" style="enable-background:new 0 0 552.8 552.8;" xml:space="preserve">
<style type="text/css">
	.st0{fill:#081826;stroke:#000000;stroke-linecap:round;stroke-linejoin:round;}
	.st1{display:none;}
	.st2{display:inline;fill:none;stroke:#FFFFFF;stroke-width:20;stroke-linecap:round;stroke-linejoin:round;}
	.st3{fill:none;stroke:#C8252C;stroke-width:20;stroke-linecap:round;stroke-linejoin:round;}
	.st4{fill:none;stroke:#081826;stroke-width:25;stroke-miterlimit:10;}
	.st5{fill:none;stroke:#C8252C;stroke-width:15;stroke-miterlimit:10;}
	.st6{fill:#FFFFFF;}
</style>
<g id="Layer_3">
	<circle class="st0" cx="272.7" cy="263" r="179.9"/>
</g>
<g id="Layer_6" class="st1">
	<circle class="st2" cx="272.7" cy="263" r="165.1"/>
</g>
<g id="Layer_5">
	<circle class="st3" cx="272.7" cy="263" r="165.1"/>
</g>
<g id="Layer_7">
	<line class="st4" x1="272.7" y1="39.7" x2="272.7" y2="83.1"/>
	<line class="st4" x1="252.3" y1="39.4" x2="293.3" y2="39.4"/>
	<line class="st4" x1="272.7" y1="442.2" x2="272.7" y2="486.1"/>
	<line class="st4" x1="252.2" y1="486.1" x2="293.5" y2="486.1"/>
	<line class="st4" x1="495.9" y1="262.6" x2="453" y2="262.6"/>
	<line class="st4" x1="496.2" y1="240.7" x2="496.2" y2="284.8"/>
	<line class="st4" x1="94.9" y1="262.6" x2="49.4" y2="262.6"/>
	<line class="st4" x1="49.4" y1="241.5" x2="49.4" y2="284"/>
</g>
<g id="Layer_4">
	<line class="st5" x1="272.7" y1="39.7" x2="272.7" y2="155.5"/>
	<line class="st5" x1="256.5" y1="39.4" x2="289.2" y2="39.4"/>
	<line class="st5" x1="256.5" y1="155.5" x2="289.2" y2="155.5"/>
	<line class="st5" x1="272.7" y1="370.4" x2="272.7" y2="486.1"/>
	<line class="st5" x1="256.5" y1="370" x2="289.2" y2="370"/>
	<line class="st5" x1="256.5" y1="486.1" x2="289.2" y2="486.1"/>
	<line class="st5" x1="495.9" y1="262.6" x2="380.1" y2="262.6"/>
	<line class="st5" x1="496.2" y1="246.4" x2="496.2" y2="279.1"/>
	<line class="st5" x1="380.1" y1="246.4" x2="380.1" y2="279.1"/>
	<line class="st5" x1="165.2" y1="262.6" x2="49.4" y2="262.6"/>
	<line class="st5" x1="165.5" y1="246.4" x2="165.5" y2="279.1"/>
	<line class="st5" x1="49.4" y1="246.4" x2="49.4" y2="279.1"/>
</g>
<g id="Layer_2">
	<g>
		
			<rect x="187.7" y="319" transform="matrix(0.7757 -0.6311 0.6311 0.7757 -163.2753 195.8608)" class="st6" width="12.3" height="17.2"/>
		<path class="st6" d="M205.9,328.9c0,0,22.8-18.6,25.3-20.6c2.4-2,17.4-17.7,13.9-22.4c-3.6-4.7-22.8,7.4-24.7,9
			c-2,1.6-25.3,20.6-25.3,20.6L205.9,328.9z"/>
	</g>
	<g>
		
			<rect x="270.1" y="252" transform="matrix(0.7757 -0.6311 0.6311 0.7757 -102.5294 232.7949)" class="st6" width="12.3" height="17.2"/>
		<path class="st6" d="M288.2,261.9c0,0,22.8-18.6,25.3-20.6c2.4-2,17.4-17.7,13.9-22.4c-3.6-4.7-22.8,7.4-24.7,9
			c-2,1.6-25.3,20.6-25.3,20.6L288.2,261.9z"/>
	</g>
	<g>
		
			<rect x="196.5" y="276.5" transform="matrix(0.7757 -0.6311 0.6311 0.7757 -134.4518 191.8489)" class="st6" width="12.3" height="17.2"/>
		<path class="st6" d="M214.7,286.4c0,0,22.8-18.6,25.3-20.6c2.4-2,17.4-17.7,13.9-22.4c-3.6-4.7-22.8,7.4-24.7,9
			c-2,1.6-25.3,20.6-25.3,20.6L214.7,286.4z"/>
	</g>
	<g>
		
			<rect x="278.8" y="209.5" transform="matrix(0.7757 -0.6311 0.6311 0.7757 -73.706 228.783)" class="st6" width="12.3" height="17.2"/>
		<path class="st6" d="M297,219.4c0,0,22.8-18.6,25.3-20.6s17.4-17.7,13.9-22.4c-3.6-4.7-22.8,7.4-24.7,9S286.1,206,286.1,206
			L297,219.4z"/>
	</g>
	<g>
		
			<rect x="230.9" y="318.7" transform="matrix(0.7757 -0.6311 0.6311 0.7757 -153.4091 223.0282)" class="st6" width="12.3" height="17.2"/>
		<path class="st6" d="M249.1,328.6c0,0,22.8-18.6,25.3-20.6c2.4-2,17.4-17.7,13.9-22.4c-3.6-4.7-22.8,7.4-24.7,9
			c-2,1.6-25.3,20.6-25.3,20.6L249.1,328.6z"/>
	</g>
	<g>
		
			<rect x="313.2" y="251.7" transform="matrix(0.7757 -0.6311 0.6311 0.7757 -92.6633 259.9623)" class="st6" width="12.3" height="17.2"/>
		<path class="st6" d="M331.4,261.6c0,0,22.8-18.6,25.3-20.6c2.4-2,17.4-17.7,13.9-22.4c-3.6-4.7-22.8,7.4-24.7,9
			c-2,1.6-25.3,20.6-25.3,20.6L331.4,261.6z"/>
	</g>
</g>
</svg>
