<?xml version="1.0" encoding="utf-8"?>
<!-- Generator: Adobe Illustrator 23.0.3, SVG Export Plug-In . SVG Version: 6.00 Build 0)  -->
<svg version="1.1" xmlns="http://www.w3.org/2000/svg" xmlns:xlink="http://www.w3.org/1999/xlink" x="0px" y="0px"
	 viewBox="0 0 552.8 552.8" style="enable-background:new 0 0 552.8 552.8;" xml:space="preserve">
<style type="text/css">
	
		.st0{fill-rule:evenodd;clip-rule:evenodd;fill:#081826;stroke:#081826;stroke-width:10;stroke-linecap:round;stroke-linejoin:round;}
	.st1{fill:none;stroke:#C5791E;stroke-width:15;stroke-linecap:round;stroke-linejoin:round;}
	.st2{fill:#FFFFFF;}
	.st3{fill:#081826;}
</style>
<g id="bg" inkscape:version="0.91 r13725" sodipodi:docname="adept.svg" xmlns:cc="http://creativecommons.org/ns#" xmlns:dc="http://purl.org/dc/elements/1.1/" xmlns:inkscape="http://www.inkscape.org/namespaces/inkscape" xmlns:rdf="http://www.w3.org/1999/02/22-rdf-syntax-ns#" xmlns:sodipodi="http://sodipodi.sourceforge.net/DTD/sodipodi-0.dtd" xmlns:svg="http://www.w3.org/2000/svg">
	
		<sodipodi:namedview  bordercolor="#666666" borderopacity="1.0" id="base" inkscape:current-layer="layer1" inkscape:cx="-129.55511" inkscape:cy="304.64766" inkscape:document-units="px" inkscape:pageopacity="0.0" inkscape:pageshadow="2" inkscape:window-height="1017" inkscape:window-maximized="1" inkscape:window-width="1920" inkscape:window-x="-8" inkscape:window-y="-8" inkscape:zoom="0.98994949" pagecolor="#ffffff" showgrid="true" showguides="false">
		<inkscape:grid  id="grid4169" type="xygrid"></inkscape:grid>
	</sodipodi:namedview>
	
		<path id="path4236" inkscape:connector-curvature="0" inkscape:export-xdpi="240" inkscape:export-ydpi="240" sodipodi:nodetypes="cccccc" class="st0" d="
		M28.4,44.2h488.5v247.6c-64,168-240,240-240,240s-176-72-248-240L28.4,44.2z"/>
	<path id="path4236-2" inkscape:connector-curvature="0" sodipodi:nodetypes="cccccc" class="st1" d="M44.8,60.8h455.7v230.7
		c-59.7,156.5-223.9,223.6-223.9,223.6S112.5,448.1,45.3,291.5L44.8,60.8z"/>
</g>
<g id="Layer_3">
</g>
<g id="Layer_2">
	<g>
		<circle id="path8598_1_" class="st2" cx="175" cy="179.3" r="71.5"/>
		<polyline class="st2" points="158.2,115.6 158.2,93.1 191.8,93.1 191.8,115.6 		"/>
		<polyline class="st2" points="191.8,243 191.8,265.5 158.2,265.5 158.2,243 		"/>
		<circle id="path8598_2_" class="st3" cx="175" cy="179.3" r="59.7"/>
		<polyline class="st2" points="238.7,162.5 261.2,162.5 261.2,196 238.7,196 		"/>
		<polyline class="st2" points="111.3,196 88.8,196 88.8,162.5 111.3,162.5 		"/>
		<polyline class="st2" points="118.1,146.1 102.2,130.2 125.9,106.4 141.8,122.4 		"/>
		<polyline class="st2" points="231.9,212.5 247.8,228.4 224.1,252.1 208.2,236.2 		"/>
		<polyline class="st2" points="208.2,122.4 224.1,106.4 247.8,130.2 231.9,146.1 		"/>
		<polyline class="st2" points="141.8,236.2 125.9,252.1 102.2,228.4 118.1,212.5 		"/>
	</g>
</g>
<g id="Layer_4">
	<g>
		
			<rect x="221.1" y="226.9" transform="matrix(0.7071 -0.7071 0.7071 0.7071 -90.2724 284.744)" class="st3" width="154.9" height="48.9"/>
		<polygon class="st2" points="411.9,167.7 302.4,277.2 272.4,247.3 381.9,137.7 384.6,165 		"/>
		<polygon class="st2" points="433.8,98.1 350.4,181.6 345,127 379.2,92.8 		"/>
		<polygon class="st2" points="368.1,199.2 451.5,115.8 456.9,170.4 422.7,204.6 		"/>
		<polygon class="st2" points="180.2,339.5 289.7,229.9 319.7,259.9 210.2,369.5 207.5,342.2 		"/>
		<polygon class="st2" points="158.3,409.1 241.7,325.6 247.1,380.2 212.9,414.4 		"/>
		<polygon class="st2" points="224,307.9 140.6,391.4 135.2,336.8 169.4,302.6 		"/>
	</g>
</g>
</svg>
