<?xml version="1.0" encoding="utf-8"?>
<!-- Generator: Adobe Illustrator 23.0.3, SVG Export Plug-In . SVG Version: 6.00 Build 0)  -->
<svg version="1.1" xmlns="http://www.w3.org/2000/svg" xmlns:xlink="http://www.w3.org/1999/xlink" x="0px" y="0px"
	 viewBox="0 0 552.8 552.8" style="enable-background:new 0 0 552.8 552.8;" xml:space="preserve">
<style type="text/css">
	
		.st0{fill-rule:evenodd;clip-rule:evenodd;fill:#081826;stroke:#081826;stroke-width:10;stroke-linecap:round;stroke-linejoin:round;}
	.st1{fill:none;stroke:#6668AF;stroke-width:15;stroke-linecap:round;stroke-linejoin:round;}
	.st2{fill:none;stroke:#AC2B35;stroke-width:15;stroke-linecap:round;stroke-linejoin:round;}
	.st3{fill:none;}
	.st4{opacity:0.15;fill:url(#SVGID_1_);}
	.st5{opacity:0.5;fill:url(#SVGID_2_);}
	.st6{fill:url(#SVGID_3_);}
	.st7{opacity:3.000000e-02;fill:none;stroke:#FFFFFF;stroke-width:2;stroke-miterlimit:10;}
	.st8{fill:none;stroke:#FFFFFF;stroke-width:15;stroke-miterlimit:10;}
	.st9{fill:none;stroke:#5A4A86;stroke-width:10;stroke-miterlimit:10;}
	.st10{fill:#FFFFFF;stroke:#081826;stroke-miterlimit:10;}
</style>
<g id="bg" inkscape:version="0.91 r13725" sodipodi:docname="adept.svg" xmlns:cc="http://creativecommons.org/ns#" xmlns:dc="http://purl.org/dc/elements/1.1/" xmlns:inkscape="http://www.inkscape.org/namespaces/inkscape" xmlns:rdf="http://www.w3.org/1999/02/22-rdf-syntax-ns#" xmlns:sodipodi="http://sodipodi.sourceforge.net/DTD/sodipodi-0.dtd" xmlns:svg="http://www.w3.org/2000/svg">
	
		<sodipodi:namedview  bordercolor="#666666" borderopacity="1.0" id="base" inkscape:current-layer="layer1" inkscape:cx="-129.55511" inkscape:cy="304.64766" inkscape:document-units="px" inkscape:pageopacity="0.0" inkscape:pageshadow="2" inkscape:window-height="1017" inkscape:window-maximized="1" inkscape:window-width="1920" inkscape:window-x="-8" inkscape:window-y="-8" inkscape:zoom="0.98994949" pagecolor="#ffffff" showgrid="true" showguides="false">
		<inkscape:grid  id="grid4169" type="xygrid"></inkscape:grid>
	</sodipodi:namedview>
	
		<path id="path4236" inkscape:connector-curvature="0" inkscape:export-xdpi="240" inkscape:export-ydpi="240" sodipodi:nodetypes="cccccc" class="st0" d="
		M28.4,44.2h488.5v247.6c-64,168-240,240-240,240s-176-72-248-240L28.4,44.2z"/>
	<path id="path4236-2_3_" inkscape:connector-curvature="0" sodipodi:nodetypes="cccccc" class="st1" d="M266.6,510.2
		c0,0-154.2-62.1-221.3-218.7L44.9,60.8h217.8"/>
	<path id="path4236-2_1_" inkscape:connector-curvature="0" sodipodi:nodetypes="cccccc" class="st2" d="M282.7,60.8h217.8v230.7
		c-59.7,156.5-213.9,218.6-213.9,218.6"/>
</g>
<g id="Layer_3">
	<g>
		<g>
			<line class="st3" x1="272.7" y1="190.5" x2="298.7" y2="188"/>
			<circle class="st3" cx="272.7" cy="190.5" r="21.8"/>
			<circle class="st3" cx="272.7" cy="190.5" r="26.1"/>
			<polyline class="st3" points="272.7,190.5 377.9,218.3 272.7,190.5 167.5,162.6 272.7,190.5 244.9,295.7 272.7,190.5 300.5,85.3 
				272.7,190.5 320,200.4 272.7,190.5 225.4,180.6 272.7,190.5 262.8,237.8 272.7,190.5 282.6,143.2 272.7,190.5 308.9,183.5 
				272.7,190.5 236.5,197.5 272.7,190.5 279.7,226.6 272.7,190.5 265.7,154.3 272.7,190.5 295.4,219 272.7,190.5 250,162 
				272.7,190.5 244.2,213.2 272.7,190.5 301.2,167.8 272.7,190.5 366.2,213.8 272.7,190.5 179.2,167.2 272.7,190.5 249.4,284 
				272.7,190.5 296,97 272.7,190.5 393.5,231 272.7,190.5 151.9,149.9 272.7,190.5 232.1,311.3 272.7,190.5 313.3,69.7 272.7,190.5 
				300.5,210.4 272.7,190.5 244.9,170.6 272.7,190.5 252.8,218.3 272.7,190.5 292.6,162.7 272.7,190.5 334.9,232 272.7,190.5 
				210.5,149 272.7,190.5 231.2,252.6 272.7,190.5 314.2,128.3 272.7,190.5 321.2,224.6 272.7,190.5 224.2,156.4 272.7,190.5 
				238.6,239 272.7,190.5 306.8,142 272.7,190.5 338.6,163.4 272.7,190.5 206.8,217.5 272.7,190.5 299.7,256.4 272.7,190.5 
				245.6,124.6 272.7,190.5 351.5,243.9 272.7,190.5 193.9,137 272.7,190.5 219.2,269.2 272.7,190.5 326.1,111.7 272.7,190.5 
				389.3,139.1 272.7,190.5 156.1,241.9 272.7,190.5 324.1,307.1 272.7,190.5 221.3,73.8 272.7,190.5 329.5,199.6 272.7,190.5 
				215.9,181.4 272.7,190.5 263.6,247.3 272.7,190.5 281.8,133.7 272.7,190.5 278.9,188 272.7,190.5 266.5,193 272.7,190.5 
				275.2,196.7 272.7,190.5 270.2,184.3 272.7,190.5 320.3,221.1 272.7,190.5 225.1,159.9 272.7,190.5 242.1,238 272.7,190.5 
				303.3,142.9 			"/>
			<radialGradient id="SVGID_1_" cx="272.6911" cy="190.4824" r="52.224" gradientUnits="userSpaceOnUse">
				<stop  offset="0" style="stop-color:#000000"/>
				<stop  offset="0.73" style="stop-color:#93432A"/>
				<stop  offset="1" style="stop-color:#000000"/>
			</radialGradient>
			<circle class="st4" cx="272.7" cy="190.5" r="52.2"/>
			<radialGradient id="SVGID_2_" cx="272.6911" cy="190.4824" r="26.112" gradientUnits="userSpaceOnUse">
				<stop  offset="0.15" style="stop-color:#FFFFFF"/>
				<stop  offset="0.2134" style="stop-color:#D7C0BE"/>
				<stop  offset="0.2931" style="stop-color:#B68A8A"/>
				<stop  offset="0.362" style="stop-color:#A16A6B"/>
				<stop  offset="0.4166" style="stop-color:#95585B"/>
				<stop  offset="0.45" style="stop-color:#915155"/>
				<stop  offset="0.5442" style="stop-color:#78312E"/>
				<stop  offset="0.6472" style="stop-color:#5C0E05"/>
				<stop  offset="0.7362" style="stop-color:#410000"/>
				<stop  offset="0.8068" style="stop-color:#200000"/>
				<stop  offset="0.85" style="stop-color:#000000"/>
				<stop  offset="0.856" style="stop-color:#120000"/>
				<stop  offset="0.8623" style="stop-color:#300000"/>
				<stop  offset="0.8686" style="stop-color:#470000"/>
				<stop  offset="0.875" style="stop-color:#5C0000"/>
				<stop  offset="0.8815" style="stop-color:#751400"/>
				<stop  offset="0.888" style="stop-color:#912A15"/>
				<stop  offset="0.8945" style="stop-color:#B44126"/>
				<stop  offset="0.9" style="stop-color:#D65836"/>
				<stop  offset="0.9063" style="stop-color:#BD472B"/>
				<stop  offset="0.916" style="stop-color:#9D311B"/>
				<stop  offset="0.9262" style="stop-color:#801D09"/>
				<stop  offset="0.9367" style="stop-color:#690900"/>
				<stop  offset="0.9475" style="stop-color:#530000"/>
				<stop  offset="0.9588" style="stop-color:#410000"/>
				<stop  offset="0.9707" style="stop-color:#290000"/>
				<stop  offset="0.9838" style="stop-color:#0F0000"/>
				<stop  offset="1" style="stop-color:#000000"/>
			</radialGradient>
			<circle class="st5" cx="272.7" cy="190.5" r="26.1"/>
			<radialGradient id="SVGID_3_" cx="272.6911" cy="190.4824" r="21.76" gradientUnits="userSpaceOnUse">
				<stop  offset="0.15" style="stop-color:#FFFFFF"/>
				<stop  offset="0.2824" style="stop-color:#9C9593"/>
				<stop  offset="0.4253" style="stop-color:#5A5250"/>
				<stop  offset="0.5636" style="stop-color:#302A28"/>
				<stop  offset="0.6936" style="stop-color:#0F0704"/>
				<stop  offset="0.8134" style="stop-color:#000000"/>
				<stop  offset="0.9192" style="stop-color:#000000"/>
				<stop  offset="1" style="stop-color:#000000"/>
			</radialGradient>
			<circle class="st6" cx="272.7" cy="190.5" r="21.8"/>
			<polyline class="st7" points="272.7,190.5 377.9,218.3 272.7,190.5 167.5,162.6 272.7,190.5 244.9,295.7 272.7,190.5 300.5,85.3 
				272.7,190.5 320,200.4 272.7,190.5 225.4,180.6 272.7,190.5 262.8,237.8 272.7,190.5 282.6,143.2 272.7,190.5 308.9,183.5 
				272.7,190.5 236.5,197.5 272.7,190.5 279.7,226.6 272.7,190.5 265.7,154.3 272.7,190.5 295.4,219 272.7,190.5 250,162 
				272.7,190.5 244.2,213.2 272.7,190.5 301.2,167.8 272.7,190.5 366.2,213.8 272.7,190.5 179.2,167.2 272.7,190.5 249.4,284 
				272.7,190.5 296,97 272.7,190.5 393.5,231 272.7,190.5 151.9,149.9 272.7,190.5 232.1,311.3 272.7,190.5 313.3,69.7 272.7,190.5 
				300.5,210.4 272.7,190.5 244.9,170.6 272.7,190.5 252.8,218.3 272.7,190.5 292.6,162.7 272.7,190.5 334.9,232 272.7,190.5 
				210.5,149 272.7,190.5 231.2,252.6 272.7,190.5 314.2,128.3 272.7,190.5 321.2,224.6 272.7,190.5 224.2,156.4 272.7,190.5 
				238.6,239 272.7,190.5 306.8,142 272.7,190.5 338.6,163.4 272.7,190.5 206.8,217.5 272.7,190.5 299.7,256.4 272.7,190.5 
				245.6,124.6 272.7,190.5 351.5,243.9 272.7,190.5 193.9,137 272.7,190.5 219.2,269.2 272.7,190.5 326.1,111.7 272.7,190.5 
				389.3,139.1 272.7,190.5 156.1,241.9 272.7,190.5 324.1,307.1 272.7,190.5 221.3,73.8 272.7,190.5 329.5,199.6 272.7,190.5 
				215.9,181.4 272.7,190.5 263.6,247.3 272.7,190.5 281.8,133.7 272.7,190.5 278.9,188 272.7,190.5 266.5,193 272.7,190.5 
				275.2,196.7 272.7,190.5 270.2,184.3 272.7,190.5 320.3,221.1 272.7,190.5 225.1,159.9 272.7,190.5 242.1,238 272.7,190.5 
				303.3,142.9 			"/>
		</g>
		
			<ellipse transform="matrix(0.5255 -0.8508 0.8508 0.5255 -33.7277 321.9788)" class="st8" cx="271.8" cy="191.2" rx="67.4" ry="112.2"/>
		
			<ellipse transform="matrix(1.647217e-03 -1 1 1.647217e-03 80.1306 462.7185)" class="st8" cx="271.8" cy="191.2" rx="112.2" ry="67.4"/>
		
			<ellipse transform="matrix(0.8913 -0.4533 0.4533 0.8913 -57.1559 143.9974)" class="st8" cx="271.8" cy="191.2" rx="112.2" ry="67.4"/>
		
			<ellipse transform="matrix(0.5255 -0.8508 0.8508 0.5255 -33.7277 321.9788)" class="st9" cx="271.8" cy="191.2" rx="67.4" ry="112.2"/>
		
			<ellipse transform="matrix(1.647217e-03 -1 1 1.647217e-03 80.1306 462.7185)" class="st9" cx="271.8" cy="191.2" rx="112.2" ry="67.4"/>
		
			<ellipse transform="matrix(0.8913 -0.4533 0.4533 0.8913 -57.1559 143.9974)" class="st9" cx="271.8" cy="191.2" rx="112.2" ry="67.4"/>
	</g>
</g>
<g id="Layer_2">
	<g>
		<path class="st10" d="M364.7,338c-0.1-3.3-0.1-6.6-0.3-9.9c-0.2-2.3,0.3-3.4,2.9-3.1c11.3,1.2,22.8,1.3,34,3.9
			c7,1.6,13.5,4.4,19.5,8.2c2.6,1.6,6.4,1.8,5.2,6.4c-0.4,1.7,0.4,3.8-2.4,3.9c-1.2,0-1.7,1.3-1.8,2.1c-1.1,5.6-5.1,5.9-9.7,5.7
			c-5.1-0.2-10.3,0.3-15.4,0.2c-27.4-0.7-54.8-0.7-82.3,0.6c-4.2,0.2-9.6,3-12.2,0.1c-2.1-2.4-0.7-7.9-0.9-12
			c-0.1-1.1,0.7-3.1-1.6-2.8c-3.2,0.3-0.6,2.1-0.6,3.1c0.1,3.6,0.4,7.3,0.4,10.9c0.1,4.8-4.8,2.1-6.5,4.4c2.6,1.6,5-0.6,7.6-0.7
			c2.8-0.2,5.6-0.6,8.4-1.1c3.5-0.6,6.1,0.4,7.5,3.8c1.9,3.6,4.1,7,6.9,10c0.1,1.5-1,1.4-2,1.4c-6.6,0-13.2,0.1-19.8,0.1
			c-0.5-0.4-0.9-0.3-1,0.3c0,0.1,0.4,0.3,0.7,0.5c1,6.1,1,6.1-4.7,6.2c-2,0-4,0.2-5.9,0.1c-6.8-0.4-14.1,2.2-20.3-2.7
			c-0.2-0.1-0.7,0.2-1.1,0.4c2.7,3.9,6.2,5,10.7,4.7c6.6-0.5,13.2-0.5,19.8-0.4c3,0,4.7-0.5,4.1-4c-0.3-1.6-0.1-3,2.1-2.8
			c3.9,0.2,7.9-0.7,11.8,0.3c0.3,4-0.7,8.1,1.8,11.7c-0.1-3.9-0.2-7.9-0.2-11.8c1-1.6,2.7-0.9,4-1c16.3-0.4,32.6-0.8,48.8-1.2
			c2.6-0.1,5.3-0.2,7.9-0.3c1.7,0,3.5,0,5.2,0.1c2,0.1,2.4,1.9,3.3,3.2c2.6,3.9,5.1,7.8,7.7,11.7c0.1,1.9-1.4,1.5-2.4,1.5
			c-19.2,0.4-38.4,0.8-57.6,1.1c-0.9,0-2.1,0.3-2-1.3c0.3-0.3,0.5-0.6,0.8-0.9c0.3-0.4,0.6-0.7,0.9-1.1c0.3-0.3,0.6-0.7,1-1
			c0.7-0.4,1.6-1.4,1.1-1.8c-1.2-1-1.4,0.6-2,1.2c-0.3,0.3-0.6,0.7-0.9,1c-0.3,0.4-0.5,0.7-0.8,1.1c-0.2,0.3-0.4,0.7-0.7,1
			c-1.7,2.1-3.5,3.4-6.2,1.6c-1.3-0.9-2.7-1.4-4.4,0.2c-6.5,6.6-14.5,9-23.5,8.2c-3.7-0.3-5.8,1-7.3,4.3c-1.2,2.7-2.9,5.2-4.3,7.8
			c-2.2,4.2-3.5,8.3-2.5,13.3c1.1,5.5-0.8,6.9-6.3,5.7c-1.3-0.3-2.5-0.7-3.8-1.2c-11.6-4.1-12.8-7-7.6-18.3c1.4-3.2,3.4-6,5.5-8.8
			c4.4-6.1,3.5-11.6-3.4-14.4c-3-1.2-4-2.2-4-5.1c0-0.6-0.5-1.2-1.3-2.7c-0.7,9.1-0.7,9.1-8.7,9.2c-7.5,0.1-14.9,0.2-22.4,0.5
			c-2.3,0.1-3.5-0.5-3.2-2.9c0.5-3.1-1.2-3.4-3.8-3.3c-6.3,0.3-12.6,0.3-18.9,0.4c0,0-0.1-0.2-0.1-0.2c0.1-0.4,0.2-0.9,0.3-1.3
			c3.5-0.6,6-2.6,8.5-4.9c-3.4,0.7-6.4,2.2-9.1,4.3c-0.5,0.4-1.5,0.3-1.1,1.4l-0.2-0.1c-7.8,4-16.2,2.4-24.7,2.1
			c13.2-8.8,26.4-17.7,39.7-26.5c2.1-1.4,4.5-0.4,6.8-0.9c19.1-0.4,38.3-0.7,57.4-1.1c-0.9-2.4-2.9-1.6-4.6-1.5
			c-6.3,0-12.6,0.2-18.8,0.3c-1,0-2.4,0.7-3.1-0.7c-1.1-2-1-2-3.1-1.1c-3.2,1.4-6.4,2.3-10,2.2c-5.6-0.1-11.2,0.2-16.8,0.3
			c8.3-6,18.1-8.8,27.4-12.6c1.4-0.5,2.8-1,4.2-1.4c2.8-0.9,6.2-3,8.3-2.1c2.1,0.9,0.6,5,1,7.7c0.1,0.8-0.5,2.1,1.2,1.8
			c1.6-0.2,0.8-1,0.8-1.9c0-3.1-1.3-6.4,0.6-9.4c3.3-0.8,6.6-1.5,9.3-3.7c-3.4,0.1-7.4-1.8-9.2,2.8c-12.1,0.2-12.2,0.2-12.3-11.6
			c0-2.5-1.5-5.9,1.2-7.2c3.2-1.5,7.5-1.9,10.6-0.3c2.6,1.3,4.9,1.5,7.4,1.5c11.3-0.1,22.5-0.2,33.8-0.3c0,2.4-0.1,4.8-0.1,7.2
			c-1.1,0.1-2.3-0.4-3.6,1.1c1.5-0.5,2.9,0.6,3.6-1.2c2.7-1.2,1.2-3.9,2-5.8c3.5-0.1,7-0.1,10.4-0.2c3.3-0.1,6.7-0.7,7.6,4
			c0.3,1.9,2.2,1,3.4,1c7.8,0.1,15.5,0.1,23.3,0c2.7,0,4.1,0.3,4.1,3.7c0,3.4-1.2,4.2-4.3,4.3c-3.5,0.2-7.2-0.5-10.5,1.4
			c-0.7,0.2-1.5,0.7-2.2,0.7c-5.2-0.4-10.4-0.8-15.4,1.4c5.9,0.1,11.8,0.4,17.6-1.6c3.5,0.9,6.9,0.1,10.2-0.5
			c3.4-0.6,4.5,0.6,4.7,3.5c0.3,0.4,0.6,0.8,0.8,1.2c0.3,0.4,0.6,0.7,0.9,1.1c0.6,0.7,1.2,1.5,1.8,2.2c0.3,0.3,0.5,0.6,0.8,0.9
			c0.5,0.5,1,1.1,1.6,1.6c0.3,0.4,0.6,0.7,0.9,1.1c0.3,0.4,0.6,0.7,0.9,1.1c0.3,0.4,0.6,0.7,0.9,1.1c0.4,0.3,0.7,1.2,1.3,0.5
			c0.6-0.7-0.2-0.9-0.6-1.2c-0.3-0.3-0.6-0.7-1-1c-0.3-0.4-0.6-0.7-0.9-1.1c-0.2-0.4-0.5-0.7-0.7-1.1c-0.5-0.5-1.1-1.1-1.6-1.6
			c-0.3-0.4-0.6-0.7-0.9-1.1c-0.6-0.7-1.2-1.5-1.8-2.2c-0.2-0.3-0.5-0.7-0.7-1C365.2,338.2,365,338,364.7,338z M374.5,350.9
			c0.3,0.3,0.8,0.8,0.9,0.8c0.9-0.6,0.2-1-0.2-1.5c-0.4-0.3-0.7-1.2-1.3-0.5C373.3,350.4,374.1,350.6,374.5,350.9z M340,382.9
			c0.7-0.7,2.4-1.6,1.4-2.5c-1.1-1-1.6,0.8-2.1,1.6c-0.4,0.3-1.3,0.5-0.7,1.3C339.2,384,339.6,383.3,340,382.9z M227.7,361.5
			c-1.1-0.9-2.1-1.6-3.6,0C225.5,361.5,226.7,361.5,227.7,361.5c0.1,1.6,0.1,3.3,0.1,5c-1.2,0-2.4,0-4.1,0.1c1.8,1.4,3,1.1,4-0.1
			C229.2,364.8,229.3,363.2,227.7,361.5z M263.1,372.6c0.7,0.7,1.7,2.3,2.3,1.7c1-1.1,0-2.3-1.5-2.7c-1.3-1.7-3.1-0.8-4.6-0.8
			c-9.6,0.1-19.2,0.6-28.7,0.4c-5.5-0.1-9.5,2.4-13.6,5.5c4.2-2.3,11,5.3,13.4-3.8c0.1-0.2,0.9-0.3,1.4-0.4
			C242.2,372.3,252.7,372,263.1,372.6z M306.9,389.1c-1.6,0-3.3,0.2-4.9,0.1c-2.9-0.1-3.1,1.7-3.1,3.9c0,2.9,1.8,2.6,3.7,2.3
			c1.9-0.4,4-0.4,5.8-1.2c2.1-0.9,5.8-1.3,5.3-4.2c-0.4-2.1-3.7-0.6-5.7-0.9C307.5,389.1,307.2,389.1,306.9,389.1z M377.9,333.4
			c-0.9,0.7-1.4,0.8-1.5,1.2c-0.4,0.9,0.3,1.5,0.9,2.1c3.9,4.5,7.8,8.9,11.7,13.4c0.6,0.7,1.2,1.9,2.3,0.9c1.1-1,0-1.8-0.6-2.4
			c-3.9-4.5-7.8-8.9-11.6-13.4C378.5,334.6,378.2,334,377.9,333.4z M407.3,349.6c-0.2-0.2-0.3-0.4-0.4-0.5c-4.3-5-8.7-10-13-15
			c-0.4-0.5-1.1-0.8-1.7-0.2c-0.5,0.6-0.5,1.2,0,1.7c4.2,4.9,8.5,9.7,12.7,14.6c0.4,0.5,1,1,1.7,0.5
			C407,350.4,407.1,349.9,407.3,349.6z M385.2,333.2c-0.6,0.5-1.1,1.1-1.7,1.6c4.7,5.3,9.4,10.6,14.1,15.9c0.2,0.2,0.9,0.2,1.2,0
			c0.6-0.4,0.6-1,0.1-1.6C394.4,343.8,389.8,338.5,385.2,333.2z M384.3,350.2c-0.1-0.2-0.1-0.4-0.2-0.5c-4.4-5.1-8.9-10.2-13.4-15.3
			c-0.5-0.6-1.1-0.5-1.6,0.1c-0.5,0.7-0.2,1.2,0.3,1.7c4.1,4.7,8.2,9.5,12.4,14.2c0.4,0.4,1.1,0.7,1.7,0.8
			C383.7,351.3,384.1,350.6,384.3,350.2z M400.8,333.3c-2,1.1-1,2-0.3,2.9c3.9,4.5,7.8,8.9,11.7,13.4c0.6,0.6,1.2,1.9,2.3,0.7
			c0.9-1-0.1-1.8-0.7-2.5c-3.8-4.4-7.6-8.7-11.4-13C402,334.2,401.3,333.8,400.8,333.3z M316.1,371c0.5-0.2,1-0.4,1.6-0.6
			c-0.8-3.6-3.2-6.3-5.5-9.1c-0.2-0.2-1-0.2-1.3,0c-0.7,0.4-0.5,1.1-0.1,1.7C312.6,365.6,314.3,368.3,316.1,371z M305.4,359.9
			c0.6,5,3.4,7.4,5.1,10.3c0.3,0.6,1.2,0.9,1.6,0.2c0.3-0.4,0.3-1.4,0.1-1.7C310.4,366.1,309.2,363,305.4,359.9z M299.7,360.2
			c1.5,4.9,3.6,7.8,6,10.5c0.2,0.2,1,0.2,1.3-0.1c0.3-0.2,0.4-1,0.2-1.3C305.2,366.5,304,363,299.7,360.2z M324.4,337.1
			c-3.9,0.6-7.9,0.1-11.4,2.4C316.9,339.2,320.9,339.4,324.4,337.1z M300.2,328.8c1,0.7,1.9,0.7,2.9-0.1
			C302.1,328.1,301.1,328.2,300.2,328.8z M306.1,327.1c-0.3,0.3-0.6,0.5-0.9,0.7c0.3,0.1,0.6,0.3,0.8,0.3c0.4-0.1,0.8-0.3,1.3-0.4
			C306.9,327.5,306.5,327.3,306.1,327.1z M222,363c-0.1,0.5-0.2,1-0.2,1.4c0,0.1,0,1.2,0.7,0.4c0.2-0.3,0.2-0.9,0.1-1.3
			C222.6,363.4,222.3,363.3,222,363z"/>
		<path class="st10" d="M167,362.2c10.9-0.2,21.9-0.5,32.8-0.6c1.4,0,3.5-1.2,4.1,1.3c0.6,2.3-0.2,3.9-2.4,5.3
			c-5.5,3.4-10.7,7.1-16.2,10.6c-5,3.2-10,6.4-13.2,11.8c-0.6,1.1-1.8,1.9-3,2.5c-8.9,4.7-17.8,9.5-26.8,14
			c-4.6,2.3-5.7,1.6-6.3-3.6c-0.7-6.1,0.3-12.2-1.1-18.3c-0.9-3.9-2.1-7.6-4.4-11c-0.6-1-1.2-2-1.6-3.1c-2.4-6.5-1.1-8.4,5.7-8.6
			c10.8-0.2,21.5-0.4,32.3-0.6C167,362,167,362.1,167,362.2z M142.5,375.6c1.2,5.1,2.4,10,2.4,15.5c5.9-3.1,11-5.9,16.3-8.6
			c2.6-1.3,2-3.5,1.9-5.5c-0.2-2.8-2.4-1.7-3.8-1.7C153.9,375.3,148.4,375.5,142.5,375.6z"/>
		<path class="st10" d="M317.4,360.7c1-1.8,2.7-0.9,4-0.9c28.2-0.6,56.3-1.1,84.5-1.7c2.3,0,4.6-0.4,5.9,2.4
			c0.7,1.5,2.3,0.9,3.6,0.9c3.5,0,7-0.1,10.4-0.2c1.5,0,2,0.6,2,2.1c0,1.5-1,1.4-2,1.4c-4.4,0.1-8.9,0.2-13.3,1.2
			c7.8-0.2,15.6-0.1,23.4-0.5c4.6-0.3,5.8,1.7,5.2,5.7c-18-0.6-36,0.3-53.9,0.7c-2.5-0.3-4.9-0.6-7.3,0.4
			c-16.8,0.3-33.6,0.5-50.4,0.9c-2.8,0.1-4.8-0.5-6-3C321.9,366.6,319.8,363.5,317.4,360.7z"/>
		<path class="st10" d="M440.9,372.1c1.4,1.8-0.2,3.1-1,4.3c-5.4,8.1-11.8,14.5-22.7,13.6c-5.1-0.4-10.2,0-15.3,0.3
			c-2,0.1-3.5-0.3-4.4-2.2c-2.7-4.8-5.4-9.6-8.4-15C406.7,372.7,423.8,372.4,440.9,372.1z M401.5,388.3c0.4-0.3,0.8-0.6,1.2-1
			c-2.5-4.1-5.1-8.3-7.6-12.4c-0.4,0.3-0.8,0.5-1.3,0.8C396.4,379.9,398.9,384.1,401.5,388.3z M399.8,375c-0.4,0.3-0.8,0.5-1.3,0.8
			c2.5,4,4.9,8,7.4,12c0.4-0.3,0.8-0.5,1.2-0.8C404.8,382.9,402.3,378.9,399.8,375z"/>
	</g>
</g>
</svg>
