<svg width='200' height='200' fill="#000000" xmlns="http://www.w3.org/2000/svg" xmlns:xlink="http://www.w3.org/1999/xlink" version="1.1" x="0px" y="0px" viewBox="0 0 72 72" enable-background="new 0 0 72 72" xml:space="preserve"><path fill="#000000" d="M69.2,65.2l2.2-4.2c0.1-0.1,0-0.2-0.1-0.3l-0.9-0.8c-0.1-0.1-0.3-0.1-0.3,0c-0.1,0.1-0.2,0.1-0.3,0  L54.6,46.6c-0.1-0.1-0.1-0.2,0-0.3l0.5-0.6c0.1-0.1,0.1-0.2,0-0.3l-0.7-0.7c-0.1-0.1-0.1-0.2,0-0.3l0.2-0.2l-6.6-5.8  c-0.2-0.2-0.3-0.6-0.1-0.8l1-1.1c0.1-0.1,0.2-0.1,0.3,0l2.1,1.8c0.1,0.1,0.3,0.1,0.3,0l0,0c0.1-0.1,0.2-0.1,0.3,0l0.3,0.3  c0.1,0.1,0.3,0.1,0.3,0c0.1-0.1,0.2-0.1,0.3,0l0.6,0.6c0.1,0.1,0.3,0.1,0.3,0l1.7-2c0.1-0.1,0.1-0.3,0-0.3l-0.2-0.2  c-0.1-0.1-0.1-0.2,0-0.3l0.4-0.5c0.1-0.1,0.1-0.3,0-0.3l-1.9-1.7c0,0-0.1-0.1-0.1-0.1c-0.3-1.2-1.1-1.3-1.4-1.3  c-0.1,0-0.1,0-0.2-0.1l-1.6-1.4c-0.1-0.1-0.3-0.1-0.3,0L50,31.2c-0.1,0.1-0.2,0.1-0.3,0l-1.2-1.1c0,0-0.1-0.1-0.1-0.1l-0.2,0  c-0.1,0-0.1,0-0.2-0.1L47,28.5c0,0,0,0,0-0.1l-1.3-1.2l-1.1-0.9c-0.1-0.1-0.3-0.1-0.3,0l-3.4,3.9c-0.2,0.2,0,0.6,0.3,0.6l1.5-0.1  c0.1,0,0.1,0,0.2,0.1l1,0.9c0.1,0.1,0.1,0.2,0,0.3l-1,1.2c-0.2,0.2-0.6,0.3-0.8,0.1l-9.1-8c-0.1-0.1-0.2-0.3,0-0.5l1-1.2  c0.1-0.1,0.1-0.4,0-0.5l-5.4-4.7c-0.1-0.1-0.2-0.3-0.2-0.4c0-0.3-0.1-0.6-0.2-0.8C28,17,28,17,27.9,17l-2.8-2.4  c-0.1-0.1-0.1-0.1-0.2-0.1l-1-0.2c0,0-0.1,0-0.1,0c-1.5-0.8-1.9-1.8-1.9-2c0,0,0-0.1-0.1-0.1l-1-0.9c0,0-0.1,0-0.1,0l-0.3,0  c0,0-0.1,0-0.1,0l-0.9-0.8c-0.1-0.1-0.2-0.1-0.2,0l-1.4,1.6c-0.1,0.1-0.1,0.2,0,0.2l0.8,0.7c0.1,0.1,0.1,0.2,0,0.2l0,0  c-0.1,0.1-0.2,0.1-0.2,0l-0.9-0.8c-0.1-0.1-0.2-0.1-0.2,0l-0.4,0.5c-0.1,0.1-0.1,0.2,0,0.2l0,0c0.1,0.1,0.1,0.2,0,0.2l-0.3,0.4  c-0.1,0.1-0.2,0.1-0.2,0L13,10.9c0,0,0,0-0.1,0l-0.4-0.1c0,0,0,0-0.1,0l-1.9-1.6L10.8,9L6,4.8c0,0,0,0,0-0.1L5.8,4.3c0,0,0,0,0-0.1  L5.4,3.9c-0.1,0-0.1,0-0.2,0L5.1,4C5.1,4,5,4,5,4L4.5,3.6c-0.1,0-0.1-0.1,0-0.2c0-0.1,0-0.1,0-0.2L2,1C1.9,1,1.9,1,1.8,1L0.5,2.5  c0,0.1,0,0.1,0,0.2l2.5,2.2c0.1,0,0.1,0,0.2,0l0.1-0.1c0-0.1,0.1-0.1,0.2,0L4,5.2C4,5.3,4,5.4,4,5.4L3.9,5.5c0,0.1,0,0.1,0,0.2  L4.3,6c0,0,0,0,0.1,0l0.3,0c0,0,0,0,0.1,0l4.8,4.2c0.1,0,0.1,0,0.2,0l0,0c0-0.1,0.1-0.1,0.2,0l1.8,1.6c0,0,0,0,0,0l0.1,0.2  c0,0,0,0,0,0l3.2,2.8c0.1,0.1,0.1,0.2,0,0.2c-0.1,0.1-0.1,0.2,0,0.2l0,0c0.1,0.1,0.1,0.2,0,0.2l-0.4,0.5c-0.1,0.1-0.1,0.2,0,0.2  l0.3,0.3c0.1,0.1,0.1,0.2,0,0.2l-0.7,0.8c-0.1,0.1-0.1,0.2,0,0.2l4.9,4.3c0.2,0.2,0.2,0.5,0,0.7l-0.1,0.1c0,0-0.1,0.1-0.1,0.2  l-0.4,1.1c0,0.1-0.1,0.2-0.2,0.3L15.6,27c0,0-0.1,0.1-0.1,0.1L11.2,32c-0.1,0.1-0.1,0.1-0.1,0.2l-0.5,1.4c-0.1,0.3,0,0.5,0.2,0.7  l1.5,1.3c0.2,0.2,0.5,0.2,0.8,0.1l1.5-0.9c0.1,0,0.1-0.1,0.2-0.1l4-4.5c0,0,0-0.1,0.1-0.1l2.1-3.4c0.1-0.1,0.2-0.2,0.4-0.3l1.1-0.4  c0.1,0,0.2-0.1,0.2-0.1l0,0c0.2-0.2,0.5-0.2,0.7,0l10.1,8.9c0.1,0.1,0.4,0.1,0.5,0c0.2-0.2,0.5-0.1,0.6,0.1c0.3,0.8-0.1,1.2-0.1,1.2  l-2.5,2.8c0,0.1,0,0.1,0,0.2c0,0,0.1,0.1,0,0.2c-1.1,2.2-7.3,5.7-8.9,6.5c-0.2,0.1-0.3,0.4-0.1,0.5l3.5,5.4c0.1,0.1,0.3,0.2,0.4,0.2  c2.9-1,7.9-5.5,9.3-6.7c0.2-0.2,0.5-0.2,0.7,0l5.4,4.7L42,49.9l0.6,0.5c0.1,0.1,0.2,0.3,0.2,0.5c-0.2,0.6-0.9,1.6-0.9,1.6  c-1.1,0.1-0.2,0.7-0.2,0.7S40.2,57,40,57.4c-0.1,0.2-0.2,0.2-0.3,0.2c-0.2,0-0.3,0.2-0.2,0.3c0,0.1,0,0.1,0.1,0.2l3.9,3.4  c0.1,0.1,0.3,0.1,0.4,0c3.2-3.9,2.5-9.2,2.4-10c0-0.1,0-0.1,0.1-0.2l1.1-1.2c0,0,0,0,0.1,0c1.4-0.8,2.8,0.4,3.2,0.8  c0.1,0.1,0.2,0.1,0.3,0l1.2-1.4c0.1-0.1,0.2-0.1,0.3,0l0.8,0.7c0.1,0.1,0.1,0.2,0,0.3L52.7,51c-0.1,0.1-0.1,0.2,0,0.3l1.9,1.7  c0.8,0.7,0.2,2-0.1,2.6c-0.1,0.1-0.2,0.2-0.3,0.1L54,55.4c-0.1-0.1-0.2-0.1-0.3,0c-0.1,0.1-0.1,0.2,0,0.3l4,3.5  c0.8,0.4,0.6,1.1,0.6,1.1l0.5,7.3c0,0.1,0.1,0.3,0.2,0.4l3.2,2.8c0.2,0.2,0.4,0.2,0.6,0.1C64.4,70.1,68.8,65.7,69.2,65.2  C69.2,65.3,69.2,65.3,69.2,65.2z M43.2,47.4c-0.6,0.7-1.7,0.8-2.5,0.2l-2.4-2.1c-0.7-0.6-0.8-1.7-0.2-2.5c0.6-0.7,1.7-0.8,2.5-0.2  l1.3,1.2c0.1,0.1,0.1,0.3,0,0.4c-0.6,0.6-1.4,0.6-1.8,0.6c-0.1,0-0.2,0.1-0.2,0.2l0,0c0,0.1,0,0.3,0.2,0.4c1,0.4,2,0,2.7-0.5  c0.1-0.1,0.3-0.1,0.4,0.1C43.8,45.9,43.7,46.8,43.2,47.4L43.2,47.4z"/></svg>