<svg width='200' height='200' fill="#000000" xmlns="http://www.w3.org/2000/svg" xmlns:xlink="http://www.w3.org/1999/xlink" version="1.1" x="0px" y="0px" viewBox="0 0 100 100" enable-background="new 0 0 100 100" xml:space="preserve"><path d="M48.629,55.862l3.574,4.356l6.838-1.133l4.098-3.364l0.572-0.467l0.219-0.181c1.203-1.415,1.178-2.859-0.072-4.289  l-2.027-2.469l-8.455,4.807c0.115,0.264,0.252,0.52,0.426,0.771c1.428,2.029,3.379,2.642,4.98,1.74  c0.641-0.364,1.105,0.271,0.49,0.677c-2.064,1.362-4.928,0.722-6.676-1.407c-0.252-0.308-0.467-0.636-0.646-0.966l-0.836,0.474  L48.629,55.862L48.629,55.862z M12.414,78.979c-0.294-0.358-0.83-0.411-1.189-0.117c-0.362,0.299-0.415,0.833-0.118,1.192  c0.297,0.362,0.829,0.413,1.189,0.117C12.657,79.876,12.712,79.341,12.414,78.979L12.414,78.979z M43.937,26.801  c0.225-0.11,0.504-0.057,0.67,0.145l2.128,2.594l0.336-0.276c1.477-1.212,2.818-1.875,4.259-2.538  c1.441-0.665,2.932-1.402,2.932-1.402l2.854-2.287l2.992-2.457L59.234,19.5c-0.035-0.035-0.07-0.072-0.102-0.111  c-0.365-0.444-0.365-1.074-0.045-1.55c-1.17-1.768-0.777-4.223,0.975-5.66c1.863-1.529,4.555-1.327,6.016,0.454  c0.09,0.107,0.17,0.216,0.246,0.331l0.887,1.08c0.658-0.209,1.422-0.138,2.152,0.179l1.5-1.234l2.477,3.015l4.17-3.422  c0.943-0.773,2.334-0.636,3.105,0.306l0.268,0.326L95.727,1.034c0.236-0.192,0.582-0.159,0.775,0.076l2.379,2.898  c0.193,0.235,0.158,0.583-0.076,0.775L83.961,16.963l0.166,0.201c0.773,0.942,0.635,2.332-0.307,3.105l-4.766,3.91l0.469,0.685  l-0.053,2.083l-0.936,0.796l-0.029,0.788c-0.029,0.79-0.369,0.979-0.369,0.979l-0.686,0.585l0.072,0.356l-1.463,1.181l-0.084,0.988  L61.912,44.163l10.729-6.224l0.131-1.739c0,0,1.113-0.065,2.711,0.227c1.598,0.293,2.854,1.059,2.854,1.059l13.986,16.411  c0.504,0.616,2.422,2.452,3.121,4.603c0.697,2.149,0.094,2.812-0.785,3.354c-1.129,0.695-3.971-2.255-3.971-2.255L76.639,42.875  c0,0-0.395-0.213-1.07-0.314c-1.766-0.265-2.369,0.201-2.369,0.201l-0.549-0.668l-9.363,5.389l1.842,2.241  c0.359,0.426,0.662,0.911,0.906,1.412c0.848,1.776,0.242,4.502-1.344,5.456l-4.941,4.056l-6.854,1.146l12.369,15.073l2.527,1.488  l-1.623,1.333l10.047,12.244l-7.514,6.164l-1.891-0.185L57.521,86.59l-1.172,0.965l-0.307,0.059l-0.438,0.064l-0.531,0.219  c0,0-0.361,0.078-0.945,0.202c-0.582,0.124-1.07-0.206-1.07-0.206s-0.719-0.257-1.199-0.271c-0.477-0.02-0.785,0.041-0.838-0.023  c-0.053-0.063-0.136-0.1-0.967-0.291c-0.832-0.191-2.57-1.999-3.458-3.014c-0.882-1.014-2.587-3.453-3.157-4.616  c-0.572-1.161-0.318-1.941-0.318-1.941l-0.213-0.262l-0.39-0.472l-0.13,0.106c0,0-0.196-0.007-0.387-0.038  c-0.194-0.034-0.373-0.4-0.373-0.4s-0.071,0.114-0.278,0.23c-0.207,0.115-0.522-0.201-0.522-0.201l-6.313-7.694l-0.115-0.307  l-2.526-0.459l-0.679-0.827l-0.604,0.494c-0.488,0.402-1.104-0.158-1.104-0.158l-1.68-2.049L14.195,76.87l-0.862,0.106l-0.761,0.869  c0,0,0.602,0.701,0.946,1.32c0.344,0.618-0.3,1.223-0.927,1.717c-0.845,0.665-1.86,0.051-1.86,0.051l-1.081-1.317l-0.276,0.199  c0,0-0.471,0.059-0.842-0.096c-0.372-0.151-0.658-0.304-0.937-0.805c-0.275-0.504-0.08-0.562-0.08-0.562l0.588-0.484l-0.321-0.395  l-0.196,0.163l-0.6-0.266l-4.165-5.073l0.089-0.894l1.966-1.613L3.17,67.713l0.19-0.636l-0.417-0.509  c-0.17-0.207-0.06-0.36-0.06-0.36l0.422-1.027c-0.252-0.215-0.49-0.453-0.707-0.716c-2.001-2.439-1.566-6.105,0.969-8.186  c1.429-1.174,3.219-1.591,4.866-1.301c0.994-0.027,1.97,0.269,2.751,0.881l0.114,0.01c1.594,0.185,1.396,0.464,1.396,0.464  l1.145,1.397l2.792-2.292l0.803-1.306l7.723-6.886l19.35-15.878l0.289-1.204l-1.654-2.017c-0.188-0.229-0.161-0.568,0.062-0.764  c-0.153-0.229-0.135-0.521,0.051-0.674C43.446,26.555,43.742,26.596,43.937,26.801L43.937,26.801z"/></svg>