<?xml version="1.0" encoding="utf-8"?>
<svg width="195mm" height="195mm" viewBox="40.507999420166016 40.507999420166016 609.9290161132812 609.9290161132812" id="svg2" version="1.1" xmlns="http://www.w3.org/2000/svg">
  <g id="layer1" transform="matrix(1, 0, 0, 1, 0.000008, -361.417572)">
    <g id="g4149" transform="matrix(0.89366306,0,0,0.89366306,36.63725,64.570287)" style="fill:#000000">
      <circle style="opacity:1;fill:#6467b9;fill-opacity:1;fill-rule:nonzero;stroke:#000000;stroke-width:16.78484726;stroke-linecap:butt;stroke-linejoin:miter;stroke-miterlimit:4;stroke-dasharray:none;stroke-opacity:1" id="path4187" cx="345.58344" cy="718.74921" r="330.06232"/>
      <g id="g4764" transform="translate(5.0307656e-6,3.5027908e-6)">
        <path style="opacity:1;fill:#000000;fill-opacity:1;fill-rule:nonzero;stroke:#000000;stroke-width:0.99999988;stroke-linecap:butt;stroke-linejoin:miter;stroke-miterlimit:4;stroke-dasharray:none;stroke-opacity:1" d="m 248.69727,504.87931 a 37.880722,37.375645 13.476203 0 0 -45.54781,27.51815 37.880722,37.375645 13.476203 0 0 28.12794,45.17375 37.880722,37.375645 13.476203 0 0 26.11151,-3.0758 l -2.13789,1.31133 29.17218,47.56295 6.821,-4.18381 -29.13842,-47.50265 a 37.880722,37.375645 13.476203 0 0 14.71942,-21.63015 37.880722,37.375645 13.476203 0 0 -28.12792,-45.17377 z" id="path7780"/>
        <path style="opacity:1;fill:#000000;fill-opacity:1;fill-rule:nonzero;stroke:#000000;stroke-width:0.99999988;stroke-linecap:butt;stroke-linejoin:miter;stroke-miterlimit:4;stroke-dasharray:none;stroke-opacity:1" d="m 439.46854,925.93182 a 37.880717,37.375641 13.476203 0 0 45.5478,-27.51815 37.880717,37.375641 13.476203 0 0 -28.12793,-45.17374 37.880717,37.375641 13.476203 0 0 -26.11151,3.07579 l 2.13789,-1.31133 -29.17217,-47.56294 -6.821,4.1838 29.13842,47.50265 a 37.880717,37.375641 13.476203 0 0 -14.71942,21.63016 37.880717,37.375641 13.476203 0 0 28.12792,45.17376 z" id="path7780-3"/>
        <path style="opacity:1;fill:#000000;fill-opacity:1;fill-rule:nonzero;stroke:#000000;stroke-width:0.90508449;stroke-linecap:butt;stroke-linejoin:miter;stroke-miterlimit:4;stroke-dasharray:none;stroke-opacity:1" d="m 320.71026,940.9504 a 34.285249,33.828112 44.883422 0 0 48.16365,0.22575 34.285249,33.828112 44.883422 0 0 -0.42172,-48.16232 34.285249,33.828112 44.883422 0 0 -21.62124,-9.93964 l 2.26997,-0.005 -0.10151,-50.50043 -7.24235,0.0147 0.10385,50.43795 a 34.285249,33.828112 44.883422 0 0 -21.57236,9.76629 34.285249,33.828112 44.883422 0 0 0.42171,48.16232 z" id="path7780-3-1"/>
        <path style="opacity:1;fill:#000000;fill-opacity:1;fill-rule:nonzero;stroke:#000000;stroke-width:0.90508449;stroke-linecap:butt;stroke-linejoin:miter;stroke-miterlimit:4;stroke-dasharray:none;stroke-opacity:1" d="m 319.65887,496.54795 a 33.828108,34.285245 45.116578 0 1 48.16364,-0.22575 33.828108,34.285245 45.116578 0 1 -0.42172,48.16233 33.828108,34.285245 45.116578 0 1 -21.62124,9.93963 l 2.26997,0.005 -0.10151,50.50042 -7.24235,-0.0147 0.10385,-50.43794 a 33.828108,34.285245 45.116578 0 1 -21.57235,-9.76628 33.828108,34.285245 45.116578 0 1 0.42171,-48.16233 z" id="path7780-3-1-1"/>
        <path style="opacity:1;fill:#000000;fill-opacity:1;fill-rule:nonzero;stroke:#000000;stroke-width:0.90508449;stroke-linecap:butt;stroke-linejoin:miter;stroke-miterlimit:4;stroke-dasharray:none;stroke-opacity:1" d="m 134.81424,623.85543 a 34.285241,33.828104 74.632524 0 1 23.53213,-42.02411 34.285241,33.828104 74.632524 0 1 41.70396,24.09492 34.285241,33.828104 74.632524 0 1 -2.00239,23.71211 l 1.12269,-1.9729 43.8964,24.96816 -3.58087,6.29519 -43.84086,-24.93941 a 34.285241,33.828104 74.632524 0 1 -19.12674,13.96114 34.285241,33.828104 74.632524 0 1 -41.704,-24.0949 z" id="path7780-3-1-1-4"/>
        <path style="opacity:1;fill:#000000;fill-opacity:1;fill-rule:nonzero;stroke:#000000;stroke-width:0.90508449;stroke-linecap:butt;stroke-linejoin:miter;stroke-miterlimit:4;stroke-dasharray:none;stroke-opacity:1" d="m 554.25651,803.13128 a 34.285237,33.8281 74.632524 0 1 -23.53213,42.02411 34.285237,33.8281 74.632524 0 1 -41.70395,-24.09492 34.285237,33.8281 74.632524 0 1 2.00239,-23.71211 l -1.12269,1.9729 -43.8964,-24.96816 3.58087,-6.29518 43.84086,24.9394 a 34.285237,33.8281 74.632524 0 1 19.12674,-13.96114 34.285237,33.8281 74.632524 0 1 41.704,24.0949 z" id="path7780-3-1-1-4-3"/>
        <path style="opacity:1;fill:#000000;fill-opacity:1;fill-rule:nonzero;stroke:#000000;stroke-width:0.78230238;stroke-linecap:butt;stroke-linejoin:miter;stroke-miterlimit:4;stroke-dasharray:none;stroke-opacity:1" d="m 549.07018,694.05765 a 29.634161,29.239039 45.454107 0 1 -0.0501,41.63027 29.634161,29.239039 45.454107 0 1 -41.62581,-0.60975 29.634161,29.239039 45.454107 0 1 -8.481,-18.73842 l -0.0159,1.96197 -43.64834,-0.34486 0.0496,-6.2597 43.59431,0.34658 a 29.634161,29.239039 45.454107 0 1 8.5511,-18.59582 29.634161,29.239039 45.454107 0 1 41.62583,0.60971 z" id="path7780-3-1-1-4-3-8"/>
        <path style="opacity:1;fill:#000000;fill-opacity:1;fill-rule:nonzero;stroke:#000000;stroke-width:0.78230238;stroke-linecap:butt;stroke-linejoin:miter;stroke-miterlimit:4;stroke-dasharray:none;stroke-opacity:1" d="m 144.48589,694.47212 a 29.239036,29.634157 44.545893 0 0 0.0501,41.63027 29.239036,29.634157 44.545893 0 0 41.62581,-0.60975 29.239036,29.634157 44.545893 0 0 8.481,-18.73842 l 0.0159,1.96197 43.64833,-0.34486 -0.0496,-6.2597 -43.5943,0.34658 a 29.239036,29.634157 44.545893 0 0 -8.5511,-18.59582 29.239036,29.634157 44.545893 0 0 -41.62583,0.60971 z" id="path7780-3-1-1-4-3-8-6"/>
        <path style="opacity:1;fill:#000000;fill-opacity:1;fill-rule:nonzero;stroke:#000000;stroke-width:0.78230238;stroke-linecap:butt;stroke-linejoin:miter;stroke-miterlimit:4;stroke-dasharray:none;stroke-opacity:1" d="m 474.0982,556.23925 a 29.634153,29.239033 79.35685 0 0 -34.20873,-23.72435 29.634153,29.239033 79.35685 0 0 -23.26232,34.52454 29.634153,29.239033 79.35685 0 0 10.54344,17.66045 l -1.61992,-1.10698 -24.63441,36.03389 5.16778,3.53276 24.60214,-35.99052 a 29.634153,29.239033 79.35685 0 0 20.14948,3.59503 29.634153,29.239033 79.35685 0 0 23.26238,-34.52455 z" id="path7780-3-1-1-4-3-8-6-7"/>
        <path style="opacity:1;fill:#000000;fill-opacity:1;fill-rule:nonzero;stroke:#000000;stroke-width:0.78230238;stroke-linecap:butt;stroke-linejoin:miter;stroke-miterlimit:4;stroke-dasharray:none;stroke-opacity:1" d="m 221.40905,872.1202 a 29.634149,29.23903 79.35685 0 0 34.20872,23.72436 29.634149,29.23903 79.35685 0 0 23.26233,-34.52454 29.634149,29.23903 79.35685 0 0 -10.54345,-17.66044 l 1.61993,1.10698 24.6344,-36.0339 -5.16778,-3.53276 -24.60215,35.99053 a 29.634149,29.23903 79.35685 0 0 -20.14946,-3.59503 29.634149,29.23903 79.35685 0 0 -23.26238,34.52453 z" id="path7780-3-1-1-4-3-8-6-7-6"/>
        <path style="opacity:1;fill:#000000;fill-opacity:1;fill-rule:nonzero;stroke:#000000;stroke-width:0.54273063;stroke-linecap:butt;stroke-linejoin:miter;stroke-miterlimit:4;stroke-dasharray:none;stroke-opacity:1" d="m 517.59854,637.9239 c 3.32597,-10.85626 -2.6611,-22.31729 -13.37257,-25.59907 -10.71158,-3.28138 -22.09109,2.85922 -25.41698,13.71551 -1.432,4.70439 -1.15278,9.75932 0.78698,14.24776 l -0.63855,-1.20211 -36.32385,17.35176 2.03663,3.8357 36.29006,-17.3355 c 2.57355,4.17863 6.55737,7.26793 11.22111,8.70155 10.71157,3.2814 22.09108,-2.8592 25.41698,-13.71547 z" id="path7780-3-1-1-4-3-8-6-7-6-4-1"/>
        <path style="opacity:1;fill:#000000;fill-opacity:1;fill-rule:nonzero;stroke:#000000;stroke-width:0.54273063;stroke-linecap:butt;stroke-linejoin:miter;stroke-miterlimit:4;stroke-dasharray:none;stroke-opacity:1" d="m 168.24168,794.38728 c -3.32597,10.85626 2.6611,22.31729 13.37257,25.59907 10.71158,3.28139 22.09109,-2.85922 25.41698,-13.71551 1.432,-4.70439 1.15278,-9.75932 -0.78698,-14.24776 l 0.63856,1.20211 36.32385,-17.35175 -2.03664,-3.8357 -36.29006,17.33549 c -2.57355,-4.17863 -6.55737,-7.26793 -11.22111,-8.70155 -10.71157,-3.28139 -22.09108,2.8592 -25.41698,13.71547 z" id="path7780-3-1-1-4-3-8-6-7-6-4-1-4"/>
        <circle style="opacity:1;fill:#000000;fill-opacity:0;fill-rule:nonzero;stroke:#000000;stroke-width:14.99999809;stroke-linecap:butt;stroke-linejoin:miter;stroke-miterlimit:4;stroke-dasharray:none;stroke-opacity:1" id="path8598" cx="343.26755" cy="717.08319" r="110"/>
      </g>
    </g>
  </g>
</svg>