<?xml version="1.0" encoding="utf-8"?>
<svg width="195mm" height="195mm" viewBox="40.507999420166016 40.507999420166016 609.9290161132812 609.9290161132812" id="svg2" version="1.1" xmlns="http://www.w3.org/2000/svg">
  <g id="layer1" transform="translate(0,-361.41754)">
    <g id="g4149" transform="matrix(0.89366306,0,0,0.89366306,36.63725,64.570287)" style="fill:#000000">
      <circle style="opacity:1;fill:#d42620;fill-opacity:1;fill-rule:nonzero;stroke:#000000;stroke-width:16.78484726;stroke-linecap:butt;stroke-linejoin:miter;stroke-miterlimit:4;stroke-dasharray:none;stroke-opacity:1" id="path4187" cx="345.58344" cy="718.74921" r="330.06232"/>
      <path id="path5358-3-1" style="fill:#d42620;fill-opacity:1;fill-rule:evenodd;stroke:#000000;stroke-width:17.45350456;stroke-linecap:butt;stroke-linejoin:miter;stroke-miterlimit:4;stroke-dasharray:none;stroke-opacity:1" d="m 540.06534,718.74918 -34.907,0 m -317.48755,0 -34.90702,0 m 192.81966,159.04234 0,34.90702 m 0,-386.47047 0,34.90701 m 197.80641,157.6141 A 197.80641,197.80641 0 0 1 345.58343,916.55559 197.80641,197.80641 0 0 1 147.77703,718.74918 197.80641,197.80641 0 0 1 345.58343,520.94277 197.80641,197.80641 0 0 1 543.38984,718.74918 Z"/>
      <path style="fill:#000000;fill-opacity:1;stroke:#000000;stroke-width:1.16356707;stroke-opacity:1" d="m 290.1867,827.56012 c 0,-4.60979 -7.08974,-18.99109 -17.69846,-20.57419 -7.53767,-1.12491 -19.23534,0.66992 -24.50899,-4.98572 -5.27362,-5.65564 -4.12323,-18.76177 -9.09657,-38.12271 -15.98215,-62.21769 -8.62983,-103.59647 24.2494,-136.4757 21.41527,-21.41527 33.17671,-25.66868 70.97793,-25.66868 60.21826,0 89.06421,14.55331 109.93552,55.46433 20.32767,39.84563 20.89433,50.12821 6.23721,113.17227 -4.02203,17.29987 -2.03839,26.78401 -7.84237,31.6219 -5.80399,4.8379 -19.39566,5.02957 -25.01098,5.02957 -8.48983,0 -11.58046,14.958 -14.64252,19.91245 -7.02654,11.36924 -112.60017,11.95661 -112.60017,0.62648 z m 70.27901,-18.79064 c 0.62077,-4.72626 -4.76814,-20.41224 -8.36579,-30.13753 -6.36719,-17.2123 -5.22597,-17.39537 -15.30237,1.4326 -5.69345,10.6382 -9.89723,24.57505 -9.89723,29.02718 0,5.41725 11.21467,-6.37975 17.15164,-6.18711 6.5163,0.21142 15.69408,11.34428 16.41375,5.86486 z m -48.40243,-41.03146 c 21.27929,-21.27929 17.18922,-30.88458 -13.15134,-30.88458 -30.09582,0 -46.64511,23.60543 -25.80195,36.80326 17.49085,11.07511 22.76018,10.27452 38.95329,-5.91868 z m 108.73964,-8.4879 c 0,-13.59371 -7.0182,-18.56969 -29.21049,-20.71058 -24.95611,-2.40741 -28.3317,-0.43911 -23.17709,13.51204 12.46643,33.7415 52.38758,39.22702 52.38758,7.19854 z" id="path5984"/>
    </g>
  </g>
</svg>