<svg width='200' height='200' fill="#000000" xmlns="http://www.w3.org/2000/svg" xmlns:xlink="http://www.w3.org/1999/xlink" version="1.1" x="0px" y="0px" viewBox="0 0 72 72" enable-background="new 0 0 72 72" xml:space="preserve"><path fill="#000000" d="M68.4,37.5c0,0,1.3,0.5,2.7,0.4c0.2,0,0.3-0.1,0.4-0.3l0,0c0.1-0.2-0.1-0.5-0.3-0.5c-1.1-0.2-3.9-1-5.4-3  c-0.3-0.3-0.1-0.8,0.3-0.9l1.5-0.5c0,0,0.4-0.3,1.8,1.3c0.2,0.2,0.5,0.3,0.7,0.1l0,0c0.3-0.1,0.4-0.5,0.3-0.8l-1.4-3.6  c-0.1-0.3-0.4-0.5-0.7-0.4L65.9,30c-0.4,0.1-0.9-0.3-0.8-0.7l1.1-4.7c0-0.1,0.1-0.1,0.2-0.1l0.3,0.1c0.1,0,0.1,0.1,0.1,0.2l0,0  c0,0.1,0,0.1,0.1,0.2l0.8,0.3c0.1,0,0.1,0,0.2-0.1l1.2-3.7c0-0.1,0-0.1-0.1-0.2l-0.9-0.3c-0.1,0-0.1,0-0.2,0.1l-0.2,0.6  c0,0.1-0.1,0.1-0.2,0.1L56,18.3c-0.1,0-0.1,0-0.2,0.1l-0.3,0.8c0,0.1-0.1,0.1-0.2,0.1l-11.7-4c-0.1,0-0.2,0-0.2,0.1l-0.1,0.1  c-0.1,0.1-0.1,0.1-0.2,0.1l-10-3.4c-0.1,0-0.2-0.2-0.1-0.3l0,0c0-0.1,0-0.2-0.1-0.3L10.5,4.1c-0.1,0-0.1-0.1-0.1-0.2l0.2-1.7  c0-0.1,0-0.2-0.1-0.2L6,0.6c-0.1,0-0.2,0-0.2,0.1L5.3,2.2c0,0.1-0.1,0.2-0.2,0.1L4.4,2.1c-0.1,0-0.2,0-0.2,0.1L4.1,2.4  c0,0.1-0.1,0.2-0.2,0.1l0,0c-0.1,0-0.2,0-0.2,0.1L2.1,6.9c0,0.1,0,0.2,0.1,0.2l0.1,0c0.1,0,0.2,0.1,0.1,0.2l-2,5.9  c0,0.1,0,0.2,0.1,0.2l0.5,0.2c0.1,0,0.2,0.1,0.1,0.2l-0.4,1.3c0,0.1,0,0.2,0.1,0.2l14.8,5l8.5,2.9c0.1,0,0.1,0.1,0.1,0.1l0.5,1  c0,0,0.1,0.1,0.1,0.1l1.5,0.5c0.1,0,0.2,0.2,0.1,0.3L24,33.3c0,0.1-0.1,0.3-0.2,0.4l-0.4,0.6c-0.5,0.8-0.2,1.8,0.7,2.1l10.1,3.4  c0.3,0.1,0.5,0.1,0.8,0.1l4.1-0.5c0.2,0,0.3,0,0.5,0l1.4,0.4c0.3,0.1,0.5,0.3,0.7,0.5c0.6,0.9,2.1,3.5,1.6,6.9  c-0.1,0.8-0.2,1.6-0.2,2.4c0,2.9-0.1,9-0.8,11.3c0,0-1,3.1-1.9,4.9c-0.3,0.6,0,1.3,0.6,1.4l14.6,4.1c0.5,0.1,1-0.1,1.2-0.6l0,0  c0.1-0.3,0.4-0.6,0.8-0.7l1.3-0.2c0.4-0.1,0.7-0.3,0.8-0.7c0.6-2.4,2.5-11.4,0-26.6c-0.1-0.4,0-0.8,0.1-1.1l0.6-1.8  C60.3,39.7,62.1,35,68.4,37.5z M34.7,38.9l-9-3.2c-0.7-0.3-1.1-1.1-0.9-1.8l1.7-4.7c0,0,0-0.1,0.1-0.1l3.5-2.4c0.1,0,0.1,0,0.2,0  l4,1.4c0.1,0,0.2,0.2,0.1,0.3l-0.2,0.5c-0.1,0.1-0.1,0.3-0.1,0.4c0,0.6,0,2.7-1.3,4c-0.8,0.8-1.9,1.1-3.3,1.1  c-0.3,0-0.5,0.2-0.5,0.4c0,0.2,0.1,0.4,0.3,0.4c0,0,0,0,0,0c1,0.3,4.6,0.8,6.8-4.4c0.1-0.1,0.1-0.2,0.3-0.3l1.9-1c0.1,0,0.1,0,0.2,0  l0.6,0.2c0.1,0,0.2,0.2,0.1,0.3l0,0.1c0,0.1,0,0.2,0,0.2C45.4,38,35.5,38.8,34.7,38.9C34.8,38.9,34.7,38.9,34.7,38.9z"/></svg>