<svg width='200' height='200' fill="#000000" xmlns="http://www.w3.org/2000/svg" data-name="Layer 1" viewBox="0 0 100 100" x="0px" y="0px"><title>65 all</title><path d="M23.84,74.09c0,6.83,13.16,10.4,26.16,10.4s26.16-3.57,26.16-10.4V26.44a2,2,0,0,0,0-.2c0-.11,0-.22,0-.33,0-6.83-13.16-10.4-26.16-10.4s-26.16,3.57-26.16,10.4c0,.11,0,.22,0,.33a2,2,0,0,0,0,.2ZM50,80.49c-13.32,0-22.16-3.85-22.16-6.4s8.84-6.4,22.16-6.4,22.16,3.85,22.16,6.4S63.32,80.49,50,80.49ZM27.84,68.29V31.71c4.88,3,13.56,4.61,22.16,4.61s17.28-1.57,22.16-4.61V68.29c-4.88-3-13.56-4.61-22.16-4.61S32.72,65.25,27.84,68.29ZM50,19.51c13.32,0,22.16,3.85,22.16,6.4s-8.84,6.4-22.16,6.4-22.16-3.85-22.16-6.4S36.68,19.51,50,19.51Z"/></svg>