<svg width='200' height='200' fill="#000000" xmlns="http://www.w3.org/2000/svg" xmlns:xlink="http://www.w3.org/1999/xlink" version="1.1" x="0px" y="0px" viewBox="0 0 100 100" enable-background="new 0 0 100 100" xml:space="preserve"><g><path d="M86.469,46.727c0-0.258-0.098-0.484-0.233-0.682c-1.989-18.032-17.172-32.126-35.658-32.418   c-0.174-0.097-0.365-0.165-0.577-0.165c-0.527,0-1.037,0.074-1.533,0.212c-17.573,0.736-31.94,13.938-34.49,30.989   c-0.267,0.673-0.445,1.357-0.445,2.063c0,0.308,0.076,0.598,0.124,0.895c-0.056,0.812-0.124,1.62-0.124,2.445   c0,20.109,16.358,36.47,36.467,36.47c20.109,0,36.471-16.361,36.471-36.47c0-0.825-0.069-1.634-0.124-2.445   C86.393,47.326,86.469,47.035,86.469,46.727z M82.698,40.75c-0.861-0.63-1.829-1.24-2.977-1.813   c-0.608-0.302-1.341-0.057-1.639,0.548c-0.303,0.604-0.058,1.337,0.546,1.639c2.364,1.179,4.041,2.496,4.845,3.811   c0.035,0.06,0.1,0.087,0.146,0.138c0.116,0.801,0.217,1.605,0.276,2.424c-1.316,4.851-14.854,9.939-33.897,9.939   c-3.717,0-7.223-0.195-10.471-0.543c-0.152-2.227-0.238-4.547-0.238-6.962c0-4.862,0.336-9.357,0.913-13.392   c1.682-0.167,3.368-0.335,5.1-0.414c0.675-0.031,1.197-0.603,1.166-1.277c-0.033-0.671-0.511-1.202-1.276-1.165   c-1.557,0.071-3.069,0.231-4.588,0.372c1.778-10.122,5.117-16.81,8.395-17.962c0.334-0.01,0.661-0.051,1-0.051   C65.526,16.042,78.632,26.509,82.698,40.75z M44.474,16.532c-3.01,3.643-5.161,10.189-6.396,17.758   c-0.599,0.138-1.021,0.691-0.946,1.316c0.047,0.396,0.291,0.712,0.61,0.897c-0.589,4.329-0.895,8.912-0.895,13.427   c0,2.212,0.071,4.443,0.215,6.652c-12.019-1.645-19.965-5.428-20.957-9.085c0.055-0.75,0.143-1.49,0.248-2.226   c0.601-1.2,1.822-2.221,2.902-2.938c0.563-0.373,0.716-1.132,0.344-1.694c-0.38-0.564-1.138-0.713-1.693-0.343   c-0.231,0.154-0.396,0.318-0.608,0.475C20.862,28.249,31.423,18.677,44.474,16.532z M16.059,51.746   c3.919,3.664,12.004,6.146,21.205,7.33c0.94,10.455,3.492,20.047,7.506,24.572C29.031,81.201,16.855,67.965,16.059,51.746z    M50.496,84.068C50.344,84,50.177,83.959,50,83.959c-4.224,0-8.842-9.74-10.261-24.6c3.365,0.344,6.831,0.521,10.259,0.521   c13.815,0,28.269-2.828,33.942-8.135C83.065,69.561,68.462,83.807,50.496,84.068z"/><path d="M65.741,37.289c2.375,0.407,4.603,0.908,6.623,1.485c0.112,0.032,0.227,0.048,0.336,0.048c0.532,0,1.021-0.35,1.176-0.886   c0.184-0.648-0.19-1.326-0.84-1.511c-2.105-0.603-4.419-1.122-6.88-1.546c-0.671-0.12-1.298,0.332-1.412,0.997   C64.629,36.542,65.075,37.174,65.741,37.289z"/><path d="M52.145,36.04c2.301,0.048,4.598,0.173,6.828,0.373c0.038,0.003,0.073,0.005,0.111,0.005c0.625,0,1.157-0.478,1.215-1.113   c0.062-0.672-0.438-1.266-1.107-1.326c-2.287-0.204-4.641-0.333-6.995-0.38c-0.01-0.002-0.019-0.002-0.026-0.002   c-0.663,0-1.207,0.531-1.221,1.197C50.935,35.468,51.472,36.027,52.145,36.04z"/><path d="M24.829,39.597c0.131,0,0.267-0.021,0.397-0.067c1.963-0.677,4.162-1.271,6.535-1.766c0.661-0.137,1.083-0.785,0.947-1.445   c-0.141-0.662-0.777-1.086-1.448-0.947c-2.473,0.516-4.77,1.138-6.83,1.848c-0.64,0.221-0.979,0.916-0.757,1.554   C23.849,39.279,24.32,39.597,24.829,39.597z"/></g></svg>