<svg width='200' height='200' fill="#000000" xmlns:dc="http://purl.org/dc/elements/1.1/" xmlns:cc="http://creativecommons.org/ns#" xmlns:rdf="http://www.w3.org/1999/02/22-rdf-syntax-ns#" xmlns:svg="http://www.w3.org/2000/svg" xmlns="http://www.w3.org/2000/svg" xmlns:sodipodi="http://sodipodi.sourceforge.net/DTD/sodipodi-0.dtd" xmlns:inkscape="http://www.inkscape.org/namespaces/inkscape" viewBox="0 0 547.76805 547.52599" version="1.1" x="0px" y="0px"><g transform="translate(-106.1357,-305.88871)"><path style="" d="m 292.19973,305.88871 c -1.303,0 -2.637,0.172 -3.879,0.728 -1.303,0.559 -2.522,1.373 -3.514,2.303 l -175.64203,175.639 c -0.992,0.931 -1.622,2.092 -2.181,3.393 -0.557,1.305 -0.848,2.576 -0.848,3.88 l 0,351.401 c 0,1.303 0.291,2.637 0.848,3.879 1.055,2.483 3.032,4.52 5.577,5.576 1.24,0.558 2.513,0.727 3.878,0.727 l 351.52203,0 c 1.304,0 2.638,-0.168 3.879,-0.727 1.304,-0.497 2.401,-1.313 3.394,-2.182 l 175.639,-175.761 c 0.994,-0.993 1.807,-2.09 2.304,-3.394 0.558,-1.241 0.727,-2.513 0.727,-3.879 l 0,-351.28 c 0,-1.302 -0.29,-2.758 -0.848,-4.001 -1.056,-2.544 -2.972,-4.519 -5.455,-5.574 -1.304,-0.558 -2.696,-0.728 -4,-0.728 l -351.401,0 z m 10.304,20.485 316.491,0 -155.276,155.275 -161.215,0 0,-19.151 c 0,-5.646 -4.594,-10.303 -10.304,-10.303 -5.647,0 -10.304,4.657 -10.304,10.303 l 0,19.151 -140.60803,0 140.85103,-140.972 c 0.559,5.089 4.848,9.091 10.061,9.091 5.71,0 10.304,-4.592 10.304,-10.303 l 0,-13.091 z m 330.915,14.425 0,316.613 -30.788,0 c -5.648,0 -10.303,4.471 -10.303,10.181 0,5.648 4.655,10.304 10.303,10.304 l 16.364,0 -140.852,140.73 0,-140.73 1.454,0 c 5.71,0 10.305,-4.656 10.305,-10.304 0,-5.71 -4.595,-10.181 -10.305,-10.181 l -1.454,0 0,-161.337 155.276,-155.276 z m -341.219,29.455 c -5.647,0 -10.304,4.593 -10.304,10.303 l 0,40.97 c 0,5.648 4.657,10.183 10.304,10.183 5.71,0 10.304,-4.535 10.304,-10.183 l 0,-40.97 c 0,-5.71 -4.594,-10.303 -10.304,-10.303 z m -165.45703,131.881 155.15303,0 0,1.335 c 0,5.708 4.657,10.303 10.304,10.303 5.71,0 10.304,-4.595 10.304,-10.303 l 0,-1.335 155.154,0 0,155.277 -19.031,0 c -5.71,0 -10.303,4.471 -10.303,10.181 0,5.648 4.593,10.304 10.303,10.304 l 19.031,0 0,155.155 -330.91503,0 0,-330.917 z m 165.45703,32.244 c -5.647,0 -10.304,4.471 -10.304,10.182 l 0,40.97 c 0,5.71 4.657,10.303 10.304,10.303 5.71,0 10.304,-4.593 10.304,-10.303 l 0,-40.97 c 0,-5.711 -4.594,-10.182 -10.304,-10.182 z m 0,81.94 c -5.647,0 -10.304,4.657 -10.304,10.303 l 0,36.729 -25.939,26.06 c -3.972,3.973 -3.972,10.453 0,14.425 1.986,1.986 4.666,3.031 7.272,3.031 2.607,0 5.225,-1.045 7.274,-3.031 l 25.94,-25.939 19.152,0 c 5.647,0 10.181,-4.656 10.181,-10.304 0,-5.71 -4.534,-10.181 -10.181,-10.181 l -13.091,0 0,-30.79 c 0,-5.646 -4.594,-10.303 -10.304,-10.303 z m 64.365,41.093 c -5.647,0 -10.304,4.471 -10.304,10.181 0,5.648 4.657,10.304 10.304,10.304 l 40.971,0 c 5.71,0 10.303,-4.656 10.303,-10.304 0,-5.71 -4.593,-10.181 -10.303,-10.181 l -40.971,0 z m 164.125,0 c -5.648,0 -10.303,4.471 -10.303,10.181 0,5.648 4.655,10.304 10.303,10.304 l 40.97,0 c 5.648,0 10.181,-4.656 10.181,-10.304 0,-5.71 -4.595,-10.181 -10.181,-10.181 l -40.97,0 z m -286.551,57.94 c -2.623,0 -5.166,1.014 -7.153,3.031 l -29.09,28.969 c -3.973,3.972 -3.973,10.574 0,14.547 1.985,1.985 4.666,2.909 7.272,2.909 2.607,0 5.166,-0.924 7.151,-2.909 l 29.092,-28.971 c 3.973,-4.034 3.973,-10.574 0,-14.545 -1.985,-1.987 -4.65,-3.023 -7.272,-3.031 z m -57.941,57.94 c -2.614,0 -5.257,1.045 -7.273,3.03 l -29.09203,29.092 c -3.972,3.973 -3.972,10.453 0,14.425 1.986,1.986 4.667,3.03 7.273,3.03 2.607,0 5.287,-1.044 7.273,-3.03 l 28.97003,-29.092 c 3.972,-3.972 3.972,-10.452 0,-14.425 -1.986,-1.985 -4.537,-3.03 -7.151,-3.03 z" fill="#000000"/></g></svg>