<?xml version="1.0" encoding="utf-8"?>
<svg width="195mm" height="195mm" viewBox="40.507999420166016 40.507999420166016 609.9290161132812 609.9290161132812" id="svg2" version="1.1" xmlns="http://www.w3.org/2000/svg">
  <g id="layer1" transform="translate(0,-361.41754)">
    <g id="g4149" transform="matrix(0.89366306,0,0,0.89366306,36.63725,64.570287)" style="fill:#000000">
      <circle style="opacity:1;fill:#d98300;fill-opacity:1;fill-rule:nonzero;stroke:#000000;stroke-width:16.78484726;stroke-linecap:butt;stroke-linejoin:miter;stroke-miterlimit:4;stroke-dasharray:none;stroke-opacity:1" id="path4187" cx="345.58344" cy="718.74921" r="330.06232"/>
      <path style="color:#000000;font-style:normal;font-variant:normal;font-weight:normal;font-stretch:normal;font-size:medium;line-height:normal;font-family:sans-serif;text-indent:0;text-align:start;text-decoration:none;text-decoration-line:none;text-decoration-style:solid;text-decoration-color:#000000;letter-spacing:normal;word-spacing:normal;text-transform:none;direction:ltr;block-progression:tb;writing-mode:lr-tb;baseline-shift:baseline;text-anchor:start;white-space:normal;clip-rule:nonzero;display:inline;overflow:visible;visibility:visible;opacity:1;isolation:auto;mix-blend-mode:normal;color-interpolation:sRGB;color-interpolation-filters:linearRGB;solid-color:#000000;solid-opacity:1;fill:#000000;fill-opacity:1;fill-rule:nonzero;stroke:none;stroke-width:8.33983707;stroke-linecap:butt;stroke-linejoin:miter;stroke-miterlimit:4;stroke-dasharray:none;stroke-dashoffset:0;stroke-opacity:1;color-rendering:auto;image-rendering:auto;shape-rendering:auto;text-rendering:auto;enable-background:accumulate" d="M 535.55153,609.07025 345.58774,499.39564 155.61533,609.07025 l 0,219.35785 9.23322,5.32554 180.73919,104.34909 189.96379,-109.67463 z m -36.91559,21.3107 0,176.7278 -117.44009,67.01309 -0.40102,-66.27553 75.40612,-37.91886 -0.3305,-112.65181 -74.16152,-35.12924 1.4485,110.10018 -37.18272,29.29443 -37.57138,-29.21593 -0.65588,-110.95743 -73.03331,36.49376 -0.51403,109.3756 72.73557,40.81476 -0.0586,65.39477 -114.3461,-66.33768 0,-176.72781 153.05684,-88.36387 z" id="path6005"/>
    </g>
  </g>
</svg>