<svg height='300px' width='300px'  fill="#0097A7" xmlns="http://www.w3.org/2000/svg" data-name="Layer 1" viewBox="0 0 100 100" x="0px" y="0px">
  <title>1.5</title>
  <path d="M77.22,55.86,69,58.07,66.78,56.8,75.93,50l-9.15-6.8L69,41.93l8.25,2.21,1.29-4.83-6.83-1.83,1.83-6.83-4.83-1.29L66.47,37.6l-2.19,1.27L63,27.54,52.5,32.06V29.54l6-6L55,20l-5,5-5-5L41.46,23.5l6,6v2.52L37,27.54,35.72,38.87,33.53,37.6l-2.21-8.24-4.83,1.29,1.83,6.83-6.83,1.83,1.29,4.83L31,41.93l2.19,1.27L24.07,50l9.15,6.8L31,58.07l-8.25-2.21-1.29,4.83,6.83,1.83-1.83,6.83,4.83,1.29,2.21-8.24,2.19-1.27L37,72.46,47.5,67.94v2.52l-6,6L45,80l5-5,5,5,3.54-3.54-6-6V67.94L63,72.46l1.31-11.33,2.19,1.27,2.21,8.24,4.83-1.29-1.83-6.83,6.83-1.83ZM58.78,65.2,52.5,62.49V61.43L50,60.35l-2.5,1.08v1.06L41.22,65.2l-.79-6.79.92-.53L41,55.17l-2.19-1.62-.92.53L32.45,50l5.48-4.08.92.53L41,44.83l.31-2.71-.92-.53.79-6.79,6.28,2.71v1.06L50,39.65l2.5-1.08V37.51l6.28-2.71.79,6.79-.92.53L59,44.83l2.19,1.62.92-.53L67.55,50l-5.48,4.08-.92-.53L59,55.17l-.31,2.71.92.53Z"></path>
</svg>
