<svg xmlns="http://www.w3.org/2000/svg" xmlns:xlink="http://www.w3.org/1999/xlink" height="300px" width="300px" fill="#EF6C00" version="1.1" x="0px" y="0px" viewBox="0 0 50 50" enable-background="new 0 0 50 50" xml:space="preserve">
  <g>
    <path d="M40.7,32.6c0,12.9-12.5,15.3-14,16.4c2.1-4.1,2.9-4.7,2.9-6.5c0-1.2-0.5-2.3-1.3-3.2c-1.8-1.8-2.7-3.1-3.3-6.1   C16,42,23.1,46.8,23.3,49c-1.3-1-13.5-3.6-14-16.3c-0.2-6.1,1.5-9.5,2.2-12.7l2,4.8c0.3,0.7,1,1.2,1.8,1.2c1.1,0,2-0.9,2-2   c0-5.3-3.5-7.1-3.6-7.2c1.9-2.2-1.2-1,15.1-15.8c0.3,1.9-3.3,9.8,7.3,20.5C39.1,24.5,40.7,28.4,40.7,32.6z"/>
  </g>
</svg>
