<?xml version="1.0" encoding="utf-8"?>
<!-- Generator: Adobe Illustrator 23.0.3, SVG Export Plug-In . SVG Version: 6.00 Build 0)  -->
<svg version="1.1" xmlns="http://www.w3.org/2000/svg" xmlns:xlink="http://www.w3.org/1999/xlink" x="0px" y="0px"
	 viewBox="0 0 552.8 552.8" style="enable-background:new 0 0 552.8 552.8;" xml:space="preserve">
<style type="text/css">
	.st0{fill:#081826;}
	.st1{fill:#C5791E;}
	.st2{fill:#FFFFFF;}
</style>
<g id="bg" inkscape:version="0.91 r13725" sodipodi:docname="adept.svg" xmlns:cc="http://creativecommons.org/ns#" xmlns:dc="http://purl.org/dc/elements/1.1/" xmlns:inkscape="http://www.inkscape.org/namespaces/inkscape" xmlns:rdf="http://www.w3.org/1999/02/22-rdf-syntax-ns#" xmlns:sodipodi="http://sodipodi.sourceforge.net/DTD/sodipodi-0.dtd" xmlns:svg="http://www.w3.org/2000/svg">
	
		<sodipodi:namedview  bordercolor="#666666" borderopacity="1.0" id="base" inkscape:current-layer="layer1" inkscape:cx="-129.55511" inkscape:cy="304.64766" inkscape:document-units="px" inkscape:pageopacity="0.0" inkscape:pageshadow="2" inkscape:window-height="1017" inkscape:window-maximized="1" inkscape:window-width="1920" inkscape:window-x="-8" inkscape:window-y="-8" inkscape:zoom="0.98994949" pagecolor="#ffffff" showgrid="true" showguides="false">
		<inkscape:grid  id="grid4169" type="xygrid"></inkscape:grid>
	</sodipodi:namedview>
	<circle id="path8598_4_" class="st0" cx="277.4" cy="263.4" r="183.9"/>
	<polyline class="st0" points="232.2,104.3 232.2,42.3 322.3,42.3 322.3,104.3 	"/>
	<polyline class="st0" points="323.1,421.9 323.1,484.3 231.4,484.3 231.4,421.9 	"/>
	<polyline class="st0" points="435.2,216.8 498.6,216.8 498.6,310.1 435.2,310.1 	"/>
	<polyline class="st0" points="118.8,309.3 56.2,309.3 56.2,217.6 118.8,217.6 	"/>
	<polyline class="st0" points="132.8,183.6 88.7,139.5 153.4,74.9 197.4,118.9 	"/>
	<polyline class="st0" points="421.8,342.9 466.1,387.1 401,452.2 356.7,408 	"/>
	<polyline class="st0" points="356.7,118.9 401.4,74.2 466.5,139.3 421.8,184 	"/>
	<polyline class="st0" points="197.4,407.9 153.5,451.9 88.8,387.2 132.8,343.2 	"/>
</g>
<g id="Layer_3">
	<circle id="path8598_1_" class="st1" cx="277.4" cy="263.4" r="180.5"/>
	<polyline class="st1" points="234.9,102.6 234.9,45.7 319.6,45.7 319.6,102.6 	"/>
	<polyline class="st1" points="319.6,424.3 319.6,481.1 234.9,481.1 234.9,424.3 	"/>
	<circle id="path8598_2_" class="st0" cx="277.4" cy="263.4" r="150.8"/>
	<polyline class="st1" points="438.1,221.1 494.9,221.1 494.9,305.8 438.1,305.8 	"/>
	<polyline class="st1" points="116.4,305.8 59.6,305.8 59.6,221.1 116.4,221.1 	"/>
	<polyline class="st1" points="133.6,179.6 93.4,139.4 153.3,79.5 193.5,119.7 	"/>
	<polyline class="st1" points="421,347.2 461.1,387.4 401.2,447.3 361,407.1 	"/>
	<polyline class="st1" points="361,119.7 401.2,79.5 461.1,139.4 421,179.6 	"/>
	<polyline class="st1" points="193.5,407.1 153.3,447.3 93.4,387.4 133.6,347.2 	"/>
</g>
<g id="Layer_2">
	<g>
		
			<rect x="224.7" y="243.3" transform="matrix(0.7071 -0.7071 0.7071 0.7071 -102.6162 271.8761)" class="st0" width="104.3" height="32.9"/>
		<polygon class="st2" points="353.2,203.5 279.4,277.2 259.2,257.1 333,183.3 334.8,201.7 		"/>
		<polygon class="st2" points="367.9,156.7 311.8,212.8 308.1,176.1 331.2,153.1 		"/>
		<polygon class="st2" points="323.6,224.7 379.8,168.6 383.4,205.3 360.4,228.3 		"/>
		<polygon class="st2" points="197.2,319.1 270.9,245.4 291.1,265.6 217.4,339.3 215.6,320.9 		"/>
		<polygon class="st2" points="182.4,366 238.6,309.8 242.2,346.6 219.2,369.6 		"/>
		<polygon class="st2" points="226.7,297.9 170.5,354.1 166.9,317.3 189.9,294.3 		"/>
	</g>
</g>
</svg>
