<svg width='200' height='200' fill="#000000" xmlns="http://www.w3.org/2000/svg" xmlns:xlink="http://www.w3.org/1999/xlink" version="1.1" x="0px" y="0px" viewBox="0 0 72 72" enable-background="new 0 0 72 72" xml:space="preserve"><path fill="#000000" d="M53.2,47.5C53.2,47.6,53.2,47.6,53.2,47.5c-0.5-0.1-3.5-0.9-4.9-2.5c0,0-2.5-2.6-3.5-5.6  c0-0.1-0.1-0.2-0.2-0.3L14.9,9.4c0,0-0.1-0.1-0.2-0.1L1,0.6C0.7,0.4,0.4,0.7,0.6,1l8.7,13.7c0,0.1,0.1,0.1,0.1,0.2l29.8,29.8  c0.1,0.1,0.2,0.1,0.3,0.2c3,1,5.6,3.5,5.6,3.5c1.3,1.1,2.1,3.4,2.4,4.3c0.1,0.3,0,0.6-0.2,0.8c-3.1,2.9-0.4,4.4-0.2,4.5c0,0,0,0,0,0  c1-0.1,0.9-0.9,0.9-1.1c0,0,0,0,0,0c-0.7-0.8-0.1-1.3-0.1-1.3c0.7-1.2,2.8,0.6,2.9,0.7c0,0,0,0,0,0c0.8,0.5,2.5,0.4,3.1,0.3  c0.1,0,0.1,0.1,0.1,0.2l0,0c-0.1,0.1,0,0.1,0,0.2c0.8,0.2,1,0.9,1,1.2c0,0.1,0.1,0.2,0.2,0.2c1.3,0.1,1.4,1,1.4,1.4  c0,0.1,0.1,0.2,0.2,0.2c1.4,0.2,1.6,1.1,1.6,1.5c0,0.1,0.1,0.2,0.2,0.2c1.3,0.1,1.5,1.1,1.5,1.6c0,0.1,0.1,0.2,0.2,0.2  c1.1,0.1,1.4,0.8,1.5,1.2c0,0.2,0.2,0.2,0.4,0.1l0.2-0.2c0.3-0.2,0.2,0.2,0.2,0.2c-0.1,0.6,0,1.8,0.1,2.1c0,0,0,0.1,0.1,0.1l0.2,0.2  c0.1,0.1,0.1,0.2,0,0.3l0,0c-0.1,0.1-0.1,0.2,0,0.3l0.3,0.3c0.1,0.1,0.2,0.1,0.3,0l0.2-0.2c0.1-0.1,0.3-0.1,0.3,0.1  c0.2,0.8-0.3,2.5-0.4,3c0,0.1,0,0.2,0.1,0.2c2.8,1.4,5.8-1.3,5.9-1.4c0,0,0,0,0,0c0.1-0.1,2.9-3.2,1.4-5.9c0-0.1-0.1-0.1-0.2-0.1  c-0.5,0.2-2.1,0.6-3,0.4c-0.1,0-0.2-0.2-0.1-0.3l0.2-0.2c0.1-0.1,0.1-0.2,0-0.3L67.7,63c-0.1-0.1-0.2-0.1-0.3,0l0,0  c-0.1,0.1-0.2,0.1-0.3,0L67,62.8c0,0-0.1,0-0.1-0.1c-0.3,0-1.4-0.2-2.1-0.1c0,0-0.4,0.1-0.2-0.2l0.2-0.2c0.1-0.1,0.1-0.3-0.1-0.4  c-0.5-0.1-1.2-0.4-1.2-1.5c0-0.1-0.1-0.2-0.2-0.2c-0.4,0-1.5-0.2-1.6-1.5c0-0.1-0.1-0.2-0.2-0.2c-0.4,0-1.3-0.2-1.5-1.6  c0-0.1-0.1-0.2-0.2-0.2c-0.4,0-1.2-0.1-1.4-1.4c0-0.1-0.1-0.2-0.2-0.2c-0.3,0-1-0.2-1.2-1c0-0.1-0.1-0.1-0.2,0l0,0  c-0.1,0.1-0.2,0-0.2-0.1c0.1-0.7,0.2-2.3-0.3-3.1c0,0,0,0,0,0c-0.1-0.1-1.9-2.3-0.7-2.9c0,0,0.5-0.6,1.3,0.1c0,0,0,0,0,0  c0.2,0,1,0.1,1.1-0.9c0,0,0,0,0,0C57.9,46.8,56.3,44,53.2,47.5z"/><path fill="#000000" d="M5.9,71.1C6,71.1,6.1,71,6,70.9c0,0,0-0.1,0-0.1c0-0.1,0-0.2,0.1-0.2c0.1-0.1,0.3-0.2,0.3-0.4  c0-0.5-0.1-1,0.2-1.3c0,0,0,0,0.1-0.1c0.2-0.1,0.5-0.2,0.7-0.2c0.1,0,0.2-0.1,0.2-0.2c-0.1-0.9,0.5-1.5,1.4-1.6  c0.1,0,0.2-0.1,0.2-0.2C9.1,65.6,9.6,65,10.5,65c0.1,0,0.2-0.1,0.2-0.3c-0.1-0.8,0.4-1.5,1.2-1.5c0.1,0,0.2-0.1,0.2-0.3  c-0.1-0.6,0-1.3,0.7-1.6c0.2-0.1,0.5-0.1,0.8-0.1c0.1,0,0.3-0.1,0.2-0.3c-0.1-0.6,0-1.1,0.6-1.4c0.2-0.1,0.5-0.1,0.8-0.2  c0.1,0,0.2-0.1,0.2-0.3c-0.1-0.9,0.5-1.5,1.4-1.6c0.1,0,0.2-0.1,0.2-0.3c-0.1-1,0.5-1.6,1.4-1.7c0.1,0,0.2-0.1,0.2-0.2  c-0.1-1,0.5-1.7,1.5-1.8c0.1,0,0.2-0.1,0.2-0.2c0-0.8,0.3-1.5,1.1-1.4c0.1,0,0.2-0.1,0.2-0.2c0-0.8,0.5-1.5,1.3-1.6  c0.1,0,0.2-0.1,0.2-0.3c-0.1-0.3,0-0.7,0.2-0.9c0.3-0.4,0.9-0.3,1.2-0.5c0.6-0.3,1.2-0.8,1.1-1.6c0,0,0,0,0,0  c-0.1-0.2-0.1-0.5-0.1-0.8c0-0.1,0-0.1-0.1-0.2c-0.1-0.1-0.1-0.2,0-0.3L38,31c0.1-0.1,0.2-0.3,0.3-0.5c2.3-5,7-10.7,8-11.9  c0.1-0.1,0.3-0.1,0.4,0c0.1,0.1,0.3,0.1,0.4,0l3.9-4.6c0.9-0.9,2.5-0.7,2.8-0.6c0,0,0.1,0,0.1,0l1.9,1.6c0,0,0.1,0.1,0.1,0.1  c1.2,5.2-5.5,10.7-5.5,10.7c-3.2,1.9-5.1,5.9-5.9,8.3c-0.1,0.4,0.3,0.6,0.6,0.4c1.8-2,5.5-5.5,10.3-6.2c6.9-1,12.5-6.6,12.5-6.6  c6.4-6.4,2.9-10.6,2.9-10.6l-6.7-5.7c-0.1-0.1-0.3,0-0.3,0.2l0.2,2.9c0,0,0,0.1,0,0.1l0.4,0.8c0,0,0.1,0.1,0.1,0.1  c0.3,0.1,1.5,0.7,1.3,2.3c-0.3,1.8-2.6,1.6-5.9-1.8c-3-3.1-9.8-8.6-10.9-9.4c-0.1-0.1-0.2-0.1-0.3,0L43,7c0,0,4.4-1.2,6.6,0  c0.1,0.1,0.1,0.2,0.1,0.3l-6.6,7.8c-0.1,0.1-0.1,0.3,0,0.4l0.4,0.3c0.1,0.1,0.1,0.2,0,0.4c-1,1.3-7,8.9-8.1,12.1  c-0.1,0.2-0.2,0.5-0.4,0.6L22.7,43.3c-0.1,0.1-0.2,0.1-0.3,0l-0.1-0.1c-0.1,0-0.1-0.1-0.2,0c-0.3,0.1-0.5,0.1-0.8,0c0,0,0,0,0,0  c-0.7,0-1.2,0.7-1.4,1.3c-0.1,0.3,0,0.9-0.3,1.3c-0.2,0.2-0.6,0.3-0.9,0.3c-0.1,0-0.2,0.1-0.2,0.2c0,0.8-0.5,1.4-1.3,1.5  c-0.1,0-0.2,0.2-0.2,0.3c0.2,0.8-0.4,1.2-1.2,1.3c-0.1,0-0.2,0.1-0.2,0.2c0.1,1-0.5,1.7-1.5,1.8c-0.1,0-0.2,0.1-0.2,0.3  c0.1,0.9-0.4,1.7-1.4,1.7c-0.1,0-0.2,0.1-0.2,0.2c0.1,0.9-0.4,1.6-1.4,1.7c-0.1,0-0.2,0.1-0.2,0.3c0,0.3,0,0.5,0,0.8  c-0.2,0.6-0.7,0.8-1.3,0.8c-0.1,0-0.3,0.1-0.2,0.3c0.1,0.3,0.1,0.5,0,0.8c-0.2,0.7-0.8,0.9-1.5,0.9c-0.1,0-0.3,0.1-0.2,0.3  c0.1,0.8-0.4,1.4-1.2,1.4c-0.1,0-0.2,0.1-0.2,0.2c0.1,0.9-0.4,1.5-1.3,1.5c-0.1,0-0.2,0.1-0.2,0.2c0.1,0.9-0.4,1.5-1.3,1.6  c-0.1,0-0.2,0.1-0.2,0.3c0,0.3,0,0.5-0.1,0.8c0,0,0,0.1,0,0.1c-0.3,0.3-0.8,0.4-1.3,0.4c-0.1,0-0.2,0.2-0.3,0.4  c0,0.1-0.1,0.1-0.2,0.1c0,0-0.1,0-0.2,0c-0.1,0-0.2,0.1-0.2,0.2c-0.1,1.5,0,3,0.7,4.4c0,0,0.1,0.1,0.1,0.1  C2.9,71.7,4.4,71.5,5.9,71.1z"/></svg>