<svg height='300px' width='300px'  fill="#B71C1C" xmlns="http://www.w3.org/2000/svg" xmlns:xlink="http://www.w3.org/1999/xlink" version="1.1" x="0px" y="0px" viewBox="0 0 100 100" style="enable-background:new 0 0 100 100;" xml:space="preserve">
  <style type="text/css">.st0{fill:none;}</style>
  <path d="M91,29.8l-31,11l3.5-9.2l-9.4,5.4l-6-16.9l-2.7,17.9c0,0-26.4-15.6-26.2-15c0.2,0.6,13.3,20.2,13.3,20.2L9,50.6l22.6,2.9  l-9.1,19.6l19.8-16.2L46,79.8l6.5-22.3l25.4,17.7L65.4,51.2L91,29.8z M51.2,52.2l-3,10.5l-1.8-10.8l-9.3,7.6l4.3-9.2L30.7,49  l11.1-3.4c0,0-6.2-9.2-6.3-9.5c-0.1-0.3,12.3,7,12.3,7l1.3-8.4l2.8,7.9l4.4-2.5l-1.7,4.3l14.6-5.2l-12,10.1l5.9,11.3L51.2,52.2z"></path>
  <rect class="st0" width="100" height="100"></rect>
</svg>
