<svg xmlns="http://www.w3.org/2000/svg" height="300px" width="300px" fill="#8E24AA" viewBox="0 0 512 512" x="0px" y="0px">
  <title>effect Teleport</title>
  <path d="M417.5,39.78c-43.32-11.35-97.25-15.33-158.07-15.33-6.24,0-21-1-31.63.91a10.16,10.16,0,0,0,1.86,20.14c9.79,0,24.27.52,31.61.52,58.35,0,106.36,6.25,147.3,17,15,3.94,25.31,8.57,32.32,13,13.64,8.59,16.36,27.64,5.41,39.47-4.32,4.67-10.57,9.35-19.62,13.3a4,4,0,0,0,.39,7.48,24.44,24.44,0,0,0,15.49-.16c33.59-11.58,51.37-21.43,51.37-40.6C493.93,71.8,468.21,53.06,417.5,39.78Z"/>
  <path d="M398.5,141.24A12.46,12.46,0,1,0,386,153.71,12.46,12.46,0,0,0,398.5,141.24Z"/>
  <path d="M96.35,70.1a60,60,0,0,1,18.4-10.6c3.53-1,7-2,10.45-3,12-3.34,22.76-6.19,28.76-7.77a8.43,8.43,0,0,0,6-6c1.44-5.48-2.54-10.8-7.86-10.66-60.83,1.52-134,16.72-134,59.45,0,25,25.72,44.87,76.43,58.93,43.32,12,95.45,12.93,156.21,10.15,34.54-1.58,68.93-4.34,98.45-9.64,3.6-.65,5.18-5.19,2.87-8.18a16.6,16.6,0,0,0-14.1-6.53c-148.69,9.07-214.56-18.58-239.54-34.54C87.54,94.85,86.56,78.62,96.35,70.1Z"/>
  <path d="M349.16,261.3c3.6-.65,5.18-5.19,2.87-8.18a16.61,16.61,0,0,0-14.1-6.54c-148.69,9.08-213.82-19.8-239.54-34.53-9.63-5.51-7.25-16.34-3.21-24.91a11.08,11.08,0,0,0-7.74-15.53c-9-1.92-17.14-3.76-24.19-5.42a35.9,35.9,0,0,0-33.58,9.34c-7.33,7.3-11.6,16-11.6,26.32,0,25.05,25.72,44.88,76.43,58.94,43.32,12,95.45,12.93,156.21,10.15C285.25,269.35,319.64,266.6,349.16,261.3Z"/>
  <path d="M462,166.23a26.5,26.5,0,0,0-18.5-2.25l-.15,0a11.34,11.34,0,0,0-8.42,8.37c-.15.66-.28,1.34-.37,2.05a11.41,11.41,0,0,0,5.18,11.08l1.16.73.21.14c10.57,6.79,12.42,21.56,4.19,31.06-6.46,7.45-18,17.08-38,25-5.61,2.22-3.94,10.55,2.09,10.36,22.11-.72,51.77-6,74.12-26a37.75,37.75,0,0,0,3-2.77h0a25.36,25.36,0,0,0,7.46-18.29C493.93,190.47,483.21,177.25,462,166.23Z"/>
  <path d="M337.93,462.16c-148.69,9.08-213.82-19.8-239.54-34.53-9.63-5.51-7.25-16.34-3.21-24.92a11.08,11.08,0,0,0-7.74-15.52c-9-1.92-17.14-3.76-24.19-5.42a35.9,35.9,0,0,0-33.58,9.34c-7.33,7.3-11.6,16-11.6,26.32,0,25.05,25.72,44.88,76.43,58.94,43.32,12,95.45,12.93,156.21,10.15,34.54-1.59,68.93-4.34,98.45-9.65,3.6-.64,5.18-5.18,2.87-8.17A16.58,16.58,0,0,0,337.93,462.16Z"/>
  <path d="M462,381.81a26.5,26.5,0,0,0-18.5-2.25l-.15,0a11.34,11.34,0,0,0-8.42,8.37c-.15.66-.28,1.34-.37,2a11.41,11.41,0,0,0,5.18,11.08l1.16.73.21.14c10.57,6.79,12.42,21.56,4.19,31.06-6.46,7.45-18,17.08-38,25-5.61,2.21-3.94,10.55,2.09,10.36,22.11-.72,51.77-6,74.12-26a39.75,39.75,0,0,0,3-2.77h0a25.36,25.36,0,0,0,7.46-18.29C493.93,406.05,483.21,392.83,462,381.81Z"/>
  <path d="M475.56,271.9A21.79,21.79,0,0,0,454,269.55c-5.16,2.24-11.06,4.56-17.49,6.66a4.71,4.71,0,0,0-1.64,8l.07.06c9.79,8.52,8.8,24.75-2.05,31.68-19.51,12.47-75.77,30.95-170.34,34.12a23.12,23.12,0,0,0-16.46,7.68,8.91,8.91,0,0,0,6.21,14.82c3,.16,6,.3,9,.44,60.76,2.78,112.89,1.87,156.21-10.15C468.21,348.84,493.93,329,493.93,304,493.93,290.8,487,280.25,475.56,271.9Z"/>
  <path d="M87.43,283.37c-9-1.92-17.14-3.77-24.19-5.43a35.87,35.87,0,0,0-33.6,9.38c-7.31,7.29-11.38,19.76-11.38,30.06,0,19.39,13.64,34.57,46,41.47,23,4.9,46.53,7.74,65.42,7.1,9.33-.31,16.2-1.25,22-4.05,7.16-3.47,5.68-14.1-2.14-15.59-16.2-3.08-38.47-8.67-50.86-17.65-9-6.51-7.51-21.2-3.47-29.77A11.07,11.07,0,0,0,87.43,283.37Z"/>
  <path d="M187.92,359.2a12.13,12.13,0,1,0,12.13-12.13A12.13,12.13,0,0,0,187.92,359.2Z"/>
</svg>
