<svg width='200' height='200' fill="#000000" xmlns="http://www.w3.org/2000/svg" data-name="Layer 1" viewBox="0 0 100 100" x="0px" y="0px"><title>65 all</title><path d="M77.5,67.53,51.77,18.29h0a2,2,0,0,0-3.54,0L22.62,67.41a6.07,6.07,0,0,0-1.59,4c0,7.47,14.58,11.38,29,11.38S79,78.88,79,71.4A6,6,0,0,0,77.5,67.53ZM50,23.54,70.73,63.22C65.2,61.11,57.58,60,50,60S34.84,61.1,29.32,63.2Zm0,55.25c-15.19,0-24.91-4.34-25-7.35l.91-1.74C28.68,67,37.47,64,50,64c12.68,0,21.54,3,24.17,5.78l.8,1.54s0,0,0,.07C75,74.41,65.25,78.79,50,78.79Z"/></svg>