<svg xmlns="http://www.w3.org/2000/svg" height="300px" width="300px" fill="#ffffff" viewBox="0 0 16 16" x="0px" y="0px"><title>isometric cube</title><g><path d="M.5,13.856a.5.5,0,0,1-.5-.5V2.642a.5.5,0,0,1,1,0V13.356A.5.5,0,0,1,.5,13.856Z"/><path d="M8,5.286a.5.5,0,0,1-.137-.019L.363,3.124a.5.5,0,0,1,0-.962L7.863.019a.5.5,0,0,1,.274,0l7.5,2.143a.5.5,0,0,1,0,.962l-7.5,2.143A.5.5,0,0,1,8,5.286ZM2.32,2.643,8,4.266l5.68-1.623L8,1.02Z"/><path d="M8,16a.5.5,0,0,1-.137-.019l-7.5-2.143a.5.5,0,0,1,0-.962l7.5-2.143a.5.5,0,0,1,.274,0l7.5,2.143a.5.5,0,0,1,0,.962l-7.5,2.143A.5.5,0,0,1,8,16ZM2.32,13.357,8,14.98l5.68-1.623L8,11.734Z"/><path d="M8,16a.5.5,0,0,1-.5-.5V4.786a.5.5,0,1,1,1,0V15.5A.5.5,0,0,1,8,16Z"/><path d="M15.5,13.857a.5.5,0,0,1-.5-.5V2.643a.5.5,0,0,1,1,0V13.357A.5.5,0,0,1,15.5,13.857Z"/></g></svg>
